<?xml version="1.0" encoding="UTF-8" standalone="no"?>
<!DOCTYPE svg PUBLIC "-//W3C//DTD SVG 1.1//EN"
 "http://www.w3.org/Graphics/SVG/1.1/DTD/svg11.dtd">
<!-- Generated by graphviz version 2.40.1 (20161225.0304)
 -->
<!-- Title: inheritancece9d8276cb Pages: 1 -->
<svg width="458pt" height="78pt"
 viewBox="0.00 0.00 458.00 78.00" xmlns="http://www.w3.org/2000/svg" xmlns:xlink="http://www.w3.org/1999/xlink">
<g id="graph0" class="graph" transform="scale(1 1) rotate(0) translate(4 74)">
<title>inheritancece9d8276cb</title>
<!-- Animation -->
<g id="node1" class="node">
<title>Animation</title>
<g id="a_node1"><a xlink:href="../_as_gen/matplotlib.animation.Animation.html#matplotlib.animation.Animation" xlink:title="A base class for Animations." target="_top">
<polygon fill="#ffffff" stroke="#000000" stroke-width=".5" points="96,-48 0,-48 0,-22 96,-22 96,-48"/>
<text text-anchor="middle" x="48" y="-31.2" font-family="Vera Sans, DejaVu Sans, Liberation Sans, Arial, Helvetica, sans" font-size="16.00" fill="#000000">Animation</text>
</a>
</g>
</g>
<!-- TimedAnimation -->
<g id="node3" class="node">
<title>TimedAnimation</title>
<g id="a_node3"><a xlink:href="../_as_gen/matplotlib.animation.TimedAnimation.html#matplotlib.animation.TimedAnimation" xlink:title="`Animation` subclass for time&#45;based animation." target="_top">
<polygon fill="#ffffff" stroke="#000000" stroke-width=".5" points="276,-48 132,-48 132,-22 276,-22 276,-48"/>
<text text-anchor="middle" x="204" y="-31.2" font-family="Vera Sans, DejaVu Sans, Liberation Sans, Arial, Helvetica, sans" font-size="16.00" fill="#000000">TimedAnimation</text>
</a>
</g>
</g>
<!-- Animation&#45;&gt;TimedAnimation -->
<g id="edge3" class="edge">
<title>Animation&#45;&gt;TimedAnimation</title>
<path fill="none" stroke="#000000" stroke-width=".5" d="M96.0781,-35C105.8488,-35 116.3579,-35 126.8466,-35"/>
<polygon fill="#000000" stroke="#000000" stroke-width=".5" points="126.9906,-36.7501 131.9906,-35 126.9906,-33.2501 126.9906,-36.7501"/>
</g>
<!-- ArtistAnimation -->
<g id="node2" class="node">
<title>ArtistAnimation</title>
<g id="a_node2"><a xlink:href="../_as_gen/matplotlib.animation.ArtistAnimation.html#matplotlib.animation.ArtistAnimation" xlink:title="Animation using a fixed set of `.Artist` objects." target="_top">
<polygon fill="#ffffff" stroke="#000000" stroke-width=".5" points="450,-70 312,-70 312,-44 450,-44 450,-70"/>
<text text-anchor="middle" x="381" y="-53.2" font-family="Vera Sans, DejaVu Sans, Liberation Sans, Arial, Helvetica, sans" font-size="16.00" fill="#000000">ArtistAnimation</text>
</a>
</g>
</g>
<!-- TimedAnimation&#45;&gt;ArtistAnimation -->
<g id="edge1" class="edge">
<title>TimedAnimation&#45;&gt;ArtistAnimation</title>
<path fill="none" stroke="#000000" stroke-width=".5" d="M276.248,-43.98C286.2603,-45.2244 296.5601,-46.5046 306.6107,-47.7539"/>
<polygon fill="#000000" stroke="#000000" stroke-width=".5" points="306.6632,-49.5238 311.8409,-48.404 307.095,-46.0505 306.6632,-49.5238"/>
</g>
<!-- FuncAnimation -->
<g id="node4" class="node">
<title>FuncAnimation</title>
<g id="a_node4"><a xlink:href="../_as_gen/matplotlib.animation.FuncAnimation.html#matplotlib.animation.FuncAnimation" xlink:title="Makes an animation by repeatedly calling a function *func*." target="_top">
<polygon fill="#ffffff" stroke="#000000" stroke-width=".5" points="447.5,-26 314.5,-26 314.5,0 447.5,0 447.5,-26"/>
<text text-anchor="middle" x="381" y="-9.2" font-family="Vera Sans, DejaVu Sans, Liberation Sans, Arial, Helvetica, sans" font-size="16.00" fill="#000000">FuncAnimation</text>
</a>
</g>
</g>
<!-- TimedAnimation&#45;&gt;FuncAnimation -->
<g id="edge2" class="edge">
<title>TimedAnimation&#45;&gt;FuncAnimation</title>
<path fill="none" stroke="#000000" stroke-width=".5" d="M276.248,-26.02C287.1901,-24.66 298.4755,-23.2573 309.4037,-21.899"/>
<polygon fill="#000000" stroke="#000000" stroke-width=".5" points="309.6512,-23.6318 314.3972,-21.2783 309.2195,-20.1585 309.6512,-23.6318"/>
</g>
</g>
</svg>
