<?xml version="1.0" encoding="UTF-8" standalone="no"?>
<!DOCTYPE svg PUBLIC "-//W3C//DTD SVG 1.1//EN"
 "http://www.w3.org/Graphics/SVG/1.1/DTD/svg11.dtd">
<!-- Generated by graphviz version 2.40.1 (20161225.0304)
 -->
<!-- Title: inheritance1bda3e63b5 Pages: 1 -->
<svg width="576pt" height="227pt"
 viewBox="0.00 0.00 576.00 226.64" xmlns="http://www.w3.org/2000/svg" xmlns:xlink="http://www.w3.org/1999/xlink">
<g id="graph0" class="graph" transform="scale(.5872 .5872) rotate(0) translate(4 382)">
<title>inheritance1bda3e63b5</title>
<!-- AutoDateFormatter -->
<g id="node1" class="node">
<title>AutoDateFormatter</title>
<g id="a_node1"><a xlink:href="../api/dates_api.html#matplotlib.dates.AutoDateFormatter" xlink:title="A `.Formatter` which attempts to figure out the best format to use. &#160;This" target="_top">
<polygon fill="#ffffff" stroke="#000000" stroke-width=".5" points="562.5,-290 394.5,-290 394.5,-264 562.5,-264 562.5,-290"/>
<text text-anchor="middle" x="478.5" y="-273.2" font-family="Vera Sans, DejaVu Sans, Liberation Sans, Arial, Helvetica, sans" font-size="16.00" fill="#000000">AutoDateFormatter</text>
</a>
</g>
</g>
<!-- Formatter -->
<g id="node2" class="node">
<title>Formatter</title>
<g id="a_node2"><a xlink:href="../ticker_api.html#matplotlib.ticker.Formatter" xlink:title="Create a string based on a tick value and location." target="_top">
<polygon fill="#ffffff" stroke="#000000" stroke-width=".5" points="326,-202 231,-202 231,-176 326,-176 326,-202"/>
<text text-anchor="middle" x="278.5" y="-185.2" font-family="Vera Sans, DejaVu Sans, Liberation Sans, Arial, Helvetica, sans" font-size="16.00" fill="#000000">Formatter</text>
</a>
</g>
</g>
<!-- Formatter&#45;&gt;AutoDateFormatter -->
<g id="edge1" class="edge">
<title>Formatter&#45;&gt;AutoDateFormatter</title>
<path fill="none" stroke="#000000" stroke-width=".5" d="M294.8841,-202.1611C314.3125,-217.1242 348.2082,-241.2516 381,-255 387.6963,-257.8075 394.8084,-260.285 402.0215,-262.4653"/>
<polygon fill="#000000" stroke="#000000" stroke-width=".5" points="401.7373,-264.2054 407.0274,-263.9277 402.7188,-260.8458 401.7373,-264.2054"/>
</g>
<!-- ConciseDateFormatter -->
<g id="node7" class="node">
<title>ConciseDateFormatter</title>
<g id="a_node7"><a xlink:href="../api/dates_api.html#matplotlib.dates.ConciseDateFormatter" xlink:title="A `.Formatter` which attempts to figure out the best format to use for the" target="_top">
<polygon fill="#ffffff" stroke="#000000" stroke-width=".5" points="575.5,-246 381.5,-246 381.5,-220 575.5,-220 575.5,-246"/>
<text text-anchor="middle" x="478.5" y="-229.2" font-family="Vera Sans, DejaVu Sans, Liberation Sans, Arial, Helvetica, sans" font-size="16.00" fill="#000000">ConciseDateFormatter</text>
</a>
</g>
</g>
<!-- Formatter&#45;&gt;ConciseDateFormatter -->
<g id="edge4" class="edge">
<title>Formatter&#45;&gt;ConciseDateFormatter</title>
<path fill="none" stroke="#000000" stroke-width=".5" d="M326.1509,-199.4832C352.473,-205.2741 385.5341,-212.5475 414.1256,-218.8376"/>
<polygon fill="#000000" stroke="#000000" stroke-width=".5" points="413.7815,-220.5537 419.0407,-219.919 414.5335,-217.1354 413.7815,-220.5537"/>
</g>
<!-- DateFormatter -->
<g id="node9" class="node">
<title>DateFormatter</title>
<g id="a_node9"><a xlink:href="../api/dates_api.html#matplotlib.dates.DateFormatter" xlink:title="Format a tick (in days since the epoch) with a" target="_top">
<polygon fill="#ffffff" stroke="#000000" stroke-width=".5" points="544.5,-202 412.5,-202 412.5,-176 544.5,-176 544.5,-202"/>
<text text-anchor="middle" x="478.5" y="-185.2" font-family="Vera Sans, DejaVu Sans, Liberation Sans, Arial, Helvetica, sans" font-size="16.00" fill="#000000">DateFormatter</text>
</a>
</g>
</g>
<!-- Formatter&#45;&gt;DateFormatter -->
<g id="edge6" class="edge">
<title>Formatter&#45;&gt;DateFormatter</title>
<path fill="none" stroke="#000000" stroke-width=".5" d="M326.1509,-189C350.3057,-189 380.1356,-189 406.9786,-189"/>
<polygon fill="#000000" stroke="#000000" stroke-width=".5" points="407.3049,-190.7501 412.3049,-189 407.3048,-187.2501 407.3049,-190.7501"/>
</g>
<!-- IndexDateFormatter -->
<g id="node15" class="node">
<title>IndexDateFormatter</title>
<g id="a_node15"><a xlink:href="../api/dates_api.html#matplotlib.dates.IndexDateFormatter" xlink:title="[*Deprecated*] Use with `.IndexLocator` to cycle format strings by index." target="_top">
<polygon fill="#ffffff" stroke="#000000" stroke-width=".5" points="566,-158 391,-158 391,-132 566,-132 566,-158"/>
<text text-anchor="middle" x="478.5" y="-141.2" font-family="Vera Sans, DejaVu Sans, Liberation Sans, Arial, Helvetica, sans" font-size="16.00" fill="#000000">IndexDateFormatter</text>
</a>
</g>
</g>
<!-- Formatter&#45;&gt;IndexDateFormatter -->
<g id="edge11" class="edge">
<title>Formatter&#45;&gt;IndexDateFormatter</title>
<path fill="none" stroke="#000000" stroke-width=".5" d="M326.1509,-178.5168C352.473,-172.7259 385.5341,-165.4525 414.1256,-159.1624"/>
<polygon fill="#000000" stroke="#000000" stroke-width=".5" points="414.5335,-160.8646 419.0407,-158.081 413.7815,-157.4463 414.5335,-160.8646"/>
</g>
<!-- AutoDateLocator -->
<g id="node3" class="node">
<title>AutoDateLocator</title>
<g id="a_node3"><a xlink:href="../api/dates_api.html#matplotlib.dates.AutoDateLocator" xlink:title="On autoscale, this class picks the best `DateLocator` to set the view" target="_top">
<polygon fill="#ffffff" stroke="#000000" stroke-width=".5" points="775,-180 625,-180 625,-154 775,-154 775,-180"/>
<text text-anchor="middle" x="700" y="-163.2" font-family="Vera Sans, DejaVu Sans, Liberation Sans, Arial, Helvetica, sans" font-size="16.00" fill="#000000">AutoDateLocator</text>
</a>
</g>
</g>
<!-- DateLocator -->
<g id="node4" class="node">
<title>DateLocator</title>
<g id="a_node4"><a xlink:href="../api/dates_api.html#matplotlib.dates.DateLocator" xlink:title="Determines the tick locations when plotting dates." target="_top">
<polygon fill="#ffffff" stroke="#000000" stroke-width=".5" points="535.5,-114 421.5,-114 421.5,-88 535.5,-88 535.5,-114"/>
<text text-anchor="middle" x="478.5" y="-97.2" font-family="Vera Sans, DejaVu Sans, Liberation Sans, Arial, Helvetica, sans" font-size="16.00" fill="#000000">DateLocator</text>
</a>
</g>
</g>
<!-- DateLocator&#45;&gt;AutoDateLocator -->
<g id="edge2" class="edge">
<title>DateLocator&#45;&gt;AutoDateLocator</title>
<path fill="none" stroke="#000000" stroke-width=".5" d="M535.6568,-110.6201C549.148,-113.7815 563.2961,-117.8486 576,-123 593.3769,-130.0463 594.7055,-137.7539 612,-145 618.6087,-147.7689 625.6481,-150.2486 632.7563,-152.4543"/>
<polygon fill="#000000" stroke="#000000" stroke-width=".5" points="632.3917,-154.172 637.6839,-153.9377 633.4007,-150.8206 632.3917,-154.172"/>
</g>
<!-- RRuleLocator -->
<g id="node12" class="node">
<title>RRuleLocator</title>
<g id="a_node12"><a xlink:href="../api/dates_api.html#matplotlib.dates.RRuleLocator" xlink:title="RRuleLocator" target="_top">
<polygon fill="#ffffff" stroke="#000000" stroke-width=".5" points="761,-136 639,-136 639,-110 761,-110 761,-136"/>
<text text-anchor="middle" x="700" y="-119.2" font-family="Vera Sans, DejaVu Sans, Liberation Sans, Arial, Helvetica, sans" font-size="16.00" fill="#000000">RRuleLocator</text>
</a>
</g>
</g>
<!-- DateLocator&#45;&gt;RRuleLocator -->
<g id="edge16" class="edge">
<title>DateLocator&#45;&gt;RRuleLocator</title>
<path fill="none" stroke="#000000" stroke-width=".5" d="M535.5418,-106.6655C565.4711,-109.6382 602.3052,-113.2967 633.522,-116.3972"/>
<polygon fill="#000000" stroke="#000000" stroke-width=".5" points="633.7324,-118.1766 638.8809,-116.9295 634.0784,-114.6938 633.7324,-118.1766"/>
</g>
<!-- MicrosecondLocator -->
<g id="node16" class="node">
<title>MicrosecondLocator</title>
<g id="a_node16"><a xlink:href="../api/dates_api.html#matplotlib.dates.MicrosecondLocator" xlink:title="Make ticks on regular intervals of one or more microsecond(s)." target="_top">
<polygon fill="#ffffff" stroke="#000000" stroke-width=".5" points="788,-92 612,-92 612,-66 788,-66 788,-92"/>
<text text-anchor="middle" x="700" y="-75.2" font-family="Vera Sans, DejaVu Sans, Liberation Sans, Arial, Helvetica, sans" font-size="16.00" fill="#000000">MicrosecondLocator</text>
</a>
</g>
</g>
<!-- DateLocator&#45;&gt;MicrosecondLocator -->
<g id="edge13" class="edge">
<title>DateLocator&#45;&gt;MicrosecondLocator</title>
<path fill="none" stroke="#000000" stroke-width=".5" d="M535.5418,-95.3345C557.2019,-93.1831 582.4785,-90.6726 606.625,-88.2743"/>
<polygon fill="#000000" stroke="#000000" stroke-width=".5" points="606.9562,-90.0001 611.7587,-87.7644 606.6102,-86.5172 606.9562,-90.0001"/>
</g>
<!-- YearLocator -->
<g id="node21" class="node">
<title>YearLocator</title>
<g id="a_node21"><a xlink:href="../api/dates_api.html#matplotlib.dates.YearLocator" xlink:title="Make ticks on a given day of each year that is a multiple of base." target="_top">
<polygon fill="#ffffff" stroke="#000000" stroke-width=".5" points="755,-48 645,-48 645,-22 755,-22 755,-48"/>
<text text-anchor="middle" x="700" y="-31.2" font-family="Vera Sans, DejaVu Sans, Liberation Sans, Arial, Helvetica, sans" font-size="16.00" fill="#000000">YearLocator</text>
</a>
</g>
</g>
<!-- DateLocator&#45;&gt;YearLocator -->
<g id="edge19" class="edge">
<title>DateLocator&#45;&gt;YearLocator</title>
<path fill="none" stroke="#000000" stroke-width=".5" d="M515.6757,-87.9343C542.3321,-78.7656 579.1815,-66.4967 612,-57 621.0173,-54.3906 630.6065,-51.8037 640.0124,-49.3701"/>
<polygon fill="#000000" stroke="#000000" stroke-width=".5" points="640.5029,-51.051 644.9104,-48.1122 639.6322,-47.661 640.5029,-51.051"/>
</g>
<!-- ConciseDateConverter -->
<g id="node5" class="node">
<title>ConciseDateConverter</title>
<g id="a_node5"><a xlink:href="../api/dates_api.html#matplotlib.dates.ConciseDateConverter" xlink:title="ConciseDateConverter" target="_top">
<polygon fill="#ffffff" stroke="#000000" stroke-width=".5" points="576,-334 381,-334 381,-308 576,-308 576,-334"/>
<text text-anchor="middle" x="478.5" y="-317.2" font-family="Vera Sans, DejaVu Sans, Liberation Sans, Arial, Helvetica, sans" font-size="16.00" fill="#000000">ConciseDateConverter</text>
</a>
</g>
</g>
<!-- DateConverter -->
<g id="node6" class="node">
<title>DateConverter</title>
<g id="a_node6"><a xlink:href="../api/dates_api.html#matplotlib.dates.DateConverter" xlink:title="Converter for `datetime.date` and `datetime.datetime` data, or for" target="_top">
<polygon fill="#ffffff" stroke="#000000" stroke-width=".5" points="345,-334 212,-334 212,-308 345,-308 345,-334"/>
<text text-anchor="middle" x="278.5" y="-317.2" font-family="Vera Sans, DejaVu Sans, Liberation Sans, Arial, Helvetica, sans" font-size="16.00" fill="#000000">DateConverter</text>
</a>
</g>
</g>
<!-- DateConverter&#45;&gt;ConciseDateConverter -->
<g id="edge3" class="edge">
<title>DateConverter&#45;&gt;ConciseDateConverter</title>
<path fill="none" stroke="#000000" stroke-width=".5" d="M345.0971,-321C354.9601,-321 365.3129,-321 375.7059,-321"/>
<polygon fill="#000000" stroke="#000000" stroke-width=".5" points="375.8093,-322.7501 380.8092,-321 375.8092,-319.2501 375.8093,-322.7501"/>
</g>
<!-- ConversionInterface -->
<g id="node8" class="node">
<title>ConversionInterface</title>
<g id="a_node8"><a xlink:href="../units_api.html#matplotlib.units.ConversionInterface" xlink:title="The minimal interface for a converter to take custom data types (or" target="_top">
<polygon fill="#ffffff" stroke="#000000" stroke-width=".5" points="176,-334 0,-334 0,-308 176,-308 176,-334"/>
<text text-anchor="middle" x="88" y="-317.2" font-family="Vera Sans, DejaVu Sans, Liberation Sans, Arial, Helvetica, sans" font-size="16.00" fill="#000000">ConversionInterface</text>
</a>
</g>
</g>
<!-- ConversionInterface&#45;&gt;DateConverter -->
<g id="edge5" class="edge">
<title>ConversionInterface&#45;&gt;DateConverter</title>
<path fill="none" stroke="#000000" stroke-width=".5" d="M176.0009,-321C186.2951,-321 196.7029,-321 206.7396,-321"/>
<polygon fill="#000000" stroke="#000000" stroke-width=".5" points="206.9518,-322.7501 211.9518,-321 206.9517,-319.2501 206.9518,-322.7501"/>
</g>
<!-- Locator -->
<g id="node10" class="node">
<title>Locator</title>
<g id="a_node10"><a xlink:href="../ticker_api.html#matplotlib.ticker.Locator" xlink:title="Determine the tick locations;" target="_top">
<polygon fill="#ffffff" stroke="#000000" stroke-width=".5" points="317,-136 240,-136 240,-110 317,-110 317,-136"/>
<text text-anchor="middle" x="278.5" y="-119.2" font-family="Vera Sans, DejaVu Sans, Liberation Sans, Arial, Helvetica, sans" font-size="16.00" fill="#000000">Locator</text>
</a>
</g>
</g>
<!-- Locator&#45;&gt;DateLocator -->
<g id="edge7" class="edge">
<title>Locator&#45;&gt;DateLocator</title>
<path fill="none" stroke="#000000" stroke-width=".5" d="M317.062,-118.7582C345.0762,-115.6766 383.5931,-111.4398 415.9786,-107.8774"/>
<polygon fill="#000000" stroke="#000000" stroke-width=".5" points="416.3424,-109.598 421.1211,-107.3117 415.9597,-106.119 416.3424,-109.598"/>
</g>
<!-- DayLocator -->
<g id="node11" class="node">
<title>DayLocator</title>
<g id="a_node11"><a xlink:href="../api/dates_api.html#matplotlib.dates.DayLocator" xlink:title="Make ticks on occurrences of each day of the month. &#160;For example," target="_top">
<polygon fill="#ffffff" stroke="#000000" stroke-width=".5" points="952,-246 845,-246 845,-220 952,-220 952,-246"/>
<text text-anchor="middle" x="898.5" y="-229.2" font-family="Vera Sans, DejaVu Sans, Liberation Sans, Arial, Helvetica, sans" font-size="16.00" fill="#000000">DayLocator</text>
</a>
</g>
</g>
<!-- RRuleLocator&#45;&gt;DayLocator -->
<g id="edge8" class="edge">
<title>RRuleLocator&#45;&gt;DayLocator</title>
<path fill="none" stroke="#000000" stroke-width=".5" d="M761.252,-131.3105C770.8364,-134.5169 780.1515,-138.9311 788,-145 814.4327,-165.439 798.004,-190.0083 824,-211 828.7544,-214.8392 834.1598,-218.0085 839.8367,-220.6248"/>
<polygon fill="#000000" stroke="#000000" stroke-width=".5" points="839.376,-222.3314 844.6609,-222.6951 840.7563,-219.1151 839.376,-222.3314"/>
</g>
<!-- HourLocator -->
<g id="node14" class="node">
<title>HourLocator</title>
<g id="a_node14"><a xlink:href="../api/dates_api.html#matplotlib.dates.HourLocator" xlink:title="Make ticks on occurrences of each hour." target="_top">
<polygon fill="#ffffff" stroke="#000000" stroke-width=".5" points="956,-202 841,-202 841,-176 956,-176 956,-202"/>
<text text-anchor="middle" x="898.5" y="-185.2" font-family="Vera Sans, DejaVu Sans, Liberation Sans, Arial, Helvetica, sans" font-size="16.00" fill="#000000">HourLocator</text>
</a>
</g>
</g>
<!-- RRuleLocator&#45;&gt;HourLocator -->
<g id="edge10" class="edge">
<title>RRuleLocator&#45;&gt;HourLocator</title>
<path fill="none" stroke="#000000" stroke-width=".5" d="M761.3772,-135.7895C770.4516,-138.4108 779.5757,-141.4704 788,-145 805.2945,-152.2461 806.8621,-159.3909 824,-167 829.9915,-169.6602 836.3938,-172.1033 842.8348,-174.316"/>
<polygon fill="#000000" stroke="#000000" stroke-width=".5" points="842.4647,-176.0374 847.7616,-175.9628 843.5743,-172.7179 842.4647,-176.0374"/>
</g>
<!-- MinuteLocator -->
<g id="node17" class="node">
<title>MinuteLocator</title>
<g id="a_node17"><a xlink:href="../api/dates_api.html#matplotlib.dates.MinuteLocator" xlink:title="Make ticks on occurrences of each minute." target="_top">
<polygon fill="#ffffff" stroke="#000000" stroke-width=".5" points="963.5,-158 833.5,-158 833.5,-132 963.5,-132 963.5,-158"/>
<text text-anchor="middle" x="898.5" y="-141.2" font-family="Vera Sans, DejaVu Sans, Liberation Sans, Arial, Helvetica, sans" font-size="16.00" fill="#000000">MinuteLocator</text>
</a>
</g>
</g>
<!-- RRuleLocator&#45;&gt;MinuteLocator -->
<g id="edge14" class="edge">
<title>RRuleLocator&#45;&gt;MinuteLocator</title>
<path fill="none" stroke="#000000" stroke-width=".5" d="M761.1762,-129.7802C782.3736,-132.1296 806.302,-134.7816 828.1764,-137.2059"/>
<polygon fill="#000000" stroke="#000000" stroke-width=".5" points="828.2329,-138.9728 833.3952,-137.7844 828.6185,-135.4941 828.2329,-138.9728"/>
</g>
<!-- MonthLocator -->
<g id="node18" class="node">
<title>MonthLocator</title>
<g id="a_node18"><a xlink:href="../api/dates_api.html#matplotlib.dates.MonthLocator" xlink:title="Make ticks on occurrences of each month, e.g., 1, 3, 12." target="_top">
<polygon fill="#ffffff" stroke="#000000" stroke-width=".5" points="961,-114 836,-114 836,-88 961,-88 961,-114"/>
<text text-anchor="middle" x="898.5" y="-97.2" font-family="Vera Sans, DejaVu Sans, Liberation Sans, Arial, Helvetica, sans" font-size="16.00" fill="#000000">MonthLocator</text>
</a>
</g>
</g>
<!-- RRuleLocator&#45;&gt;MonthLocator -->
<g id="edge15" class="edge">
<title>RRuleLocator&#45;&gt;MonthLocator</title>
<path fill="none" stroke="#000000" stroke-width=".5" d="M761.1762,-116.2198C783.2044,-113.7784 808.1818,-111.0101 830.7385,-108.5101"/>
<polygon fill="#000000" stroke="#000000" stroke-width=".5" points="831.0358,-110.2379 835.8126,-107.9477 830.6502,-106.7592 831.0358,-110.2379"/>
</g>
<!-- SecondLocator -->
<g id="node19" class="node">
<title>SecondLocator</title>
<g id="a_node19"><a xlink:href="../api/dates_api.html#matplotlib.dates.SecondLocator" xlink:title="Make ticks on occurrences of each second." target="_top">
<polygon fill="#ffffff" stroke="#000000" stroke-width=".5" points="965.5,-70 831.5,-70 831.5,-44 965.5,-44 965.5,-70"/>
<text text-anchor="middle" x="898.5" y="-53.2" font-family="Vera Sans, DejaVu Sans, Liberation Sans, Arial, Helvetica, sans" font-size="16.00" fill="#000000">SecondLocator</text>
</a>
</g>
</g>
<!-- RRuleLocator&#45;&gt;SecondLocator -->
<g id="edge17" class="edge">
<title>RRuleLocator&#45;&gt;SecondLocator</title>
<path fill="none" stroke="#000000" stroke-width=".5" d="M761.3772,-110.2105C770.4516,-107.5892 779.5757,-104.5296 788,-101 805.2945,-93.7539 806.8621,-86.6091 824,-79 829.9915,-76.3398 836.3938,-73.8967 842.8348,-71.684"/>
<polygon fill="#000000" stroke="#000000" stroke-width=".5" points="843.5743,-73.2821 847.7616,-70.0372 842.4647,-69.9626 843.5743,-73.2821"/>
</g>
<!-- WeekdayLocator -->
<g id="node20" class="node">
<title>WeekdayLocator</title>
<g id="a_node20"><a xlink:href="../api/dates_api.html#matplotlib.dates.WeekdayLocator" xlink:title="Make ticks on occurrences of each weekday." target="_top">
<polygon fill="#ffffff" stroke="#000000" stroke-width=".5" points="973,-26 824,-26 824,0 973,0 973,-26"/>
<text text-anchor="middle" x="898.5" y="-9.2" font-family="Vera Sans, DejaVu Sans, Liberation Sans, Arial, Helvetica, sans" font-size="16.00" fill="#000000">WeekdayLocator</text>
</a>
</g>
</g>
<!-- RRuleLocator&#45;&gt;WeekdayLocator -->
<g id="edge18" class="edge">
<title>RRuleLocator&#45;&gt;WeekdayLocator</title>
<path fill="none" stroke="#000000" stroke-width=".5" d="M761.252,-114.6895C770.8364,-111.4831 780.1515,-107.0689 788,-101 814.4327,-80.561 798.004,-55.9917 824,-35 826.9576,-32.6118 830.167,-30.4828 833.5371,-28.5848"/>
<polygon fill="#000000" stroke="#000000" stroke-width=".5" points="834.6017,-30.0032 838.2236,-26.1373 832.9814,-26.9008 834.6017,-30.0032"/>
</g>
<!-- TickHelper -->
<g id="node13" class="node">
<title>TickHelper</title>
<g id="a_node13"><a xlink:href="../ticker_api.html#matplotlib.ticker.TickHelper" xlink:title="TickHelper" target="_top">
<polygon fill="#ffffff" stroke="#000000" stroke-width=".5" points="138.5,-180 37.5,-180 37.5,-154 138.5,-154 138.5,-180"/>
<text text-anchor="middle" x="88" y="-163.2" font-family="Vera Sans, DejaVu Sans, Liberation Sans, Arial, Helvetica, sans" font-size="16.00" fill="#000000">TickHelper</text>
</a>
</g>
</g>
<!-- TickHelper&#45;&gt;Formatter -->
<g id="edge9" class="edge">
<title>TickHelper&#45;&gt;Formatter</title>
<path fill="none" stroke="#000000" stroke-width=".5" d="M138.5504,-172.8378C165.5303,-175.9536 198.6983,-179.7841 225.9719,-182.9338"/>
<polygon fill="#000000" stroke="#000000" stroke-width=".5" points="225.8252,-184.6784 230.993,-183.5136 226.2268,-181.2015 225.8252,-184.6784"/>
</g>
<!-- TickHelper&#45;&gt;Locator -->
<g id="edge12" class="edge">
<title>TickHelper&#45;&gt;Locator</title>
<path fill="none" stroke="#000000" stroke-width=".5" d="M138.5504,-155.3243C168.5598,-148.393 206.2251,-139.6934 234.9193,-133.0659"/>
<polygon fill="#000000" stroke="#000000" stroke-width=".5" points="235.3281,-134.7676 239.806,-131.9372 234.5404,-131.3574 235.3281,-134.7676"/>
</g>
<!-- rrulewrapper -->
<g id="node22" class="node">
<title>rrulewrapper</title>
<polygon fill="#ffffff" stroke="#000000" stroke-width=".5" points="147.5,-378 28.5,-378 28.5,-352 147.5,-352 147.5,-378"/>
<text text-anchor="middle" x="88" y="-361.2" font-family="Vera Sans, DejaVu Sans, Liberation Sans, Arial, Helvetica, sans" font-size="16.00" fill="#000000">rrulewrapper</text>
</g>
</g>
</svg>
