<?xml version="1.0" encoding="UTF-8" standalone="no"?>
<!DOCTYPE svg PUBLIC "-//W3C//DTD SVG 1.1//EN"
 "http://www.w3.org/Graphics/SVG/1.1/DTD/svg11.dtd">
<!-- Generated by graphviz version 2.40.1 (20161225.0304)
 -->
<!-- Title: inheritance03ab0131b5 Pages: 1 -->
<svg width="576pt" height="320pt"
 viewBox="0.00 0.00 576.00 320.29" xmlns="http://www.w3.org/2000/svg" xmlns:xlink="http://www.w3.org/1999/xlink">
<g id="graph0" class="graph" transform="scale(.6457 .6457) rotate(0) translate(4 492)">
<title>inheritance03ab0131b5</title>
<!-- artist.Artist -->
<g id="node1" class="node">
<title>artist.Artist</title>
<g id="a_node1"><a xlink:href="../../api/artist_api.html#matplotlib.artist.Artist" xlink:title="Abstract base class for objects that render into a FigureCanvas." target="_top">
<polygon fill="#ffffff" stroke="#000000" stroke-width=".5" points="158.5,-246 53.5,-246 53.5,-220 158.5,-220 158.5,-246"/>
<text text-anchor="middle" x="106" y="-229.2" font-family="Vera Sans, DejaVu Sans, Liberation Sans, Arial, Helvetica, sans" font-size="16.00" fill="#000000">artist.Artist</text>
</a>
</g>
</g>
<!-- lines.Line2D -->
<g id="node2" class="node">
<title>lines.Line2D</title>
<g id="a_node2"><a xlink:href="../../api/_as_gen/matplotlib.lines.Line2D.html#matplotlib.lines.Line2D" xlink:title="A line &#45; the line can have both a solid linestyle connecting all" target="_top">
<polygon fill="#ffffff" stroke="#000000" stroke-width=".5" points="368.5,-290 255.5,-290 255.5,-264 368.5,-264 368.5,-290"/>
<text text-anchor="middle" x="312" y="-273.2" font-family="Vera Sans, DejaVu Sans, Liberation Sans, Arial, Helvetica, sans" font-size="16.00" fill="#000000">lines.Line2D</text>
</a>
</g>
</g>
<!-- artist.Artist&#45;&gt;lines.Line2D -->
<g id="edge1" class="edge">
<title>artist.Artist&#45;&gt;lines.Line2D</title>
<path fill="none" stroke="#000000" stroke-width=".5" d="M158.5941,-243.7868C175.6414,-247.3176 194.6312,-251.2871 212,-255 224.4306,-257.6572 237.7192,-260.5465 250.4165,-263.3309"/>
<polygon fill="#000000" stroke="#000000" stroke-width=".5" points="250.1793,-265.0704 255.4383,-264.4334 250.9299,-261.6518 250.1793,-265.0704"/>
</g>
<!-- patches.Patch -->
<g id="node7" class="node">
<title>patches.Patch</title>
<g id="a_node7"><a xlink:href="../../api/_as_gen/matplotlib.patches.Patch.html#matplotlib.patches.Patch" xlink:title="A patch is a 2D artist with a face color and an edge color." target="_top">
<polygon fill="#ffffff" stroke="#000000" stroke-width=".5" points="376,-246 248,-246 248,-220 376,-220 376,-246"/>
<text text-anchor="middle" x="312" y="-229.2" font-family="Vera Sans, DejaVu Sans, Liberation Sans, Arial, Helvetica, sans" font-size="16.00" fill="#000000">patches.Patch</text>
</a>
</g>
</g>
<!-- artist.Artist&#45;&gt;patches.Patch -->
<g id="edge11" class="edge">
<title>artist.Artist&#45;&gt;patches.Patch</title>
<path fill="none" stroke="#000000" stroke-width=".5" d="M158.5155,-233C184.1016,-233 215.2095,-233 242.7128,-233"/>
<polygon fill="#000000" stroke="#000000" stroke-width=".5" points="242.8043,-234.7501 247.8042,-233 242.8042,-231.2501 242.8043,-234.7501"/>
</g>
<!-- text.Text -->
<g id="node24" class="node">
<title>text.Text</title>
<g id="a_node24"><a xlink:href="../../api/text_api.html#matplotlib.text.Text" xlink:title="Handle storing and drawing of text in window or data coordinates." target="_top">
<polygon fill="#ffffff" stroke="#000000" stroke-width=".5" points="354,-114 270,-114 270,-88 354,-88 354,-114"/>
<text text-anchor="middle" x="312" y="-97.2" font-family="Vera Sans, DejaVu Sans, Liberation Sans, Arial, Helvetica, sans" font-size="16.00" fill="#000000">text.Text</text>
</a>
</g>
</g>
<!-- artist.Artist&#45;&gt;text.Text -->
<g id="edge19" class="edge">
<title>artist.Artist&#45;&gt;text.Text</title>
<path fill="none" stroke="#000000" stroke-width=".5" d="M126.5052,-219.8608C164.603,-195.4485 246.1563,-143.1911 287.2508,-116.8587"/>
<polygon fill="#000000" stroke="#000000" stroke-width=".5" points="288.312,-118.2572 291.5777,-114.0861 286.4237,-115.3103 288.312,-118.2572"/>
</g>
<!-- lines.VertexSelector -->
<g id="node3" class="node">
<title>lines.VertexSelector</title>
<g id="a_node3"><a xlink:href="../../api/_as_gen/matplotlib.lines.VertexSelector.html#matplotlib.lines.VertexSelector" xlink:title="Manage the callbacks to maintain a list of selected vertices for" target="_top">
<polygon fill="#ffffff" stroke="#000000" stroke-width=".5" points="193,-290 19,-290 19,-264 193,-264 193,-290"/>
<text text-anchor="middle" x="106" y="-273.2" font-family="Vera Sans, DejaVu Sans, Liberation Sans, Arial, Helvetica, sans" font-size="16.00" fill="#000000">lines.VertexSelector</text>
</a>
</g>
</g>
<!-- patches.Arc -->
<g id="node4" class="node">
<title>patches.Arc</title>
<g id="a_node4"><a xlink:href="../../api/_as_gen/matplotlib.patches.Arc.html#matplotlib.patches.Arc" xlink:title="An elliptical arc, i.e. a segment of an ellipse." target="_top">
<polygon fill="#ffffff" stroke="#000000" stroke-width=".5" points="830.5,-488 720.5,-488 720.5,-462 830.5,-462 830.5,-488"/>
<text text-anchor="middle" x="775.5" y="-471.2" font-family="Vera Sans, DejaVu Sans, Liberation Sans, Arial, Helvetica, sans" font-size="16.00" fill="#000000">patches.Arc</text>
</a>
</g>
</g>
<!-- patches.Ellipse -->
<g id="node5" class="node">
<title>patches.Ellipse</title>
<g id="a_node5"><a xlink:href="../../api/_as_gen/matplotlib.patches.Ellipse.html#matplotlib.patches.Ellipse" xlink:title="A scale&#45;free ellipse." target="_top">
<polygon fill="#ffffff" stroke="#000000" stroke-width=".5" points="589,-466 454,-466 454,-440 589,-440 589,-466"/>
<text text-anchor="middle" x="521.5" y="-449.2" font-family="Vera Sans, DejaVu Sans, Liberation Sans, Arial, Helvetica, sans" font-size="16.00" fill="#000000">patches.Ellipse</text>
</a>
</g>
</g>
<!-- patches.Ellipse&#45;&gt;patches.Arc -->
<g id="edge2" class="edge">
<title>patches.Ellipse&#45;&gt;patches.Arc</title>
<path fill="none" stroke="#000000" stroke-width=".5" d="M589.2337,-458.8667C628.4739,-462.2655 677.4448,-466.507 715.325,-469.788"/>
<polygon fill="#000000" stroke="#000000" stroke-width=".5" points="715.2259,-471.5359 720.3583,-470.2239 715.528,-468.0489 715.2259,-471.5359"/>
</g>
<!-- patches.Circle -->
<g id="node10" class="node">
<title>patches.Circle</title>
<g id="a_node10"><a xlink:href="../../api/_as_gen/matplotlib.patches.Circle.html#matplotlib.patches.Circle" xlink:title="A circle patch." target="_top">
<polygon fill="#ffffff" stroke="#000000" stroke-width=".5" points="840.5,-444 710.5,-444 710.5,-418 840.5,-418 840.5,-444"/>
<text text-anchor="middle" x="775.5" y="-427.2" font-family="Vera Sans, DejaVu Sans, Liberation Sans, Arial, Helvetica, sans" font-size="16.00" fill="#000000">patches.Circle</text>
</a>
</g>
</g>
<!-- patches.Ellipse&#45;&gt;patches.Circle -->
<g id="edge4" class="edge">
<title>patches.Ellipse&#45;&gt;patches.Circle</title>
<path fill="none" stroke="#000000" stroke-width=".5" d="M589.2337,-447.1333C624.952,-444.0396 668.7327,-440.2476 704.8725,-437.1173"/>
<polygon fill="#000000" stroke="#000000" stroke-width=".5" points="705.317,-438.8355 710.1473,-436.6605 705.015,-435.3485 705.317,-438.8355"/>
</g>
<!-- patches.Arrow -->
<g id="node6" class="node">
<title>patches.Arrow</title>
<g id="a_node6"><a xlink:href="../../api/_as_gen/matplotlib.patches.Arrow.html#matplotlib.patches.Arrow" xlink:title="An arrow patch." target="_top">
<polygon fill="#ffffff" stroke="#000000" stroke-width=".5" points="587,-422 456,-422 456,-396 587,-396 587,-422"/>
<text text-anchor="middle" x="521.5" y="-405.2" font-family="Vera Sans, DejaVu Sans, Liberation Sans, Arial, Helvetica, sans" font-size="16.00" fill="#000000">patches.Arrow</text>
</a>
</g>
</g>
<!-- patches.Patch&#45;&gt;patches.Ellipse -->
<g id="edge7" class="edge">
<title>patches.Patch&#45;&gt;patches.Ellipse</title>
<path fill="none" stroke="#000000" stroke-width=".5" d="M365.1768,-246.0152C369.2037,-248.5043 372.8985,-251.469 376,-255 428.6904,-314.987 355.4449,-374.6419 412,-431 421.9696,-440.9349 435.0889,-447.0046 448.7701,-450.6023"/>
<polygon fill="#000000" stroke="#000000" stroke-width=".5" points="448.5607,-452.3517 453.8313,-451.8185 449.3786,-448.9486 448.5607,-452.3517"/>
</g>
<!-- patches.Patch&#45;&gt;patches.Arrow -->
<g id="edge3" class="edge">
<title>patches.Patch&#45;&gt;patches.Arrow</title>
<path fill="none" stroke="#000000" stroke-width=".5" d="M364.6307,-246.0503C368.8254,-248.5318 372.7059,-251.4851 376,-255 417.5822,-299.37 367.5649,-345.4873 412,-387 422.6002,-396.9031 436.3564,-402.8969 450.5187,-406.4206"/>
<polygon fill="#000000" stroke="#000000" stroke-width=".5" points="450.4862,-408.2078 455.7497,-407.6097 451.262,-404.7948 450.4862,-408.2078"/>
</g>
<!-- patches.RegularPolygon -->
<g id="node12" class="node">
<title>patches.RegularPolygon</title>
<g id="a_node12"><a xlink:href="../../api/_as_gen/matplotlib.patches.RegularPolygon.html#matplotlib.patches.RegularPolygon" xlink:title="A regular polygon patch." target="_top">
<polygon fill="#ffffff" stroke="#000000" stroke-width=".5" points="624.5,-378 418.5,-378 418.5,-352 624.5,-352 624.5,-378"/>
<text text-anchor="middle" x="521.5" y="-361.2" font-family="Vera Sans, DejaVu Sans, Liberation Sans, Arial, Helvetica, sans" font-size="16.00" fill="#000000">patches.RegularPolygon</text>
</a>
</g>
</g>
<!-- patches.Patch&#45;&gt;patches.RegularPolygon -->
<g id="edge15" class="edge">
<title>patches.Patch&#45;&gt;patches.RegularPolygon</title>
<path fill="none" stroke="#000000" stroke-width=".5" d="M363.5611,-246.1424C368.082,-248.6071 372.3268,-251.5312 376,-255 406.723,-284.0134 379.4193,-316.0894 412,-343 414.8779,-345.377 417.9421,-347.521 421.1484,-349.4535"/>
<polygon fill="#000000" stroke="#000000" stroke-width=".5" points="420.3885,-351.0339 425.6045,-351.9596 422.1043,-347.9832 420.3885,-351.0339"/>
</g>
<!-- patches.FancyArrowPatch -->
<g id="node14" class="node">
<title>patches.FancyArrowPatch</title>
<g id="a_node14"><a xlink:href="../../api/_as_gen/matplotlib.patches.FancyArrowPatch.html#matplotlib.patches.FancyArrowPatch" xlink:title="A fancy arrow patch. It draws an arrow using the `ArrowStyle`." target="_top">
<polygon fill="#ffffff" stroke="#000000" stroke-width=".5" points="631,-334 412,-334 412,-308 631,-308 631,-334"/>
<text text-anchor="middle" x="521.5" y="-317.2" font-family="Vera Sans, DejaVu Sans, Liberation Sans, Arial, Helvetica, sans" font-size="16.00" fill="#000000">patches.FancyArrowPatch</text>
</a>
</g>
</g>
<!-- patches.Patch&#45;&gt;patches.FancyArrowPatch -->
<g id="edge9" class="edge">
<title>patches.Patch&#45;&gt;patches.FancyArrowPatch</title>
<path fill="none" stroke="#000000" stroke-width=".5" d="M359.9309,-246.143C365.5835,-248.6443 371.082,-251.5767 376,-255 396.7378,-269.4349 390.35,-285.9732 412,-299 416.3613,-301.6242 420.9795,-303.9416 425.7561,-305.9874"/>
<polygon fill="#000000" stroke="#000000" stroke-width=".5" points="425.2906,-307.687 430.5818,-307.9441 426.6058,-304.4435 425.2906,-307.687"/>
</g>
<!-- patches.Polygon -->
<g id="node17" class="node">
<title>patches.Polygon</title>
<g id="a_node17"><a xlink:href="../../api/_as_gen/matplotlib.patches.Polygon.html#matplotlib.patches.Polygon" xlink:title="A general polygon patch." target="_top">
<polygon fill="#ffffff" stroke="#000000" stroke-width=".5" points="594.5,-290 448.5,-290 448.5,-264 594.5,-264 594.5,-290"/>
<text text-anchor="middle" x="521.5" y="-273.2" font-family="Vera Sans, DejaVu Sans, Liberation Sans, Arial, Helvetica, sans" font-size="16.00" fill="#000000">patches.Polygon</text>
</a>
</g>
</g>
<!-- patches.Patch&#45;&gt;patches.Polygon -->
<g id="edge13" class="edge">
<title>patches.Patch&#45;&gt;patches.Polygon</title>
<path fill="none" stroke="#000000" stroke-width=".5" d="M370.3915,-246.0341C384.035,-249.0275 398.5187,-252.163 412,-255 424.4796,-257.6262 437.7743,-260.3551 450.6416,-262.9605"/>
<polygon fill="#000000" stroke="#000000" stroke-width=".5" points="450.4926,-264.7157 455.7402,-263.991 451.186,-261.2851 450.4926,-264.7157"/>
</g>
<!-- patches.FancyBboxPatch -->
<g id="node18" class="node">
<title>patches.FancyBboxPatch</title>
<g id="a_node18"><a xlink:href="../../api/_as_gen/matplotlib.patches.FancyBboxPatch.html#matplotlib.patches.FancyBboxPatch" xlink:title="A fancy box around a rectangle with lower left at *xy* = (*x*, *y*)" target="_top">
<polygon fill="#ffffff" stroke="#000000" stroke-width=".5" points="627,-246 416,-246 416,-220 627,-220 627,-246"/>
<text text-anchor="middle" x="521.5" y="-229.2" font-family="Vera Sans, DejaVu Sans, Liberation Sans, Arial, Helvetica, sans" font-size="16.00" fill="#000000">patches.FancyBboxPatch</text>
</a>
</g>
</g>
<!-- patches.Patch&#45;&gt;patches.FancyBboxPatch -->
<g id="edge10" class="edge">
<title>patches.Patch&#45;&gt;patches.FancyBboxPatch</title>
<path fill="none" stroke="#000000" stroke-width=".5" d="M376.2807,-233C387.2262,-233 398.8683,-233 410.6136,-233"/>
<polygon fill="#000000" stroke="#000000" stroke-width=".5" points="410.652,-234.7501 415.6519,-233 410.6519,-231.2501 410.652,-234.7501"/>
</g>
<!-- patches.PathPatch -->
<g id="node19" class="node">
<title>patches.PathPatch</title>
<g id="a_node19"><a xlink:href="../../api/_as_gen/matplotlib.patches.PathPatch.html#matplotlib.patches.PathPatch" xlink:title="A general polycurve path patch." target="_top">
<polygon fill="#ffffff" stroke="#000000" stroke-width=".5" points="602.5,-202 440.5,-202 440.5,-176 602.5,-176 602.5,-202"/>
<text text-anchor="middle" x="521.5" y="-185.2" font-family="Vera Sans, DejaVu Sans, Liberation Sans, Arial, Helvetica, sans" font-size="16.00" fill="#000000">patches.PathPatch</text>
</a>
</g>
</g>
<!-- patches.Patch&#45;&gt;patches.PathPatch -->
<g id="edge12" class="edge">
<title>patches.Patch&#45;&gt;patches.PathPatch</title>
<path fill="none" stroke="#000000" stroke-width=".5" d="M370.3915,-219.9659C384.035,-216.9725 398.5187,-213.837 412,-211 424.4796,-208.3738 437.7743,-205.6449 450.6416,-203.0395"/>
<polygon fill="#000000" stroke="#000000" stroke-width=".5" points="451.186,-204.7149 455.7402,-202.009 450.4926,-201.2843 451.186,-204.7149"/>
</g>
<!-- patches.Rectangle -->
<g id="node20" class="node">
<title>patches.Rectangle</title>
<g id="a_node20"><a xlink:href="../../api/_as_gen/matplotlib.patches.Rectangle.html#matplotlib.patches.Rectangle" xlink:title="A rectangle defined via an anchor point *xy* and its *width* and *height*." target="_top">
<polygon fill="#ffffff" stroke="#000000" stroke-width=".5" points="603,-158 440,-158 440,-132 603,-132 603,-158"/>
<text text-anchor="middle" x="521.5" y="-141.2" font-family="Vera Sans, DejaVu Sans, Liberation Sans, Arial, Helvetica, sans" font-size="16.00" fill="#000000">patches.Rectangle</text>
</a>
</g>
</g>
<!-- patches.Patch&#45;&gt;patches.Rectangle -->
<g id="edge14" class="edge">
<title>patches.Patch&#45;&gt;patches.Rectangle</title>
<path fill="none" stroke="#000000" stroke-width=".5" d="M327.5362,-219.9533C346.327,-204.8657 379.4963,-180.3921 412,-167 419.2749,-164.0026 426.9948,-161.4027 434.8357,-159.1495"/>
<polygon fill="#000000" stroke="#000000" stroke-width=".5" points="435.3806,-160.8145 439.7305,-157.791 434.4446,-157.442 435.3806,-160.8145"/>
</g>
<!-- patches.Shadow -->
<g id="node21" class="node">
<title>patches.Shadow</title>
<g id="a_node21"><a xlink:href="../../api/_as_gen/matplotlib.patches.Shadow.html#matplotlib.patches.Shadow" xlink:title="patches.Shadow" target="_top">
<polygon fill="#ffffff" stroke="#000000" stroke-width=".5" points="594.5,-114 448.5,-114 448.5,-88 594.5,-88 594.5,-114"/>
<text text-anchor="middle" x="521.5" y="-97.2" font-family="Vera Sans, DejaVu Sans, Liberation Sans, Arial, Helvetica, sans" font-size="16.00" fill="#000000">patches.Shadow</text>
</a>
</g>
</g>
<!-- patches.Patch&#45;&gt;patches.Shadow -->
<g id="edge16" class="edge">
<title>patches.Patch&#45;&gt;patches.Shadow</title>
<path fill="none" stroke="#000000" stroke-width=".5" d="M320.0061,-219.6572C334.9183,-196.0601 369.3383,-147.1794 412,-123 421.655,-117.5278 432.4661,-113.4028 443.4338,-110.2962"/>
<polygon fill="#000000" stroke="#000000" stroke-width=".5" points="444.1063,-111.9276 448.4804,-108.9393 443.1975,-108.5476 444.1063,-111.9276"/>
</g>
<!-- patches.Wedge -->
<g id="node22" class="node">
<title>patches.Wedge</title>
<g id="a_node22"><a xlink:href="../../api/_as_gen/matplotlib.patches.Wedge.html#matplotlib.patches.Wedge" xlink:title="Wedge shaped patch." target="_top">
<polygon fill="#ffffff" stroke="#000000" stroke-width=".5" points="590.5,-70 452.5,-70 452.5,-44 590.5,-44 590.5,-70"/>
<text text-anchor="middle" x="521.5" y="-53.2" font-family="Vera Sans, DejaVu Sans, Liberation Sans, Arial, Helvetica, sans" font-size="16.00" fill="#000000">patches.Wedge</text>
</a>
</g>
</g>
<!-- patches.Patch&#45;&gt;patches.Wedge -->
<g id="edge17" class="edge">
<title>patches.Patch&#45;&gt;patches.Wedge</title>
<path fill="none" stroke="#000000" stroke-width=".5" d="M319.7822,-219.7703C340.8419,-184.1564 398.2867,-88.313 412,-79 422.55,-71.8352 434.9066,-66.8998 447.4452,-63.5212"/>
<polygon fill="#000000" stroke="#000000" stroke-width=".5" points="448.0262,-65.1794 452.4442,-62.2564 447.1677,-61.7863 448.0262,-65.1794"/>
</g>
<!-- patches.ArrowStyle -->
<g id="node8" class="node">
<title>patches.ArrowStyle</title>
<g id="a_node8"><a xlink:href="../../api/_as_gen/matplotlib.patches.ArrowStyle.html#matplotlib.patches.ArrowStyle" xlink:title="`ArrowStyle` is a container class which defines several" target="_top">
<polygon fill="#ffffff" stroke="#000000" stroke-width=".5" points="191,-334 21,-334 21,-308 191,-308 191,-334"/>
<text text-anchor="middle" x="106" y="-317.2" font-family="Vera Sans, DejaVu Sans, Liberation Sans, Arial, Helvetica, sans" font-size="16.00" fill="#000000">patches.ArrowStyle</text>
</a>
</g>
</g>
<!-- patches.BoxStyle -->
<g id="node9" class="node">
<title>patches.BoxStyle</title>
<g id="a_node9"><a xlink:href="../../api/_as_gen/matplotlib.patches.BoxStyle.html#matplotlib.patches.BoxStyle" xlink:title="`BoxStyle` is a container class which defines several" target="_top">
<polygon fill="#ffffff" stroke="#000000" stroke-width=".5" points="182,-378 30,-378 30,-352 182,-352 182,-378"/>
<text text-anchor="middle" x="106" y="-361.2" font-family="Vera Sans, DejaVu Sans, Liberation Sans, Arial, Helvetica, sans" font-size="16.00" fill="#000000">patches.BoxStyle</text>
</a>
</g>
</g>
<!-- patches.CirclePolygon -->
<g id="node11" class="node">
<title>patches.CirclePolygon</title>
<g id="a_node11"><a xlink:href="../../api/_as_gen/matplotlib.patches.CirclePolygon.html#matplotlib.patches.CirclePolygon" xlink:title="A polygon&#45;approximation of a circle patch." target="_top">
<polygon fill="#ffffff" stroke="#000000" stroke-width=".5" points="871,-378 680,-378 680,-352 871,-352 871,-378"/>
<text text-anchor="middle" x="775.5" y="-361.2" font-family="Vera Sans, DejaVu Sans, Liberation Sans, Arial, Helvetica, sans" font-size="16.00" fill="#000000">patches.CirclePolygon</text>
</a>
</g>
</g>
<!-- patches.RegularPolygon&#45;&gt;patches.CirclePolygon -->
<g id="edge5" class="edge">
<title>patches.RegularPolygon&#45;&gt;patches.CirclePolygon</title>
<path fill="none" stroke="#000000" stroke-width=".5" d="M624.8115,-365C641.2416,-365 658.22,-365 674.5937,-365"/>
<polygon fill="#000000" stroke="#000000" stroke-width=".5" points="674.6545,-366.7501 679.6545,-365 674.6545,-363.2501 674.6545,-366.7501"/>
</g>
<!-- patches.ConnectionPatch -->
<g id="node13" class="node">
<title>patches.ConnectionPatch</title>
<g id="a_node13"><a xlink:href="../../api/_as_gen/matplotlib.patches.ConnectionPatch.html#matplotlib.patches.ConnectionPatch" xlink:title="A patch that connects two points (possibly in different axes)." target="_top">
<polygon fill="#ffffff" stroke="#000000" stroke-width=".5" points="884,-334 667,-334 667,-308 884,-308 884,-334"/>
<text text-anchor="middle" x="775.5" y="-317.2" font-family="Vera Sans, DejaVu Sans, Liberation Sans, Arial, Helvetica, sans" font-size="16.00" fill="#000000">patches.ConnectionPatch</text>
</a>
</g>
</g>
<!-- patches.FancyArrowPatch&#45;&gt;patches.ConnectionPatch -->
<g id="edge6" class="edge">
<title>patches.FancyArrowPatch&#45;&gt;patches.ConnectionPatch</title>
<path fill="none" stroke="#000000" stroke-width=".5" d="M631.0618,-321C641.1235,-321 651.334,-321 661.4342,-321"/>
<polygon fill="#000000" stroke="#000000" stroke-width=".5" points="661.7046,-322.7501 666.7046,-321 661.7046,-319.2501 661.7046,-322.7501"/>
</g>
<!-- patches.ConnectionStyle -->
<g id="node15" class="node">
<title>patches.ConnectionStyle</title>
<g id="a_node15"><a xlink:href="../../api/_as_gen/matplotlib.patches.ConnectionStyle.html#matplotlib.patches.ConnectionStyle" xlink:title="`ConnectionStyle` is a container class which defines" target="_top">
<polygon fill="#ffffff" stroke="#000000" stroke-width=".5" points="212,-422 0,-422 0,-396 212,-396 212,-422"/>
<text text-anchor="middle" x="106" y="-405.2" font-family="Vera Sans, DejaVu Sans, Liberation Sans, Arial, Helvetica, sans" font-size="16.00" fill="#000000">patches.ConnectionStyle</text>
</a>
</g>
</g>
<!-- patches.FancyArrow -->
<g id="node16" class="node">
<title>patches.FancyArrow</title>
<g id="a_node16"><a xlink:href="../../api/_as_gen/matplotlib.patches.FancyArrow.html#matplotlib.patches.FancyArrow" xlink:title="Like Arrow, but lets you set head width and head height independently." target="_top">
<polygon fill="#ffffff" stroke="#000000" stroke-width=".5" points="863.5,-290 687.5,-290 687.5,-264 863.5,-264 863.5,-290"/>
<text text-anchor="middle" x="775.5" y="-273.2" font-family="Vera Sans, DejaVu Sans, Liberation Sans, Arial, Helvetica, sans" font-size="16.00" fill="#000000">patches.FancyArrow</text>
</a>
</g>
</g>
<!-- patches.Polygon&#45;&gt;patches.FancyArrow -->
<g id="edge8" class="edge">
<title>patches.Polygon&#45;&gt;patches.FancyArrow</title>
<path fill="none" stroke="#000000" stroke-width=".5" d="M594.6266,-277C621.8064,-277 653.0273,-277 681.7957,-277"/>
<polygon fill="#000000" stroke="#000000" stroke-width=".5" points="682.1374,-278.7501 687.1373,-277 682.1373,-275.2501 682.1374,-278.7501"/>
</g>
<!-- text.Annotation -->
<g id="node23" class="node">
<title>text.Annotation</title>
<g id="a_node23"><a xlink:href="../../api/text_api.html#matplotlib.text.Annotation" xlink:title="An `.Annotation` is a `.Text` that can refer to a specific position *xy*." target="_top">
<polygon fill="#ffffff" stroke="#000000" stroke-width=".5" points="590.5,-26 452.5,-26 452.5,0 590.5,0 590.5,-26"/>
<text text-anchor="middle" x="521.5" y="-9.2" font-family="Vera Sans, DejaVu Sans, Liberation Sans, Arial, Helvetica, sans" font-size="16.00" fill="#000000">text.Annotation</text>
</a>
</g>
</g>
<!-- text.Text&#45;&gt;text.Annotation -->
<g id="edge18" class="edge">
<title>text.Text&#45;&gt;text.Annotation</title>
<path fill="none" stroke="#000000" stroke-width=".5" d="M327.5362,-87.9533C346.327,-72.8657 379.4963,-48.3921 412,-35 423.0595,-30.4433 435.1471,-26.8052 447.1253,-23.9076"/>
<polygon fill="#000000" stroke="#000000" stroke-width=".5" points="447.778,-25.5523 452.2487,-22.7106 446.9817,-22.1441 447.778,-25.5523"/>
</g>
<!-- text.OffsetFrom -->
<g id="node25" class="node">
<title>text.OffsetFrom</title>
<g id="a_node25"><a xlink:href="../../api/text_api.html#matplotlib.text.OffsetFrom" xlink:title="Callable helper class for working with `Annotation`." target="_top">
<polygon fill="#ffffff" stroke="#000000" stroke-width=".5" points="175.5,-466 36.5,-466 36.5,-440 175.5,-440 175.5,-466"/>
<text text-anchor="middle" x="106" y="-449.2" font-family="Vera Sans, DejaVu Sans, Liberation Sans, Arial, Helvetica, sans" font-size="16.00" fill="#000000">text.OffsetFrom</text>
</a>
</g>
</g>
</g>
</svg>
