<?xml version="1.0" encoding="UTF-8" standalone="no"?>
<!DOCTYPE svg PUBLIC "-//W3C//DTD SVG 1.1//EN"
 "http://www.w3.org/Graphics/SVG/1.1/DTD/svg11.dtd">
<!-- Generated by graphviz version 2.40.1 (20161225.0304)
 -->
<!-- Title: inheritance8c8e6f1f96 Pages: 1 -->
<svg width="576pt" height="98pt"
 viewBox="0.00 0.00 576.00 97.66" xmlns="http://www.w3.org/2000/svg" xmlns:xlink="http://www.w3.org/1999/xlink">
<g id="graph0" class="graph" transform="scale(.5251 .5251) rotate(0) translate(4 182)">
<title>inheritance8c8e6f1f96</title>
<!-- ABC -->
<g id="node1" class="node">
<title>ABC</title>
<g id="a_node1"><a xlink:title="Helper class that provides a standard way to create an ABC using">
<polygon fill="#ffffff" stroke="#000000" stroke-width=".5" points="54,-114 0,-114 0,-88 54,-88 54,-114"/>
<text text-anchor="middle" x="27" y="-97.2" font-family="Vera Sans, DejaVu Sans, Liberation Sans, Arial, Helvetica, sans" font-size="16.00" fill="#000000">ABC</text>
</a>
</g>
</g>
<!-- AbstractMovieWriter -->
<g id="node8" class="node">
<title>AbstractMovieWriter</title>
<g id="a_node8"><a xlink:href="../_as_gen/matplotlib.animation.AbstractMovieWriter.html#matplotlib.animation.AbstractMovieWriter" xlink:title="Abstract base class for writing movies. Fundamentally, what a MovieWriter" target="_top">
<polygon fill="#ffffff" stroke="#000000" stroke-width=".5" points="268,-114 90,-114 90,-88 268,-88 268,-114"/>
<text text-anchor="middle" x="179" y="-97.2" font-family="Vera Sans, DejaVu Sans, Liberation Sans, Arial, Helvetica, sans" font-size="16.00" fill="#000000">AbstractMovieWriter</text>
</a>
</g>
</g>
<!-- ABC&#45;&gt;AbstractMovieWriter -->
<g id="edge6" class="edge">
<title>ABC&#45;&gt;AbstractMovieWriter</title>
<path fill="none" stroke="#000000" stroke-width=".5" d="M54.1746,-101C63.1347,-101 73.665,-101 84.7455,-101"/>
<polygon fill="#000000" stroke="#000000" stroke-width=".5" points="84.8717,-102.7501 89.8717,-101 84.8716,-99.2501 84.8717,-102.7501"/>
</g>
<!-- AVConvBase -->
<g id="node2" class="node">
<title>AVConvBase</title>
<g id="a_node2"><a xlink:href="../_as_gen/matplotlib.animation.AVConvBase.html#matplotlib.animation.AVConvBase" xlink:title="[*Deprecated*] Mixin class for avconv output." target="_top">
<polygon fill="#ffffff" stroke="#000000" stroke-width=".5" points="860.5,-70 745.5,-70 745.5,-44 860.5,-44 860.5,-70"/>
<text text-anchor="middle" x="803" y="-53.2" font-family="Vera Sans, DejaVu Sans, Liberation Sans, Arial, Helvetica, sans" font-size="16.00" fill="#000000">AVConvBase</text>
</a>
</g>
</g>
<!-- AVConvFileWriter -->
<g id="node4" class="node">
<title>AVConvFileWriter</title>
<g id="a_node4"><a xlink:href="../_as_gen/matplotlib.animation.AVConvFileWriter.html#matplotlib.animation.AVConvFileWriter" xlink:title="File&#45;based avconv writer." target="_top">
<polygon fill="#ffffff" stroke="#000000" stroke-width=".5" points="1089,-103 937,-103 937,-77 1089,-77 1089,-103"/>
<text text-anchor="middle" x="1013" y="-86.2" font-family="Vera Sans, DejaVu Sans, Liberation Sans, Arial, Helvetica, sans" font-size="16.00" fill="#000000">AVConvFileWriter</text>
</a>
</g>
</g>
<!-- AVConvBase&#45;&gt;AVConvFileWriter -->
<g id="edge2" class="edge">
<title>AVConvBase&#45;&gt;AVConvFileWriter</title>
<path fill="none" stroke="#000000" stroke-width=".5" d="M860.6612,-66.061C882.6529,-69.5169 908.1486,-73.5234 931.9174,-77.2585"/>
<polygon fill="#000000" stroke="#000000" stroke-width=".5" points="931.7503,-79.0036 936.9614,-78.0511 932.2937,-75.546 931.7503,-79.0036"/>
</g>
<!-- AVConvWriter -->
<g id="node6" class="node">
<title>AVConvWriter</title>
<g id="a_node6"><a xlink:href="../_as_gen/matplotlib.animation.AVConvWriter.html#matplotlib.animation.AVConvWriter" xlink:title="Pipe&#45;based avconv writer." target="_top">
<polygon fill="#ffffff" stroke="#000000" stroke-width=".5" points="1075.5,-48 950.5,-48 950.5,-22 1075.5,-22 1075.5,-48"/>
<text text-anchor="middle" x="1013" y="-31.2" font-family="Vera Sans, DejaVu Sans, Liberation Sans, Arial, Helvetica, sans" font-size="16.00" fill="#000000">AVConvWriter</text>
</a>
</g>
</g>
<!-- AVConvBase&#45;&gt;AVConvWriter -->
<g id="edge4" class="edge">
<title>AVConvBase&#45;&gt;AVConvWriter</title>
<path fill="none" stroke="#000000" stroke-width=".5" d="M860.6612,-50.9593C886.8377,-48.217 917.9787,-44.9546 945.2627,-42.0963"/>
<polygon fill="#000000" stroke="#000000" stroke-width=".5" points="945.5199,-43.829 950.3103,-41.5675 945.1551,-40.3481 945.5199,-43.829"/>
</g>
<!-- FFMpegBase -->
<g id="node3" class="node">
<title>FFMpegBase</title>
<g id="a_node3"><a xlink:href="../_as_gen/matplotlib.animation.FFMpegBase.html#matplotlib.animation.FFMpegBase" xlink:title="Mixin class for FFMpeg output." target="_top">
<polygon fill="#ffffff" stroke="#000000" stroke-width=".5" points="642,-70 526,-70 526,-44 642,-44 642,-70"/>
<text text-anchor="middle" x="584" y="-53.2" font-family="Vera Sans, DejaVu Sans, Liberation Sans, Arial, Helvetica, sans" font-size="16.00" fill="#000000">FFMpegBase</text>
</a>
</g>
</g>
<!-- FFMpegBase&#45;&gt;AVConvBase -->
<g id="edge1" class="edge">
<title>FFMpegBase&#45;&gt;AVConvBase</title>
<path fill="none" stroke="#000000" stroke-width=".5" d="M642.113,-57C672.2997,-57 709.2248,-57 740.0831,-57"/>
<polygon fill="#000000" stroke="#000000" stroke-width=".5" points="740.3754,-58.7501 745.3753,-57 740.3753,-55.2501 740.3754,-58.7501"/>
</g>
<!-- FFMpegFileWriter -->
<g id="node5" class="node">
<title>FFMpegFileWriter</title>
<g id="a_node5"><a xlink:href="../_as_gen/matplotlib.animation.FFMpegFileWriter.html#matplotlib.animation.FFMpegFileWriter" xlink:title="File&#45;based ffmpeg writer." target="_top">
<polygon fill="#ffffff" stroke="#000000" stroke-width=".5" points="879,-114 727,-114 727,-88 879,-88 879,-114"/>
<text text-anchor="middle" x="803" y="-97.2" font-family="Vera Sans, DejaVu Sans, Liberation Sans, Arial, Helvetica, sans" font-size="16.00" fill="#000000">FFMpegFileWriter</text>
</a>
</g>
</g>
<!-- FFMpegBase&#45;&gt;FFMpegFileWriter -->
<g id="edge7" class="edge">
<title>FFMpegBase&#45;&gt;FFMpegFileWriter</title>
<path fill="none" stroke="#000000" stroke-width=".5" d="M642.113,-68.6757C670.0237,-74.2833 703.695,-81.0483 733.0053,-86.9371"/>
<polygon fill="#000000" stroke="#000000" stroke-width=".5" points="732.7997,-88.6807 738.0465,-87.95 733.4892,-85.2493 732.7997,-88.6807"/>
</g>
<!-- FFMpegWriter -->
<g id="node7" class="node">
<title>FFMpegWriter</title>
<g id="a_node7"><a xlink:href="../_as_gen/matplotlib.animation.FFMpegWriter.html#matplotlib.animation.FFMpegWriter" xlink:title="Pipe&#45;based ffmpeg writer." target="_top">
<polygon fill="#ffffff" stroke="#000000" stroke-width=".5" points="866,-26 740,-26 740,0 866,0 866,-26"/>
<text text-anchor="middle" x="803" y="-9.2" font-family="Vera Sans, DejaVu Sans, Liberation Sans, Arial, Helvetica, sans" font-size="16.00" fill="#000000">FFMpegWriter</text>
</a>
</g>
</g>
<!-- FFMpegBase&#45;&gt;FFMpegWriter -->
<g id="edge9" class="edge">
<title>FFMpegBase&#45;&gt;FFMpegWriter</title>
<path fill="none" stroke="#000000" stroke-width=".5" d="M642.113,-45.3243C670.6227,-39.5964 705.1428,-32.6608 734.8861,-26.685"/>
<polygon fill="#000000" stroke="#000000" stroke-width=".5" points="735.4408,-28.3586 739.9981,-25.6579 734.7513,-24.9272 735.4408,-28.3586"/>
</g>
<!-- FFMpegFileWriter&#45;&gt;AVConvFileWriter -->
<g id="edge3" class="edge">
<title>FFMpegFileWriter&#45;&gt;AVConvFileWriter</title>
<path fill="none" stroke="#000000" stroke-width=".5" d="M879.1117,-97.0132C896.1318,-96.1217 914.25,-95.1726 931.4792,-94.2701"/>
<polygon fill="#000000" stroke="#000000" stroke-width=".5" points="931.8939,-96.0009 936.7954,-93.9917 931.7107,-92.5057 931.8939,-96.0009"/>
</g>
<!-- FFMpegWriter&#45;&gt;AVConvWriter -->
<g id="edge5" class="edge">
<title>FFMpegWriter&#45;&gt;AVConvWriter</title>
<path fill="none" stroke="#000000" stroke-width=".5" d="M866.0069,-19.6007C891.0381,-22.223 919.8813,-25.2447 945.3525,-27.9131"/>
<polygon fill="#000000" stroke="#000000" stroke-width=".5" points="945.2445,-29.6613 950.3997,-28.4419 945.6092,-26.1803 945.2445,-29.6613"/>
</g>
<!-- MovieWriter -->
<g id="node10" class="node">
<title>MovieWriter</title>
<g id="a_node10"><a xlink:href="../_as_gen/matplotlib.animation.MovieWriter.html#matplotlib.animation.MovieWriter" xlink:title="Base class for writing movies." target="_top">
<polygon fill="#ffffff" stroke="#000000" stroke-width=".5" points="439.5,-114 327.5,-114 327.5,-88 439.5,-88 439.5,-114"/>
<text text-anchor="middle" x="383.5" y="-97.2" font-family="Vera Sans, DejaVu Sans, Liberation Sans, Arial, Helvetica, sans" font-size="16.00" fill="#000000">MovieWriter</text>
</a>
</g>
</g>
<!-- AbstractMovieWriter&#45;&gt;MovieWriter -->
<g id="edge16" class="edge">
<title>AbstractMovieWriter&#45;&gt;MovieWriter</title>
<path fill="none" stroke="#000000" stroke-width=".5" d="M268.1018,-101C286.3424,-101 305.1506,-101 322.1523,-101"/>
<polygon fill="#000000" stroke="#000000" stroke-width=".5" points="322.3681,-102.7501 327.368,-101 322.368,-99.2501 322.3681,-102.7501"/>
</g>
<!-- FileMovieWriter -->
<g id="node9" class="node">
<title>FileMovieWriter</title>
<g id="a_node9"><a xlink:href="../_as_gen/matplotlib.animation.FileMovieWriter.html#matplotlib.animation.FileMovieWriter" xlink:title="`MovieWriter` for writing to individual files and stitching at the end." target="_top">
<polygon fill="#ffffff" stroke="#000000" stroke-width=".5" points="653,-114 515,-114 515,-88 653,-88 653,-114"/>
<text text-anchor="middle" x="584" y="-97.2" font-family="Vera Sans, DejaVu Sans, Liberation Sans, Arial, Helvetica, sans" font-size="16.00" fill="#000000">FileMovieWriter</text>
</a>
</g>
</g>
<!-- FileMovieWriter&#45;&gt;FFMpegFileWriter -->
<g id="edge8" class="edge">
<title>FileMovieWriter&#45;&gt;FFMpegFileWriter</title>
<path fill="none" stroke="#000000" stroke-width=".5" d="M653.293,-101C675.0788,-101 699.3304,-101 721.8615,-101"/>
<polygon fill="#000000" stroke="#000000" stroke-width=".5" points="721.9423,-102.7501 726.9423,-101 721.9422,-99.2501 721.9423,-102.7501"/>
</g>
<!-- ImageMagickFileWriter -->
<g id="node12" class="node">
<title>ImageMagickFileWriter</title>
<g id="a_node12"><a xlink:href="../_as_gen/matplotlib.animation.ImageMagickFileWriter.html#matplotlib.animation.ImageMagickFileWriter" xlink:title="File&#45;based animated gif writer." target="_top">
<polygon fill="#ffffff" stroke="#000000" stroke-width=".5" points="901,-178 705,-178 705,-152 901,-152 901,-178"/>
<text text-anchor="middle" x="803" y="-161.2" font-family="Vera Sans, DejaVu Sans, Liberation Sans, Arial, Helvetica, sans" font-size="16.00" fill="#000000">ImageMagickFileWriter</text>
</a>
</g>
</g>
<!-- FileMovieWriter&#45;&gt;ImageMagickFileWriter -->
<g id="edge13" class="edge">
<title>FileMovieWriter&#45;&gt;ImageMagickFileWriter</title>
<path fill="none" stroke="#000000" stroke-width=".5" d="M636.2572,-114.0821C647.1075,-116.9225 658.4478,-119.9828 669,-123 699.0111,-131.5811 732.5202,-142.0841 758.5219,-150.4404"/>
<polygon fill="#000000" stroke="#000000" stroke-width=".5" points="757.9913,-152.108 763.2871,-151.9747 759.0641,-148.7764 757.9913,-152.108"/>
</g>
<!-- MovieWriter&#45;&gt;FFMpegWriter -->
<g id="edge10" class="edge">
<title>MovieWriter&#45;&gt;FFMpegWriter</title>
<path fill="none" stroke="#000000" stroke-width=".5" d="M400.7495,-87.8095C422.3787,-72.0902 461.2215,-46.5083 499,-35 577.2839,-11.1528 671.9282,-8.0894 734.5963,-9.4014"/>
<polygon fill="#000000" stroke="#000000" stroke-width=".5" points="734.7654,-11.1557 739.8047,-9.5221 734.8466,-7.6566 734.7654,-11.1557"/>
</g>
<!-- MovieWriter&#45;&gt;FileMovieWriter -->
<g id="edge11" class="edge">
<title>MovieWriter&#45;&gt;FileMovieWriter</title>
<path fill="none" stroke="#000000" stroke-width=".5" d="M439.617,-101C461.2655,-101 486.3445,-101 509.4661,-101"/>
<polygon fill="#000000" stroke="#000000" stroke-width=".5" points="509.6763,-102.7501 514.6763,-101 509.6762,-99.2501 509.6763,-102.7501"/>
</g>
<!-- ImageMagickWriter -->
<g id="node13" class="node">
<title>ImageMagickWriter</title>
<g id="a_node13"><a xlink:href="../_as_gen/matplotlib.animation.ImageMagickWriter.html#matplotlib.animation.ImageMagickWriter" xlink:title="Pipe&#45;based animated gif." target="_top">
<polygon fill="#ffffff" stroke="#000000" stroke-width=".5" points="669,-158 499,-158 499,-132 669,-132 669,-158"/>
<text text-anchor="middle" x="584" y="-141.2" font-family="Vera Sans, DejaVu Sans, Liberation Sans, Arial, Helvetica, sans" font-size="16.00" fill="#000000">ImageMagickWriter</text>
</a>
</g>
</g>
<!-- MovieWriter&#45;&gt;ImageMagickWriter -->
<g id="edge15" class="edge">
<title>MovieWriter&#45;&gt;ImageMagickWriter</title>
<path fill="none" stroke="#000000" stroke-width=".5" d="M439.617,-113.315C464.4885,-118.773 493.8879,-125.2248 519.6451,-130.8772"/>
<polygon fill="#000000" stroke="#000000" stroke-width=".5" points="519.4866,-132.634 524.7455,-131.9965 520.2369,-129.2154 519.4866,-132.634"/>
</g>
<!-- ImageMagickBase -->
<g id="node11" class="node">
<title>ImageMagickBase</title>
<g id="a_node11"><a xlink:href="../_as_gen/matplotlib.animation.ImageMagickBase.html#matplotlib.animation.ImageMagickBase" xlink:title="Mixin class for ImageMagick output." target="_top">
<polygon fill="#ffffff" stroke="#000000" stroke-width=".5" points="463,-178 304,-178 304,-152 463,-152 463,-178"/>
<text text-anchor="middle" x="383.5" y="-161.2" font-family="Vera Sans, DejaVu Sans, Liberation Sans, Arial, Helvetica, sans" font-size="16.00" fill="#000000">ImageMagickBase</text>
</a>
</g>
</g>
<!-- ImageMagickBase&#45;&gt;ImageMagickFileWriter -->
<g id="edge12" class="edge">
<title>ImageMagickBase&#45;&gt;ImageMagickFileWriter</title>
<path fill="none" stroke="#000000" stroke-width=".5" d="M463.0263,-166.5578C475.0788,-166.7416 487.3685,-166.8993 499,-167 574.5527,-167.6541 593.4465,-167.5638 669,-167 678.997,-166.9254 689.4133,-166.8195 699.8263,-166.6949"/>
<polygon fill="#000000" stroke="#000000" stroke-width=".5" points="699.9579,-168.4435 704.936,-166.6323 699.9149,-164.9438 699.9579,-168.4435"/>
</g>
<!-- ImageMagickBase&#45;&gt;ImageMagickWriter -->
<g id="edge14" class="edge">
<title>ImageMagickBase&#45;&gt;ImageMagickWriter</title>
<path fill="none" stroke="#000000" stroke-width=".5" d="M463.0309,-157.0667C473.1783,-156.0545 483.6219,-155.0128 493.9209,-153.9855"/>
<polygon fill="#000000" stroke="#000000" stroke-width=".5" points="494.1616,-155.7202 498.9631,-153.4825 493.8141,-152.2375 494.1616,-155.7202"/>
</g>
</g>
</svg>
