<?xml version="1.0" encoding="UTF-8" standalone="no"?>
<!DOCTYPE svg PUBLIC "-//W3C//DTD SVG 1.1//EN"
 "http://www.w3.org/Graphics/SVG/1.1/DTD/svg11.dtd">
<!-- Generated by graphviz version 2.40.1 (20161225.0304)
 -->
<!-- Title: inheritance829eaf436e Pages: 1 -->
<svg width="576pt" height="163pt"
 viewBox="0.00 0.00 576.00 162.65" xmlns="http://www.w3.org/2000/svg" xmlns:xlink="http://www.w3.org/1999/xlink">
<g id="graph0" class="graph" transform="scale(.4214 .4214) rotate(0) translate(4 382)">
<title>inheritance829eaf436e</title>
<!-- artist.Artist -->
<g id="node1" class="node">
<title>artist.Artist</title>
<g id="a_node1"><a xlink:href="../artist_api.html#matplotlib.artist.Artist" xlink:title="Abstract base class for objects that render into a FigureCanvas." target="_top">
<polygon fill="#ffffff" stroke="#000000" stroke-width=".5" points="138.5,-158 33.5,-158 33.5,-132 138.5,-132 138.5,-158"/>
<text text-anchor="middle" x="86" y="-141.2" font-family="Vera Sans, DejaVu Sans, Liberation Sans, Arial, Helvetica, sans" font-size="16.00" fill="#000000">artist.Artist</text>
</a>
</g>
</g>
<!-- collections.Collection -->
<g id="node9" class="node">
<title>collections.Collection</title>
<g id="a_node9"><a xlink:href="../api/collections_api.html#matplotlib.collections.Collection" xlink:title="Base class for Collections. Must be subclassed to be usable." target="_top">
<polygon fill="#ffffff" stroke="#000000" stroke-width=".5" points="393,-136 208,-136 208,-110 393,-110 393,-136"/>
<text text-anchor="middle" x="300.5" y="-119.2" font-family="Vera Sans, DejaVu Sans, Liberation Sans, Arial, Helvetica, sans" font-size="16.00" fill="#000000">collections.Collection</text>
</a>
</g>
</g>
<!-- artist.Artist&#45;&gt;collections.Collection -->
<g id="edge4" class="edge">
<title>artist.Artist&#45;&gt;collections.Collection</title>
<path fill="none" stroke="#000000" stroke-width=".5" d="M138.7473,-139.59C158.1217,-137.6029 180.728,-135.2843 202.7914,-133.0214"/>
<polygon fill="#000000" stroke="#000000" stroke-width=".5" points="202.9911,-134.7602 207.7865,-132.5091 202.634,-131.2784 202.9911,-134.7602"/>
</g>
<!-- cm.ScalarMappable -->
<g id="node2" class="node">
<title>cm.ScalarMappable</title>
<g id="a_node2"><a xlink:href="../cm_api.html#matplotlib.cm.ScalarMappable" xlink:title="A mixin class to map scalar data to RGBA." target="_top">
<polygon fill="#ffffff" stroke="#000000" stroke-width=".5" points="172,-114 0,-114 0,-88 172,-88 172,-114"/>
<text text-anchor="middle" x="86" y="-97.2" font-family="Vera Sans, DejaVu Sans, Liberation Sans, Arial, Helvetica, sans" font-size="16.00" fill="#000000">cm.ScalarMappable</text>
</a>
</g>
</g>
<!-- cm.ScalarMappable&#45;&gt;collections.Collection -->
<g id="edge5" class="edge">
<title>cm.ScalarMappable&#45;&gt;collections.Collection</title>
<path fill="none" stroke="#000000" stroke-width=".5" d="M172.0094,-109.8215C182.1259,-110.8591 192.5051,-111.9236 202.7671,-112.9761"/>
<polygon fill="#000000" stroke="#000000" stroke-width=".5" points="202.6413,-114.7223 207.7938,-113.4917 202.9984,-111.2406 202.6413,-114.7223"/>
</g>
<!-- collections.AsteriskPolygonCollection -->
<g id="node3" class="node">
<title>collections.AsteriskPolygonCollection</title>
<g id="a_node3"><a xlink:href="../api/collections_api.html#matplotlib.collections.AsteriskPolygonCollection" xlink:title="Draw a collection of regular asterisks with *numsides* points." target="_top">
<polygon fill="#ffffff" stroke="#000000" stroke-width=".5" points="1359,-378 1049,-378 1049,-352 1359,-352 1359,-378"/>
<text text-anchor="middle" x="1204" y="-361.2" font-family="Vera Sans, DejaVu Sans, Liberation Sans, Arial, Helvetica, sans" font-size="16.00" fill="#000000">collections.AsteriskPolygonCollection</text>
</a>
</g>
</g>
<!-- collections.RegularPolyCollection -->
<g id="node4" class="node">
<title>collections.RegularPolyCollection</title>
<g id="a_node4"><a xlink:href="../api/collections_api.html#matplotlib.collections.RegularPolyCollection" xlink:title="A collection of n&#45;sided regular polygons." target="_top">
<polygon fill="#ffffff" stroke="#000000" stroke-width=".5" points="1013,-334 735,-334 735,-308 1013,-308 1013,-334"/>
<text text-anchor="middle" x="874" y="-317.2" font-family="Vera Sans, DejaVu Sans, Liberation Sans, Arial, Helvetica, sans" font-size="16.00" fill="#000000">collections.RegularPolyCollection</text>
</a>
</g>
</g>
<!-- collections.RegularPolyCollection&#45;&gt;collections.AsteriskPolygonCollection -->
<g id="edge1" class="edge">
<title>collections.RegularPolyCollection&#45;&gt;collections.AsteriskPolygonCollection</title>
<path fill="none" stroke="#000000" stroke-width=".5" d="M971.6715,-334.0229C1012.4898,-339.4653 1059.9436,-345.7925 1101.2838,-351.3045"/>
<polygon fill="#000000" stroke="#000000" stroke-width=".5" points="1101.1067,-353.0463 1106.2942,-351.9726 1101.5693,-349.577 1101.1067,-353.0463"/>
</g>
<!-- collections.StarPolygonCollection -->
<g id="node16" class="node">
<title>collections.StarPolygonCollection</title>
<g id="a_node16"><a xlink:href="../api/collections_api.html#matplotlib.collections.StarPolygonCollection" xlink:title="Draw a collection of regular stars with *numsides* points." target="_top">
<polygon fill="#ffffff" stroke="#000000" stroke-width=".5" points="1343.5,-334 1064.5,-334 1064.5,-308 1343.5,-308 1343.5,-334"/>
<text text-anchor="middle" x="1204" y="-317.2" font-family="Vera Sans, DejaVu Sans, Liberation Sans, Arial, Helvetica, sans" font-size="16.00" fill="#000000">collections.StarPolygonCollection</text>
</a>
</g>
</g>
<!-- collections.RegularPolyCollection&#45;&gt;collections.StarPolygonCollection -->
<g id="edge14" class="edge">
<title>collections.RegularPolyCollection&#45;&gt;collections.StarPolygonCollection</title>
<path fill="none" stroke="#000000" stroke-width=".5" d="M1013.4714,-321C1028.6434,-321 1044.1105,-321 1059.3428,-321"/>
<polygon fill="#000000" stroke="#000000" stroke-width=".5" points="1059.4988,-322.7501 1064.4987,-321 1059.4987,-319.2501 1059.4988,-322.7501"/>
</g>
<!-- collections.BrokenBarHCollection -->
<g id="node5" class="node">
<title>collections.BrokenBarHCollection</title>
<g id="a_node5"><a xlink:href="../api/collections_api.html#matplotlib.collections.BrokenBarHCollection" xlink:title="A collection of horizontal bars spanning *yrange* with a sequence of" target="_top">
<polygon fill="#ffffff" stroke="#000000" stroke-width=".5" points="1343.5,-290 1064.5,-290 1064.5,-264 1343.5,-264 1343.5,-290"/>
<text text-anchor="middle" x="1204" y="-273.2" font-family="Vera Sans, DejaVu Sans, Liberation Sans, Arial, Helvetica, sans" font-size="16.00" fill="#000000">collections.BrokenBarHCollection</text>
</a>
</g>
</g>
<!-- collections.PolyCollection -->
<g id="node6" class="node">
<title>collections.PolyCollection</title>
<g id="a_node6"><a xlink:href="../api/collections_api.html#matplotlib.collections.PolyCollection" xlink:title="collections.PolyCollection" target="_top">
<polygon fill="#ffffff" stroke="#000000" stroke-width=".5" points="983,-290 765,-290 765,-264 983,-264 983,-290"/>
<text text-anchor="middle" x="874" y="-273.2" font-family="Vera Sans, DejaVu Sans, Liberation Sans, Arial, Helvetica, sans" font-size="16.00" fill="#000000">collections.PolyCollection</text>
</a>
</g>
</g>
<!-- collections.PolyCollection&#45;&gt;collections.BrokenBarHCollection -->
<g id="edge2" class="edge">
<title>collections.PolyCollection&#45;&gt;collections.BrokenBarHCollection</title>
<path fill="none" stroke="#000000" stroke-width=".5" d="M983.4269,-277C1007.6998,-277 1033.7895,-277 1059.228,-277"/>
<polygon fill="#000000" stroke="#000000" stroke-width=".5" points="1059.3063,-278.7501 1064.3063,-277 1059.3063,-275.2501 1059.3063,-278.7501"/>
</g>
<!-- collections.CircleCollection -->
<g id="node7" class="node">
<title>collections.CircleCollection</title>
<g id="a_node7"><a xlink:href="../api/collections_api.html#matplotlib.collections.CircleCollection" xlink:title="A collection of circles, drawn using splines." target="_top">
<polygon fill="#ffffff" stroke="#000000" stroke-width=".5" points="989.5,-246 758.5,-246 758.5,-220 989.5,-220 989.5,-246"/>
<text text-anchor="middle" x="874" y="-229.2" font-family="Vera Sans, DejaVu Sans, Liberation Sans, Arial, Helvetica, sans" font-size="16.00" fill="#000000">collections.CircleCollection</text>
</a>
</g>
</g>
<!-- collections._CollectionWithSizes -->
<g id="node8" class="node">
<title>collections._CollectionWithSizes</title>
<g id="a_node8"><a xlink:title="Base class for collections that have an array of sizes.">
<polygon fill="#ffffff" stroke="#000000" stroke-width=".5" points="699,-246 429,-246 429,-220 699,-220 699,-246"/>
<text text-anchor="middle" x="564" y="-229.2" font-family="Vera Sans, DejaVu Sans, Liberation Sans, Arial, Helvetica, sans" font-size="16.00" fill="#000000">collections._CollectionWithSizes</text>
</a>
</g>
</g>
<!-- collections._CollectionWithSizes&#45;&gt;collections.RegularPolyCollection -->
<g id="edge13" class="edge">
<title>collections._CollectionWithSizes&#45;&gt;collections.RegularPolyCollection</title>
<path fill="none" stroke="#000000" stroke-width=".5" d="M592.425,-246.114C625.8626,-261.0329 683.3726,-285.1188 735,-299 746.2516,-302.0252 758.1346,-304.6868 770.0233,-307.0152"/>
<polygon fill="#000000" stroke="#000000" stroke-width=".5" points="769.8768,-308.7689 775.117,-307.9928 770.5365,-305.3316 769.8768,-308.7689"/>
</g>
<!-- collections._CollectionWithSizes&#45;&gt;collections.PolyCollection -->
<g id="edge11" class="edge">
<title>collections._CollectionWithSizes&#45;&gt;collections.PolyCollection</title>
<path fill="none" stroke="#000000" stroke-width=".5" d="M655.752,-246.0229C693.9406,-251.4432 738.312,-257.7411 777.0352,-263.2373"/>
<polygon fill="#000000" stroke="#000000" stroke-width=".5" points="777.0194,-265.0025 782.2157,-263.9726 777.5113,-261.5372 777.0194,-265.0025"/>
</g>
<!-- collections._CollectionWithSizes&#45;&gt;collections.CircleCollection -->
<g id="edge3" class="edge">
<title>collections._CollectionWithSizes&#45;&gt;collections.CircleCollection</title>
<path fill="none" stroke="#000000" stroke-width=".5" d="M699.0687,-233C716.9604,-233 735.2123,-233 752.8495,-233"/>
<polygon fill="#000000" stroke="#000000" stroke-width=".5" points="753.3023,-234.7501 758.3023,-233 753.3023,-231.2501 753.3023,-234.7501"/>
</g>
<!-- collections.PathCollection -->
<g id="node14" class="node">
<title>collections.PathCollection</title>
<g id="a_node14"><a xlink:href="../api/collections_api.html#matplotlib.collections.PathCollection" xlink:title="A collection of `~.path.Path`s, as created by e.g. `~.Axes.scatter`." target="_top">
<polygon fill="#ffffff" stroke="#000000" stroke-width=".5" points="984,-202 764,-202 764,-176 984,-176 984,-202"/>
<text text-anchor="middle" x="874" y="-185.2" font-family="Vera Sans, DejaVu Sans, Liberation Sans, Arial, Helvetica, sans" font-size="16.00" fill="#000000">collections.PathCollection</text>
</a>
</g>
</g>
<!-- collections._CollectionWithSizes&#45;&gt;collections.PathCollection -->
<g id="edge10" class="edge">
<title>collections._CollectionWithSizes&#45;&gt;collections.PathCollection</title>
<path fill="none" stroke="#000000" stroke-width=".5" d="M655.752,-219.9771C693.9406,-214.5568 738.312,-208.2589 777.0352,-202.7627"/>
<polygon fill="#000000" stroke="#000000" stroke-width=".5" points="777.5113,-204.4628 782.2157,-202.0274 777.0194,-200.9975 777.5113,-204.4628"/>
</g>
<!-- collections.Collection&#45;&gt;collections._CollectionWithSizes -->
<g id="edge16" class="edge">
<title>collections.Collection&#45;&gt;collections._CollectionWithSizes</title>
<path fill="none" stroke="#000000" stroke-width=".5" d="M315.0527,-136.221C337.6421,-155.9427 383.318,-192.7007 429,-211 436.302,-213.925 443.9747,-216.4615 451.7997,-218.6608"/>
<polygon fill="#000000" stroke="#000000" stroke-width=".5" points="451.4059,-220.3672 456.6897,-219.9872 452.3222,-216.9892 451.4059,-220.3672"/>
</g>
<!-- collections.EllipseCollection -->
<g id="node10" class="node">
<title>collections.EllipseCollection</title>
<g id="a_node10"><a xlink:href="../api/collections_api.html#matplotlib.collections.EllipseCollection" xlink:title="A collection of ellipses, drawn using splines." target="_top">
<polygon fill="#ffffff" stroke="#000000" stroke-width=".5" points="682,-202 446,-202 446,-176 682,-176 682,-202"/>
<text text-anchor="middle" x="564" y="-185.2" font-family="Vera Sans, DejaVu Sans, Liberation Sans, Arial, Helvetica, sans" font-size="16.00" fill="#000000">collections.EllipseCollection</text>
</a>
</g>
</g>
<!-- collections.Collection&#45;&gt;collections.EllipseCollection -->
<g id="edge6" class="edge">
<title>collections.Collection&#45;&gt;collections.EllipseCollection</title>
<path fill="none" stroke="#000000" stroke-width=".5" d="M333.5863,-136.0525C359.2689,-145.761 395.9495,-158.7113 429,-167 440.8955,-169.9833 453.4856,-172.6582 466.0061,-175.0278"/>
<polygon fill="#000000" stroke="#000000" stroke-width=".5" points="465.7507,-176.7603 470.9866,-175.9553 466.3915,-173.3194 465.7507,-176.7603"/>
</g>
<!-- collections.LineCollection -->
<g id="node12" class="node">
<title>collections.LineCollection</title>
<g id="a_node12"><a xlink:href="../api/collections_api.html#matplotlib.collections.LineCollection" xlink:title="Represents a sequence of `.Line2D`s that should be drawn together." target="_top">
<polygon fill="#ffffff" stroke="#000000" stroke-width=".5" points="673,-158 455,-158 455,-132 673,-132 673,-158"/>
<text text-anchor="middle" x="564" y="-141.2" font-family="Vera Sans, DejaVu Sans, Liberation Sans, Arial, Helvetica, sans" font-size="16.00" fill="#000000">collections.LineCollection</text>
</a>
</g>
</g>
<!-- collections.Collection&#45;&gt;collections.LineCollection -->
<g id="edge8" class="edge">
<title>collections.Collection&#45;&gt;collections.LineCollection</title>
<path fill="none" stroke="#000000" stroke-width=".5" d="M393.0297,-130.7254C411.3286,-132.2532 430.7381,-133.8738 449.66,-135.4536"/>
<polygon fill="#000000" stroke="#000000" stroke-width=".5" points="449.8543,-137.2258 454.9826,-135.898 450.1456,-133.738 449.8543,-137.2258"/>
</g>
<!-- collections.PatchCollection -->
<g id="node13" class="node">
<title>collections.PatchCollection</title>
<g id="a_node13"><a xlink:href="../api/collections_api.html#matplotlib.collections.PatchCollection" xlink:title="A generic collection of patches." target="_top">
<polygon fill="#ffffff" stroke="#000000" stroke-width=".5" points="678.5,-114 449.5,-114 449.5,-88 678.5,-88 678.5,-114"/>
<text text-anchor="middle" x="564" y="-97.2" font-family="Vera Sans, DejaVu Sans, Liberation Sans, Arial, Helvetica, sans" font-size="16.00" fill="#000000">collections.PatchCollection</text>
</a>
</g>
</g>
<!-- collections.Collection&#45;&gt;collections.PatchCollection -->
<g id="edge9" class="edge">
<title>collections.Collection&#45;&gt;collections.PatchCollection</title>
<path fill="none" stroke="#000000" stroke-width=".5" d="M393.0297,-115.2746C409.5595,-113.8945 426.9956,-112.4387 444.1599,-111.0056"/>
<polygon fill="#000000" stroke="#000000" stroke-width=".5" points="444.6396,-112.7217 449.4767,-110.5617 444.3484,-109.2339 444.6396,-112.7217"/>
</g>
<!-- collections.QuadMesh -->
<g id="node15" class="node">
<title>collections.QuadMesh</title>
<g id="a_node15"><a xlink:href="../api/collections_api.html#matplotlib.collections.QuadMesh" xlink:title="Class for the efficient drawing of a quadrilateral mesh." target="_top">
<polygon fill="#ffffff" stroke="#000000" stroke-width=".5" points="659,-70 469,-70 469,-44 659,-44 659,-70"/>
<text text-anchor="middle" x="564" y="-53.2" font-family="Vera Sans, DejaVu Sans, Liberation Sans, Arial, Helvetica, sans" font-size="16.00" fill="#000000">collections.QuadMesh</text>
</a>
</g>
</g>
<!-- collections.Collection&#45;&gt;collections.QuadMesh -->
<g id="edge12" class="edge">
<title>collections.Collection&#45;&gt;collections.QuadMesh</title>
<path fill="none" stroke="#000000" stroke-width=".5" d="M333.5863,-109.9475C359.2689,-100.239 395.9495,-87.2887 429,-79 440.8955,-76.0167 453.4856,-73.3418 466.0061,-70.9722"/>
<polygon fill="#000000" stroke="#000000" stroke-width=".5" points="466.3915,-72.6806 470.9866,-70.0447 465.7507,-69.2397 466.3915,-72.6806"/>
</g>
<!-- collections.TriMesh -->
<g id="node17" class="node">
<title>collections.TriMesh</title>
<g id="a_node17"><a xlink:href="../api/collections_api.html#matplotlib.collections.TriMesh" xlink:title="Class for the efficient drawing of a triangular mesh using Gouraud shading." target="_top">
<polygon fill="#ffffff" stroke="#000000" stroke-width=".5" points="647.5,-26 480.5,-26 480.5,0 647.5,0 647.5,-26"/>
<text text-anchor="middle" x="564" y="-9.2" font-family="Vera Sans, DejaVu Sans, Liberation Sans, Arial, Helvetica, sans" font-size="16.00" fill="#000000">collections.TriMesh</text>
</a>
</g>
</g>
<!-- collections.Collection&#45;&gt;collections.TriMesh -->
<g id="edge15" class="edge">
<title>collections.Collection&#45;&gt;collections.TriMesh</title>
<path fill="none" stroke="#000000" stroke-width=".5" d="M315.0527,-109.779C337.6421,-90.0573 383.318,-53.2993 429,-35 443.4577,-29.2086 459.3682,-24.9406 475.0382,-21.7957"/>
<polygon fill="#000000" stroke="#000000" stroke-width=".5" points="475.7633,-23.438 480.3408,-20.7716 475.0996,-20.0015 475.7633,-23.438"/>
</g>
<!-- collections.EventCollection -->
<g id="node11" class="node">
<title>collections.EventCollection</title>
<g id="a_node11"><a xlink:href="../api/collections_api.html#matplotlib.collections.EventCollection" xlink:title="A collection of locations along a single axis at which an &quot;event&quot; occured." target="_top">
<polygon fill="#ffffff" stroke="#000000" stroke-width=".5" points="989,-158 759,-158 759,-132 989,-132 989,-158"/>
<text text-anchor="middle" x="874" y="-141.2" font-family="Vera Sans, DejaVu Sans, Liberation Sans, Arial, Helvetica, sans" font-size="16.00" fill="#000000">collections.EventCollection</text>
</a>
</g>
</g>
<!-- collections.LineCollection&#45;&gt;collections.EventCollection -->
<g id="edge7" class="edge">
<title>collections.LineCollection&#45;&gt;collections.EventCollection</title>
<path fill="none" stroke="#000000" stroke-width=".5" d="M673.2944,-145C699.2787,-145 727.145,-145 753.595,-145"/>
<polygon fill="#000000" stroke="#000000" stroke-width=".5" points="753.8652,-146.7501 758.8652,-145 753.8651,-143.2501 753.8652,-146.7501"/>
</g>
</g>
</svg>
