<?xml version="1.0" encoding="UTF-8" standalone="no"?>
<!DOCTYPE svg PUBLIC "-//W3C//DTD SVG 1.1//EN"
 "http://www.w3.org/Graphics/SVG/1.1/DTD/svg11.dtd">
<!-- Generated by graphviz version 2.40.1 (20161225.0304)
 -->
<!-- Title: inheritance11408564de Pages: 1 -->
<svg width="576pt" height="236pt"
 viewBox="0.00 0.00 576.00 236.10" xmlns="http://www.w3.org/2000/svg" xmlns:xlink="http://www.w3.org/1999/xlink">
<g id="graph0" class="graph" transform="scale(.7923 .7923) rotate(0) translate(4 294)">
<title>inheritance11408564de</title>
<!-- AnchoredOffsetbox -->
<g id="node1" class="node">
<title>AnchoredOffsetbox</title>
<g id="a_node1"><a xlink:href="../api/offsetbox_api.html#matplotlib.offsetbox.AnchoredOffsetbox" xlink:title="An offset box placed according to location *loc*." target="_top">
<polygon fill="#ffffff" stroke="#000000" stroke-width=".5" points="560,-290 393,-290 393,-264 560,-264 560,-290"/>
<text text-anchor="middle" x="476.5" y="-273.2" font-family="Vera Sans, DejaVu Sans, Liberation Sans, Arial, Helvetica, sans" font-size="16.00" fill="#000000">AnchoredOffsetbox</text>
</a>
</g>
</g>
<!-- AnchoredText -->
<g id="node3" class="node">
<title>AnchoredText</title>
<g id="a_node3"><a xlink:href="../api/offsetbox_api.html#matplotlib.offsetbox.AnchoredText" xlink:title="AnchoredOffsetbox with Text." target="_top">
<polygon fill="#ffffff" stroke="#000000" stroke-width=".5" points="719,-290 596,-290 596,-264 719,-264 719,-290"/>
<text text-anchor="middle" x="657.5" y="-273.2" font-family="Vera Sans, DejaVu Sans, Liberation Sans, Arial, Helvetica, sans" font-size="16.00" fill="#000000">AnchoredText</text>
</a>
</g>
</g>
<!-- AnchoredOffsetbox&#45;&gt;AnchoredText -->
<g id="edge2" class="edge">
<title>AnchoredOffsetbox&#45;&gt;AnchoredText</title>
<path fill="none" stroke="#000000" stroke-width=".5" d="M560.1124,-277C570.3665,-277 580.7393,-277 590.7,-277"/>
<polygon fill="#000000" stroke="#000000" stroke-width=".5" points="590.8684,-278.7501 595.8684,-277 590.8684,-275.2501 590.8684,-278.7501"/>
</g>
<!-- OffsetBox -->
<g id="node2" class="node">
<title>OffsetBox</title>
<g id="a_node2"><a xlink:href="../api/offsetbox_api.html#matplotlib.offsetbox.OffsetBox" xlink:title="The OffsetBox is a simple container artist." target="_top">
<polygon fill="#ffffff" stroke="#000000" stroke-width=".5" points="311,-158 219,-158 219,-132 311,-132 311,-158"/>
<text text-anchor="middle" x="265" y="-141.2" font-family="Vera Sans, DejaVu Sans, Liberation Sans, Arial, Helvetica, sans" font-size="16.00" fill="#000000">OffsetBox</text>
</a>
</g>
</g>
<!-- OffsetBox&#45;&gt;AnchoredOffsetbox -->
<g id="edge1" class="edge">
<title>OffsetBox&#45;&gt;AnchoredOffsetbox</title>
<path fill="none" stroke="#000000" stroke-width=".5" d="M311.0152,-147.4709C327.0927,-150.3921 344.2814,-156.0989 357,-167 389.0848,-194.4998 361.2321,-227.1347 393,-255 395.5886,-257.2706 398.3848,-259.3108 401.3307,-261.1438"/>
<polygon fill="#000000" stroke="#000000" stroke-width=".5" points="400.8654,-262.8937 406.0746,-263.8568 402.603,-259.8554 400.8654,-262.8937"/>
</g>
<!-- AuxTransformBox -->
<g id="node6" class="node">
<title>AuxTransformBox</title>
<g id="a_node6"><a xlink:href="../api/offsetbox_api.html#matplotlib.offsetbox.AuxTransformBox" xlink:title="Offset Box with the aux_transform. Its children will be" target="_top">
<polygon fill="#ffffff" stroke="#000000" stroke-width=".5" points="553,-246 400,-246 400,-220 553,-220 553,-246"/>
<text text-anchor="middle" x="476.5" y="-229.2" font-family="Vera Sans, DejaVu Sans, Liberation Sans, Arial, Helvetica, sans" font-size="16.00" fill="#000000">AuxTransformBox</text>
</a>
</g>
</g>
<!-- OffsetBox&#45;&gt;AuxTransformBox -->
<g id="edge4" class="edge">
<title>OffsetBox&#45;&gt;AuxTransformBox</title>
<path fill="none" stroke="#000000" stroke-width=".5" d="M311.2923,-150.0286C326.685,-153.2251 343.3633,-158.4525 357,-167 378.409,-180.4192 371.746,-197.3366 393,-211 396.9821,-213.5599 401.2523,-215.8231 405.6789,-217.8237"/>
<polygon fill="#000000" stroke="#000000" stroke-width=".5" points="405.2516,-219.5438 410.5375,-219.8931 406.6232,-216.3237 405.2516,-219.5438"/>
</g>
<!-- DrawingArea -->
<g id="node10" class="node">
<title>DrawingArea</title>
<g id="a_node10"><a xlink:href="../api/offsetbox_api.html#matplotlib.offsetbox.DrawingArea" xlink:title="The DrawingArea can contain any Artist as a child. The DrawingArea" target="_top">
<polygon fill="#ffffff" stroke="#000000" stroke-width=".5" points="536,-202 417,-202 417,-176 536,-176 536,-202"/>
<text text-anchor="middle" x="476.5" y="-185.2" font-family="Vera Sans, DejaVu Sans, Liberation Sans, Arial, Helvetica, sans" font-size="16.00" fill="#000000">DrawingArea</text>
</a>
</g>
</g>
<!-- OffsetBox&#45;&gt;DrawingArea -->
<g id="edge7" class="edge">
<title>OffsetBox&#45;&gt;DrawingArea</title>
<path fill="none" stroke="#000000" stroke-width=".5" d="M311.1532,-154.6016C340.5736,-160.7222 379.1313,-168.7436 411.6115,-175.5007"/>
<polygon fill="#000000" stroke="#000000" stroke-width=".5" points="411.5182,-177.2687 416.7699,-176.5739 412.2311,-173.8421 411.5182,-177.2687"/>
</g>
<!-- PackerBase -->
<g id="node12" class="node">
<title>PackerBase</title>
<g id="a_node12"><a xlink:href="../api/offsetbox_api.html#matplotlib.offsetbox.PackerBase" xlink:title="PackerBase" target="_top">
<polygon fill="#ffffff" stroke="#000000" stroke-width=".5" points="530,-158 423,-158 423,-132 530,-132 530,-158"/>
<text text-anchor="middle" x="476.5" y="-141.2" font-family="Vera Sans, DejaVu Sans, Liberation Sans, Arial, Helvetica, sans" font-size="16.00" fill="#000000">PackerBase</text>
</a>
</g>
</g>
<!-- OffsetBox&#45;&gt;PackerBase -->
<g id="edge11" class="edge">
<title>OffsetBox&#45;&gt;PackerBase</title>
<path fill="none" stroke="#000000" stroke-width=".5" d="M311.1532,-145C342.4195,-145 384.0059,-145 417.6499,-145"/>
<polygon fill="#000000" stroke="#000000" stroke-width=".5" points="417.9786,-146.7501 422.9785,-145 417.9785,-143.2501 417.9786,-146.7501"/>
</g>
<!-- OffsetImage -->
<g id="node13" class="node">
<title>OffsetImage</title>
<g id="a_node13"><a xlink:href="../api/offsetbox_api.html#matplotlib.offsetbox.OffsetImage" xlink:title="OffsetImage" target="_top">
<polygon fill="#ffffff" stroke="#000000" stroke-width=".5" points="533,-114 420,-114 420,-88 533,-88 533,-114"/>
<text text-anchor="middle" x="476.5" y="-97.2" font-family="Vera Sans, DejaVu Sans, Liberation Sans, Arial, Helvetica, sans" font-size="16.00" fill="#000000">OffsetImage</text>
</a>
</g>
</g>
<!-- OffsetBox&#45;&gt;OffsetImage -->
<g id="edge10" class="edge">
<title>OffsetBox&#45;&gt;OffsetImage</title>
<path fill="none" stroke="#000000" stroke-width=".5" d="M311.1532,-135.3984C341.4965,-129.0858 381.5596,-120.7512 414.65,-113.8671"/>
<polygon fill="#000000" stroke="#000000" stroke-width=".5" points="415.3597,-115.507 419.8984,-112.7753 414.6468,-112.0804 415.3597,-115.507"/>
</g>
<!-- PaddedBox -->
<g id="node14" class="node">
<title>PaddedBox</title>
<g id="a_node14"><a xlink:href="../api/offsetbox_api.html#matplotlib.offsetbox.PaddedBox" xlink:title="A container to add a padding around an `.Artist`." target="_top">
<polygon fill="#ffffff" stroke="#000000" stroke-width=".5" points="528,-70 425,-70 425,-44 528,-44 528,-70"/>
<text text-anchor="middle" x="476.5" y="-53.2" font-family="Vera Sans, DejaVu Sans, Liberation Sans, Arial, Helvetica, sans" font-size="16.00" fill="#000000">PaddedBox</text>
</a>
</g>
</g>
<!-- OffsetBox&#45;&gt;PaddedBox -->
<g id="edge12" class="edge">
<title>OffsetBox&#45;&gt;PaddedBox</title>
<path fill="none" stroke="#000000" stroke-width=".5" d="M311.2923,-139.9714C326.685,-136.7749 343.3633,-131.5475 357,-123 378.409,-109.5808 371.746,-92.6634 393,-79 401.1612,-73.7534 410.5326,-69.7536 419.9807,-66.7054"/>
<polygon fill="#000000" stroke="#000000" stroke-width=".5" points="420.6514,-68.3304 424.9225,-65.1965 419.6293,-64.9829 420.6514,-68.3304"/>
</g>
<!-- TextArea -->
<g id="node15" class="node">
<title>TextArea</title>
<g id="a_node15"><a xlink:href="../api/offsetbox_api.html#matplotlib.offsetbox.TextArea" xlink:title="The TextArea is contains a single Text instance. The text is" target="_top">
<polygon fill="#ffffff" stroke="#000000" stroke-width=".5" points="519,-26 434,-26 434,0 519,0 519,-26"/>
<text text-anchor="middle" x="476.5" y="-9.2" font-family="Vera Sans, DejaVu Sans, Liberation Sans, Arial, Helvetica, sans" font-size="16.00" fill="#000000">TextArea</text>
</a>
</g>
</g>
<!-- OffsetBox&#45;&gt;TextArea -->
<g id="edge13" class="edge">
<title>OffsetBox&#45;&gt;TextArea</title>
<path fill="none" stroke="#000000" stroke-width=".5" d="M311.0152,-142.5291C327.0927,-139.6079 344.2814,-133.9011 357,-123 389.0848,-95.5002 361.2321,-62.8653 393,-35 402.9493,-26.2729 415.9665,-20.9486 428.7524,-17.7181"/>
<polygon fill="#000000" stroke="#000000" stroke-width=".5" points="429.3503,-19.3758 433.8243,-16.5392 428.5579,-15.9667 429.3503,-19.3758"/>
</g>
<!-- AnnotationBbox -->
<g id="node4" class="node">
<title>AnnotationBbox</title>
<g id="a_node4"><a xlink:href="../api/offsetbox_api.html#matplotlib.offsetbox.AnnotationBbox" xlink:title="Container for an `OffsetBox` referring to a specific position *xy*." target="_top">
<polygon fill="#ffffff" stroke="#000000" stroke-width=".5" points="335,-114 195,-114 195,-88 335,-88 335,-114"/>
<text text-anchor="middle" x="265" y="-97.2" font-family="Vera Sans, DejaVu Sans, Liberation Sans, Arial, Helvetica, sans" font-size="16.00" fill="#000000">AnnotationBbox</text>
</a>
</g>
</g>
<!-- Artist -->
<g id="node5" class="node">
<title>Artist</title>
<g id="a_node5"><a xlink:href="../artist_api.html#matplotlib.artist.Artist" xlink:title="Abstract base class for objects that render into a FigureCanvas." target="_top">
<polygon fill="#ffffff" stroke="#000000" stroke-width=".5" points="98,-136 39,-136 39,-110 98,-110 98,-136"/>
<text text-anchor="middle" x="68.5" y="-119.2" font-family="Vera Sans, DejaVu Sans, Liberation Sans, Arial, Helvetica, sans" font-size="16.00" fill="#000000">Artist</text>
</a>
</g>
</g>
<!-- Artist&#45;&gt;OffsetBox -->
<g id="edge9" class="edge">
<title>Artist&#45;&gt;OffsetBox</title>
<path fill="none" stroke="#000000" stroke-width=".5" d="M98.3441,-126.3413C128.8388,-129.7555 176.7874,-135.1238 213.4402,-139.2274"/>
<polygon fill="#000000" stroke="#000000" stroke-width=".5" points="213.5989,-141.006 218.7626,-139.8233 213.9884,-137.5278 213.5989,-141.006"/>
</g>
<!-- Artist&#45;&gt;AnnotationBbox -->
<g id="edge3" class="edge">
<title>Artist&#45;&gt;AnnotationBbox</title>
<path fill="none" stroke="#000000" stroke-width=".5" d="M98.3441,-119.6587C122.5991,-116.9431 157.8961,-112.9913 189.7685,-109.4229"/>
<polygon fill="#000000" stroke="#000000" stroke-width=".5" points="190.078,-111.1492 194.8522,-108.8537 189.6885,-107.671 190.078,-111.1492"/>
</g>
<!-- DraggableAnnotation -->
<g id="node7" class="node">
<title>DraggableAnnotation</title>
<g id="a_node7"><a xlink:href="../api/offsetbox_api.html#matplotlib.offsetbox.DraggableAnnotation" xlink:title="DraggableAnnotation" target="_top">
<polygon fill="#ffffff" stroke="#000000" stroke-width=".5" points="357,-246 173,-246 173,-220 357,-220 357,-246"/>
<text text-anchor="middle" x="265" y="-229.2" font-family="Vera Sans, DejaVu Sans, Liberation Sans, Arial, Helvetica, sans" font-size="16.00" fill="#000000">DraggableAnnotation</text>
</a>
</g>
</g>
<!-- DraggableBase -->
<g id="node8" class="node">
<title>DraggableBase</title>
<g id="a_node8"><a xlink:href="../api/offsetbox_api.html#matplotlib.offsetbox.DraggableBase" xlink:title="Helper base class for a draggable artist (legend, offsetbox)." target="_top">
<polygon fill="#ffffff" stroke="#000000" stroke-width=".5" points="137,-224 0,-224 0,-198 137,-198 137,-224"/>
<text text-anchor="middle" x="68.5" y="-207.2" font-family="Vera Sans, DejaVu Sans, Liberation Sans, Arial, Helvetica, sans" font-size="16.00" fill="#000000">DraggableBase</text>
</a>
</g>
</g>
<!-- DraggableBase&#45;&gt;DraggableAnnotation -->
<g id="edge5" class="edge">
<title>DraggableBase&#45;&gt;DraggableAnnotation</title>
<path fill="none" stroke="#000000" stroke-width=".5" d="M137.2262,-218.6945C147.1176,-219.802 157.4492,-220.9587 167.7659,-222.1137"/>
<polygon fill="#000000" stroke="#000000" stroke-width=".5" points="167.6635,-223.8631 172.8272,-222.6804 168.053,-220.3849 167.6635,-223.8631"/>
</g>
<!-- DraggableOffsetBox -->
<g id="node9" class="node">
<title>DraggableOffsetBox</title>
<g id="a_node9"><a xlink:href="../api/offsetbox_api.html#matplotlib.offsetbox.DraggableOffsetBox" xlink:title="DraggableOffsetBox" target="_top">
<polygon fill="#ffffff" stroke="#000000" stroke-width=".5" points="352,-202 178,-202 178,-176 352,-176 352,-202"/>
<text text-anchor="middle" x="265" y="-185.2" font-family="Vera Sans, DejaVu Sans, Liberation Sans, Arial, Helvetica, sans" font-size="16.00" fill="#000000">DraggableOffsetBox</text>
</a>
</g>
</g>
<!-- DraggableBase&#45;&gt;DraggableOffsetBox -->
<g id="edge6" class="edge">
<title>DraggableBase&#45;&gt;DraggableOffsetBox</title>
<path fill="none" stroke="#000000" stroke-width=".5" d="M137.2262,-203.3055C148.6532,-202.0261 160.6677,-200.681 172.5679,-199.3486"/>
<polygon fill="#000000" stroke="#000000" stroke-width=".5" points="172.8847,-201.0742 177.659,-198.7786 172.4953,-197.5959 172.8847,-201.0742"/>
</g>
<!-- HPacker -->
<g id="node11" class="node">
<title>HPacker</title>
<g id="a_node11"><a xlink:href="../api/offsetbox_api.html#matplotlib.offsetbox.HPacker" xlink:title="The HPacker has its children packed horizontally. It automatically" target="_top">
<polygon fill="#ffffff" stroke="#000000" stroke-width=".5" points="698,-180 617,-180 617,-154 698,-154 698,-180"/>
<text text-anchor="middle" x="657.5" y="-163.2" font-family="Vera Sans, DejaVu Sans, Liberation Sans, Arial, Helvetica, sans" font-size="16.00" fill="#000000">HPacker</text>
</a>
</g>
</g>
<!-- PackerBase&#45;&gt;HPacker -->
<g id="edge8" class="edge">
<title>PackerBase&#45;&gt;HPacker</title>
<path fill="none" stroke="#000000" stroke-width=".5" d="M530.3159,-151.5412C556.1942,-154.6866 586.8897,-158.4175 611.6413,-161.426"/>
<polygon fill="#000000" stroke="#000000" stroke-width=".5" points="611.6543,-163.1904 616.829,-162.0566 612.0767,-159.716 611.6543,-163.1904"/>
</g>
<!-- VPacker -->
<g id="node16" class="node">
<title>VPacker</title>
<g id="a_node16"><a xlink:href="../api/offsetbox_api.html#matplotlib.offsetbox.VPacker" xlink:title="The VPacker has its children packed vertically. It automatically" target="_top">
<polygon fill="#ffffff" stroke="#000000" stroke-width=".5" points="697.5,-136 617.5,-136 617.5,-110 697.5,-110 697.5,-136"/>
<text text-anchor="middle" x="657.5" y="-119.2" font-family="Vera Sans, DejaVu Sans, Liberation Sans, Arial, Helvetica, sans" font-size="16.00" fill="#000000">VPacker</text>
</a>
</g>
</g>
<!-- PackerBase&#45;&gt;VPacker -->
<g id="edge14" class="edge">
<title>PackerBase&#45;&gt;VPacker</title>
<path fill="none" stroke="#000000" stroke-width=".5" d="M530.3159,-138.4588C556.3888,-135.2898 587.3515,-131.5263 612.1986,-128.5062"/>
<polygon fill="#000000" stroke="#000000" stroke-width=".5" points="612.6516,-130.2141 617.4039,-127.8736 612.2293,-126.7397 612.6516,-130.2141"/>
</g>
</g>
</svg>
