<?xml version="1.0" encoding="UTF-8" standalone="no"?>
<!DOCTYPE svg PUBLIC "-//W3C//DTD SVG 1.1//EN"
 "http://www.w3.org/Graphics/SVG/1.1/DTD/svg11.dtd">
<!-- Generated by graphviz version 2.40.1 (20161225.0304)
 -->
<!-- Title: inheritance796647343e Pages: 1 -->
<svg width="576pt" height="586pt"
 viewBox="0.00 0.00 576.00 586.17" xmlns="http://www.w3.org/2000/svg" xmlns:xlink="http://www.w3.org/1999/xlink">
<g id="graph0" class="graph" transform="scale(.5981 .5981) rotate(0) translate(4 976)">
<title>inheritance796647343e</title>
<!-- AutoLocator -->
<g id="node1" class="node">
<title>AutoLocator</title>
<g id="a_node1"><a xlink:href="../api/ticker_api.html#matplotlib.ticker.AutoLocator" xlink:title="Dynamically find major tick positions. This is actually a subclass" target="_top">
<polygon fill="#ffffff" stroke="#000000" stroke-width=".5" points="663,-972 550,-972 550,-946 663,-946 663,-972"/>
<text text-anchor="middle" x="606.5" y="-955.2" font-family="Vera Sans, DejaVu Sans, Liberation Sans, Arial, Helvetica, sans" font-size="16.00" fill="#000000">AutoLocator</text>
</a>
</g>
</g>
<!-- MaxNLocator -->
<g id="node2" class="node">
<title>MaxNLocator</title>
<g id="a_node2"><a xlink:href="../api/ticker_api.html#matplotlib.ticker.MaxNLocator" xlink:title="Find nice tick locations with no more than N being within the view limits." target="_top">
<polygon fill="#ffffff" stroke="#000000" stroke-width=".5" points="430.5,-950 309.5,-950 309.5,-924 430.5,-924 430.5,-950"/>
<text text-anchor="middle" x="370" y="-933.2" font-family="Vera Sans, DejaVu Sans, Liberation Sans, Arial, Helvetica, sans" font-size="16.00" fill="#000000">MaxNLocator</text>
</a>
</g>
</g>
<!-- MaxNLocator&#45;&gt;AutoLocator -->
<g id="edge1" class="edge">
<title>MaxNLocator&#45;&gt;AutoLocator</title>
<path fill="none" stroke="#000000" stroke-width=".5" d="M430.5975,-942.637C465.5563,-945.889 509.4157,-949.9689 544.5933,-953.2412"/>
<polygon fill="#000000" stroke="#000000" stroke-width=".5" points="544.5778,-954.9973 549.7184,-953.718 544.902,-951.5123 544.5778,-954.9973"/>
</g>
<!-- LogitLocator -->
<g id="node21" class="node">
<title>LogitLocator</title>
<g id="a_node21"><a xlink:href="../api/ticker_api.html#matplotlib.ticker.LogitLocator" xlink:title="Determine the tick locations for logit axes" target="_top">
<polygon fill="#ffffff" stroke="#000000" stroke-width=".5" points="664.5,-928 548.5,-928 548.5,-902 664.5,-902 664.5,-928"/>
<text text-anchor="middle" x="606.5" y="-911.2" font-family="Vera Sans, DejaVu Sans, Liberation Sans, Arial, Helvetica, sans" font-size="16.00" fill="#000000">LogitLocator</text>
</a>
</g>
</g>
<!-- MaxNLocator&#45;&gt;LogitLocator -->
<g id="edge19" class="edge">
<title>MaxNLocator&#45;&gt;LogitLocator</title>
<path fill="none" stroke="#000000" stroke-width=".5" d="M430.5975,-931.363C465.0346,-928.1596 508.1085,-924.1527 543.0125,-920.9058"/>
<polygon fill="#000000" stroke="#000000" stroke-width=".5" points="543.2846,-922.6382 548.101,-920.4325 542.9603,-919.1532 543.2846,-922.6382"/>
</g>
<!-- AutoMinorLocator -->
<g id="node3" class="node">
<title>AutoMinorLocator</title>
<g id="a_node3"><a xlink:href="../api/ticker_api.html#matplotlib.ticker.AutoMinorLocator" xlink:title="Dynamically find minor tick positions based on the positions of" target="_top">
<polygon fill="#ffffff" stroke="#000000" stroke-width=".5" points="448.5,-906 291.5,-906 291.5,-880 448.5,-880 448.5,-906"/>
<text text-anchor="middle" x="370" y="-889.2" font-family="Vera Sans, DejaVu Sans, Liberation Sans, Arial, Helvetica, sans" font-size="16.00" fill="#000000">AutoMinorLocator</text>
</a>
</g>
</g>
<!-- Locator -->
<g id="node4" class="node">
<title>Locator</title>
<g id="a_node4"><a xlink:href="../api/ticker_api.html#matplotlib.ticker.Locator" xlink:title="Determine the tick locations;" target="_top">
<polygon fill="#ffffff" stroke="#000000" stroke-width=".5" points="223,-730 146,-730 146,-704 223,-704 223,-730"/>
<text text-anchor="middle" x="184.5" y="-713.2" font-family="Vera Sans, DejaVu Sans, Liberation Sans, Arial, Helvetica, sans" font-size="16.00" fill="#000000">Locator</text>
</a>
</g>
</g>
<!-- Locator&#45;&gt;MaxNLocator -->
<g id="edge20" class="edge">
<title>Locator&#45;&gt;MaxNLocator</title>
<path fill="none" stroke="#000000" stroke-width=".5" d="M185.9046,-730.0499C190.4727,-765.7199 208.2553,-865.4822 268,-915 278.2815,-923.5215 291.0992,-928.9597 304.14,-932.3835"/>
<polygon fill="#000000" stroke="#000000" stroke-width=".5" points="304.0681,-934.1667 309.3396,-933.6431 304.8921,-930.765 304.0681,-934.1667"/>
</g>
<!-- Locator&#45;&gt;AutoMinorLocator -->
<g id="edge2" class="edge">
<title>Locator&#45;&gt;AutoMinorLocator</title>
<path fill="none" stroke="#000000" stroke-width=".5" d="M187.6329,-730.1937C195.5062,-760.3098 219.0841,-834.3366 268,-871 273.7122,-875.2814 280.0828,-878.7661 286.7736,-881.5978"/>
<polygon fill="#000000" stroke="#000000" stroke-width=".5" points="286.1597,-883.2369 291.4526,-883.4556 287.4514,-879.9839 286.1597,-883.2369"/>
</g>
<!-- FixedLocator -->
<g id="node8" class="node">
<title>FixedLocator</title>
<g id="a_node8"><a xlink:href="../api/ticker_api.html#matplotlib.ticker.FixedLocator" xlink:title="Tick locations are fixed. &#160;If nbins is not None," target="_top">
<polygon fill="#ffffff" stroke="#000000" stroke-width=".5" points="428,-862 312,-862 312,-836 428,-836 428,-862"/>
<text text-anchor="middle" x="370" y="-845.2" font-family="Vera Sans, DejaVu Sans, Liberation Sans, Arial, Helvetica, sans" font-size="16.00" fill="#000000">FixedLocator</text>
</a>
</g>
</g>
<!-- Locator&#45;&gt;FixedLocator -->
<g id="edge5" class="edge">
<title>Locator&#45;&gt;FixedLocator</title>
<path fill="none" stroke="#000000" stroke-width=".5" d="M190.6259,-730.2856C202.1908,-753.7919 229.5732,-802.5337 268,-827 279.6363,-834.4088 293.375,-839.3566 306.9357,-842.6519"/>
<polygon fill="#000000" stroke="#000000" stroke-width=".5" points="306.655,-844.3829 311.9195,-843.7927 307.436,-840.9711 306.655,-844.3829"/>
</g>
<!-- IndexLocator -->
<g id="node13" class="node">
<title>IndexLocator</title>
<g id="a_node13"><a xlink:href="../api/ticker_api.html#matplotlib.ticker.IndexLocator" xlink:title="Place a tick on every multiple of some base number of points" target="_top">
<polygon fill="#ffffff" stroke="#000000" stroke-width=".5" points="429.5,-818 310.5,-818 310.5,-792 429.5,-792 429.5,-818"/>
<text text-anchor="middle" x="370" y="-801.2" font-family="Vera Sans, DejaVu Sans, Liberation Sans, Arial, Helvetica, sans" font-size="16.00" fill="#000000">IndexLocator</text>
</a>
</g>
</g>
<!-- Locator&#45;&gt;IndexLocator -->
<g id="edge10" class="edge">
<title>Locator&#45;&gt;IndexLocator</title>
<path fill="none" stroke="#000000" stroke-width=".5" d="M197.0901,-730.0718C212.4124,-745.1836 239.755,-769.6803 268,-783 279.5719,-788.4571 292.5221,-792.5775 305.2093,-795.6836"/>
<polygon fill="#000000" stroke="#000000" stroke-width=".5" points="304.9761,-797.4264 310.244,-796.8676 305.7775,-794.0194 304.9761,-797.4264"/>
</g>
<!-- LinearLocator -->
<g id="node14" class="node">
<title>LinearLocator</title>
<g id="a_node14"><a xlink:href="../api/ticker_api.html#matplotlib.ticker.LinearLocator" xlink:title="Determine the tick locations" target="_top">
<polygon fill="#ffffff" stroke="#000000" stroke-width=".5" points="433,-774 307,-774 307,-748 433,-748 433,-774"/>
<text text-anchor="middle" x="370" y="-757.2" font-family="Vera Sans, DejaVu Sans, Liberation Sans, Arial, Helvetica, sans" font-size="16.00" fill="#000000">LinearLocator</text>
</a>
</g>
</g>
<!-- Locator&#45;&gt;LinearLocator -->
<g id="edge11" class="edge">
<title>Locator&#45;&gt;LinearLocator</title>
<path fill="none" stroke="#000000" stroke-width=".5" d="M223.0699,-727.5512C237.1719,-731.306 253.2751,-735.4741 268,-739 279.099,-741.6577 290.9126,-744.3396 302.4168,-746.873"/>
<polygon fill="#000000" stroke="#000000" stroke-width=".5" points="302.0665,-748.5877 307.3253,-747.9491 302.8161,-745.1689 302.0665,-748.5877"/>
</g>
<!-- LogLocator -->
<g id="node19" class="node">
<title>LogLocator</title>
<g id="a_node19"><a xlink:href="../api/ticker_api.html#matplotlib.ticker.LogLocator" xlink:title="Determine the tick locations for log axes" target="_top">
<polygon fill="#ffffff" stroke="#000000" stroke-width=".5" points="422.5,-730 317.5,-730 317.5,-704 422.5,-704 422.5,-730"/>
<text text-anchor="middle" x="370" y="-713.2" font-family="Vera Sans, DejaVu Sans, Liberation Sans, Arial, Helvetica, sans" font-size="16.00" fill="#000000">LogLocator</text>
</a>
</g>
</g>
<!-- Locator&#45;&gt;LogLocator -->
<g id="edge17" class="edge">
<title>Locator&#45;&gt;LogLocator</title>
<path fill="none" stroke="#000000" stroke-width=".5" d="M223.3869,-717C249.0906,-717 283.2402,-717 312.1142,-717"/>
<polygon fill="#000000" stroke="#000000" stroke-width=".5" points="312.441,-718.7501 317.4409,-717 312.4409,-715.2501 312.441,-718.7501"/>
</g>
<!-- MultipleLocator -->
<g id="node22" class="node">
<title>MultipleLocator</title>
<g id="a_node22"><a xlink:href="../api/ticker_api.html#matplotlib.ticker.MultipleLocator" xlink:title="Set a tick on each integer multiple of a base within the view interval." target="_top">
<polygon fill="#ffffff" stroke="#000000" stroke-width=".5" points="439.5,-686 300.5,-686 300.5,-660 439.5,-660 439.5,-686"/>
<text text-anchor="middle" x="370" y="-669.2" font-family="Vera Sans, DejaVu Sans, Liberation Sans, Arial, Helvetica, sans" font-size="16.00" fill="#000000">MultipleLocator</text>
</a>
</g>
</g>
<!-- Locator&#45;&gt;MultipleLocator -->
<g id="edge21" class="edge">
<title>Locator&#45;&gt;MultipleLocator</title>
<path fill="none" stroke="#000000" stroke-width=".5" d="M223.0699,-706.4488C237.1719,-702.694 253.2751,-698.5259 268,-695 279.099,-692.3423 290.9126,-689.6604 302.4168,-687.127"/>
<polygon fill="#000000" stroke="#000000" stroke-width=".5" points="302.8161,-688.8311 307.3253,-686.0509 302.0665,-685.4123 302.8161,-688.8311"/>
</g>
<!-- NullLocator -->
<g id="node24" class="node">
<title>NullLocator</title>
<g id="a_node24"><a xlink:href="../api/ticker_api.html#matplotlib.ticker.NullLocator" xlink:title="No ticks" target="_top">
<polygon fill="#ffffff" stroke="#000000" stroke-width=".5" points="423.5,-642 316.5,-642 316.5,-616 423.5,-616 423.5,-642"/>
<text text-anchor="middle" x="370" y="-625.2" font-family="Vera Sans, DejaVu Sans, Liberation Sans, Arial, Helvetica, sans" font-size="16.00" fill="#000000">NullLocator</text>
</a>
</g>
</g>
<!-- Locator&#45;&gt;NullLocator -->
<g id="edge23" class="edge">
<title>Locator&#45;&gt;NullLocator</title>
<path fill="none" stroke="#000000" stroke-width=".5" d="M197.0901,-703.9282C212.4124,-688.8164 239.755,-664.3197 268,-651 281.4697,-644.648 296.8067,-640.1069 311.4227,-636.8687"/>
<polygon fill="#000000" stroke="#000000" stroke-width=".5" points="311.8223,-638.573 316.3481,-635.8198 311.0932,-635.1497 311.8223,-638.573"/>
</g>
<!-- OldAutoLocator -->
<g id="node25" class="node">
<title>OldAutoLocator</title>
<g id="a_node25"><a xlink:href="../api/ticker_api.html#matplotlib.ticker.OldAutoLocator" xlink:title="[*Deprecated*] On autoscale this class picks the best MultipleLocator to set the" target="_top">
<polygon fill="#ffffff" stroke="#000000" stroke-width=".5" points="440,-598 300,-598 300,-572 440,-572 440,-598"/>
<text text-anchor="middle" x="370" y="-581.2" font-family="Vera Sans, DejaVu Sans, Liberation Sans, Arial, Helvetica, sans" font-size="16.00" fill="#000000">OldAutoLocator</text>
</a>
</g>
</g>
<!-- Locator&#45;&gt;OldAutoLocator -->
<g id="edge24" class="edge">
<title>Locator&#45;&gt;OldAutoLocator</title>
<path fill="none" stroke="#000000" stroke-width=".5" d="M190.6259,-703.7144C202.1908,-680.2081 229.5732,-631.4663 268,-607 276.1981,-601.7803 285.4396,-597.7822 294.9273,-594.7228"/>
<polygon fill="#000000" stroke="#000000" stroke-width=".5" points="295.6333,-596.3373 299.907,-593.207 294.614,-592.989 295.6333,-596.3373"/>
</g>
<!-- SymmetricalLogLocator -->
<g id="node30" class="node">
<title>SymmetricalLogLocator</title>
<g id="a_node30"><a xlink:href="../api/ticker_api.html#matplotlib.ticker.SymmetricalLogLocator" xlink:title="Determine the tick locations for symmetric log axes." target="_top">
<polygon fill="#ffffff" stroke="#000000" stroke-width=".5" points="472,-554 268,-554 268,-528 472,-528 472,-554"/>
<text text-anchor="middle" x="370" y="-537.2" font-family="Vera Sans, DejaVu Sans, Liberation Sans, Arial, Helvetica, sans" font-size="16.00" fill="#000000">SymmetricalLogLocator</text>
</a>
</g>
</g>
<!-- Locator&#45;&gt;SymmetricalLogLocator -->
<g id="edge29" class="edge">
<title>Locator&#45;&gt;SymmetricalLogLocator</title>
<path fill="none" stroke="#000000" stroke-width=".5" d="M187.6329,-703.8063C195.5062,-673.6902 219.0841,-599.6634 268,-563 271.1891,-560.6097 274.5833,-558.4678 278.1239,-556.5492"/>
<polygon fill="#000000" stroke="#000000" stroke-width=".5" points="279.3623,-557.8845 283.0372,-554.069 277.785,-554.76 279.3623,-557.8845"/>
</g>
<!-- EngFormatter -->
<g id="node5" class="node">
<title>EngFormatter</title>
<g id="a_node5"><a xlink:href="../api/ticker_api.html#matplotlib.ticker.EngFormatter" xlink:title="Format axis values using engineering prefixes to represent powers" target="_top">
<polygon fill="#ffffff" stroke="#000000" stroke-width=".5" points="432,-510 308,-510 308,-484 432,-484 432,-510"/>
<text text-anchor="middle" x="370" y="-493.2" font-family="Vera Sans, DejaVu Sans, Liberation Sans, Arial, Helvetica, sans" font-size="16.00" fill="#000000">EngFormatter</text>
</a>
</g>
</g>
<!-- Formatter -->
<g id="node6" class="node">
<title>Formatter</title>
<g id="a_node6"><a xlink:href="../api/ticker_api.html#matplotlib.ticker.Formatter" xlink:title="Create a string based on a tick value and location." target="_top">
<polygon fill="#ffffff" stroke="#000000" stroke-width=".5" points="232,-290 137,-290 137,-264 232,-264 232,-290"/>
<text text-anchor="middle" x="184.5" y="-273.2" font-family="Vera Sans, DejaVu Sans, Liberation Sans, Arial, Helvetica, sans" font-size="16.00" fill="#000000">Formatter</text>
</a>
</g>
</g>
<!-- Formatter&#45;&gt;EngFormatter -->
<g id="edge3" class="edge">
<title>Formatter&#45;&gt;EngFormatter</title>
<path fill="none" stroke="#000000" stroke-width=".5" d="M185.9046,-290.0499C190.4727,-325.7199 208.2553,-425.4822 268,-475 277.9121,-483.2154 290.1814,-488.5649 302.7353,-492.0066"/>
<polygon fill="#000000" stroke="#000000" stroke-width=".5" points="302.4679,-493.7442 307.7449,-493.2786 303.3294,-490.3519 302.4679,-493.7442"/>
</g>
<!-- FixedFormatter -->
<g id="node7" class="node">
<title>FixedFormatter</title>
<g id="a_node7"><a xlink:href="../api/ticker_api.html#matplotlib.ticker.FixedFormatter" xlink:title="Return fixed strings for tick labels based only on position, not value." target="_top">
<polygon fill="#ffffff" stroke="#000000" stroke-width=".5" points="437,-466 303,-466 303,-440 437,-440 437,-466"/>
<text text-anchor="middle" x="370" y="-449.2" font-family="Vera Sans, DejaVu Sans, Liberation Sans, Arial, Helvetica, sans" font-size="16.00" fill="#000000">FixedFormatter</text>
</a>
</g>
</g>
<!-- Formatter&#45;&gt;FixedFormatter -->
<g id="edge4" class="edge">
<title>Formatter&#45;&gt;FixedFormatter</title>
<path fill="none" stroke="#000000" stroke-width=".5" d="M187.6329,-290.1937C195.5062,-320.3098 219.0841,-394.3366 268,-431 276.7994,-437.5953 287.1609,-442.2998 297.8488,-445.6394"/>
<polygon fill="#000000" stroke="#000000" stroke-width=".5" points="297.4879,-447.3571 302.778,-447.0797 298.4695,-443.9975 297.4879,-447.3571"/>
</g>
<!-- FormatStrFormatter -->
<g id="node9" class="node">
<title>FormatStrFormatter</title>
<g id="a_node9"><a xlink:href="../api/ticker_api.html#matplotlib.ticker.FormatStrFormatter" xlink:title="Use an old&#45;style (&#39;%&#39; operator) format string to format the tick." target="_top">
<polygon fill="#ffffff" stroke="#000000" stroke-width=".5" points="456.5,-422 283.5,-422 283.5,-396 456.5,-396 456.5,-422"/>
<text text-anchor="middle" x="370" y="-405.2" font-family="Vera Sans, DejaVu Sans, Liberation Sans, Arial, Helvetica, sans" font-size="16.00" fill="#000000">FormatStrFormatter</text>
</a>
</g>
</g>
<!-- Formatter&#45;&gt;FormatStrFormatter -->
<g id="edge6" class="edge">
<title>Formatter&#45;&gt;FormatStrFormatter</title>
<path fill="none" stroke="#000000" stroke-width=".5" d="M190.6259,-290.2856C202.1908,-313.7919 229.5732,-362.5337 268,-387 272.1259,-389.6269 276.5161,-391.9445 281.0689,-393.9887"/>
<polygon fill="#000000" stroke="#000000" stroke-width=".5" points="280.386,-395.5999 285.6723,-395.9431 281.7538,-392.3782 280.386,-395.5999"/>
</g>
<!-- FuncFormatter -->
<g id="node11" class="node">
<title>FuncFormatter</title>
<g id="a_node11"><a xlink:href="../api/ticker_api.html#matplotlib.ticker.FuncFormatter" xlink:title="Use a user&#45;defined function for formatting." target="_top">
<polygon fill="#ffffff" stroke="#000000" stroke-width=".5" points="435.5,-378 304.5,-378 304.5,-352 435.5,-352 435.5,-378"/>
<text text-anchor="middle" x="370" y="-361.2" font-family="Vera Sans, DejaVu Sans, Liberation Sans, Arial, Helvetica, sans" font-size="16.00" fill="#000000">FuncFormatter</text>
</a>
</g>
</g>
<!-- Formatter&#45;&gt;FuncFormatter -->
<g id="edge8" class="edge">
<title>Formatter&#45;&gt;FuncFormatter</title>
<path fill="none" stroke="#000000" stroke-width=".5" d="M197.0901,-290.0718C212.4124,-305.1836 239.755,-329.6803 268,-343 277.8041,-347.6234 288.5976,-351.2874 299.3823,-354.1879"/>
<polygon fill="#000000" stroke="#000000" stroke-width=".5" points="299.0543,-355.9106 304.3332,-355.4676 299.9302,-352.522 299.0543,-355.9106"/>
</g>
<!-- IndexFormatter -->
<g id="node12" class="node">
<title>IndexFormatter</title>
<g id="a_node12"><a xlink:href="../api/ticker_api.html#matplotlib.ticker.IndexFormatter" xlink:title="[*Deprecated*] Format the position x to the nearest i&#45;th label where ``i = int(x + 0.5)``." target="_top">
<polygon fill="#ffffff" stroke="#000000" stroke-width=".5" points="438.5,-334 301.5,-334 301.5,-308 438.5,-308 438.5,-334"/>
<text text-anchor="middle" x="370" y="-317.2" font-family="Vera Sans, DejaVu Sans, Liberation Sans, Arial, Helvetica, sans" font-size="16.00" fill="#000000">IndexFormatter</text>
</a>
</g>
</g>
<!-- Formatter&#45;&gt;IndexFormatter -->
<g id="edge9" class="edge">
<title>Formatter&#45;&gt;IndexFormatter</title>
<path fill="none" stroke="#000000" stroke-width=".5" d="M232.0954,-289.9374C243.8087,-293.0115 256.3367,-296.2072 268,-299 279.099,-301.6577 290.9126,-304.3396 302.4168,-306.873"/>
<polygon fill="#000000" stroke="#000000" stroke-width=".5" points="302.0665,-308.5877 307.3253,-307.9491 302.8161,-305.1689 302.0665,-308.5877"/>
</g>
<!-- LogFormatter -->
<g id="node15" class="node">
<title>LogFormatter</title>
<g id="a_node15"><a xlink:href="../api/ticker_api.html#matplotlib.ticker.LogFormatter" xlink:title="Base class for formatting ticks on a log or symlog scale." target="_top">
<polygon fill="#ffffff" stroke="#000000" stroke-width=".5" points="431.5,-290 308.5,-290 308.5,-264 431.5,-264 431.5,-290"/>
<text text-anchor="middle" x="370" y="-273.2" font-family="Vera Sans, DejaVu Sans, Liberation Sans, Arial, Helvetica, sans" font-size="16.00" fill="#000000">LogFormatter</text>
</a>
</g>
</g>
<!-- Formatter&#45;&gt;LogFormatter -->
<g id="edge13" class="edge">
<title>Formatter&#45;&gt;LogFormatter</title>
<path fill="none" stroke="#000000" stroke-width=".5" d="M232.2709,-277C253.8277,-277 279.6618,-277 303.1018,-277"/>
<polygon fill="#000000" stroke="#000000" stroke-width=".5" points="303.3762,-278.7501 308.3761,-277 303.3761,-275.2501 303.3762,-278.7501"/>
</g>
<!-- LogitFormatter -->
<g id="node20" class="node">
<title>LogitFormatter</title>
<g id="a_node20"><a xlink:href="../api/ticker_api.html#matplotlib.ticker.LogitFormatter" xlink:title="Probability formatter (using Math text)." target="_top">
<polygon fill="#ffffff" stroke="#000000" stroke-width=".5" points="437,-246 303,-246 303,-220 437,-220 437,-246"/>
<text text-anchor="middle" x="370" y="-229.2" font-family="Vera Sans, DejaVu Sans, Liberation Sans, Arial, Helvetica, sans" font-size="16.00" fill="#000000">LogitFormatter</text>
</a>
</g>
</g>
<!-- Formatter&#45;&gt;LogitFormatter -->
<g id="edge18" class="edge">
<title>Formatter&#45;&gt;LogitFormatter</title>
<path fill="none" stroke="#000000" stroke-width=".5" d="M232.0954,-264.0626C243.8087,-260.9885 256.3367,-257.7928 268,-255 279.099,-252.3423 290.9126,-249.6604 302.4168,-247.127"/>
<polygon fill="#000000" stroke="#000000" stroke-width=".5" points="302.8161,-248.8311 307.3253,-246.0509 302.0665,-245.4123 302.8161,-248.8311"/>
</g>
<!-- NullFormatter -->
<g id="node23" class="node">
<title>NullFormatter</title>
<g id="a_node23"><a xlink:href="../api/ticker_api.html#matplotlib.ticker.NullFormatter" xlink:title="Always return the empty string." target="_top">
<polygon fill="#ffffff" stroke="#000000" stroke-width=".5" points="432.5,-202 307.5,-202 307.5,-176 432.5,-176 432.5,-202"/>
<text text-anchor="middle" x="370" y="-185.2" font-family="Vera Sans, DejaVu Sans, Liberation Sans, Arial, Helvetica, sans" font-size="16.00" fill="#000000">NullFormatter</text>
</a>
</g>
</g>
<!-- Formatter&#45;&gt;NullFormatter -->
<g id="edge22" class="edge">
<title>Formatter&#45;&gt;NullFormatter</title>
<path fill="none" stroke="#000000" stroke-width=".5" d="M197.0901,-263.9282C212.4124,-248.8164 239.755,-224.3197 268,-211 278.681,-205.9631 290.5362,-202.0649 302.275,-199.052"/>
<polygon fill="#000000" stroke="#000000" stroke-width=".5" points="302.8594,-200.7104 307.295,-197.8143 302.0214,-197.3122 302.8594,-200.7104"/>
</g>
<!-- OldScalarFormatter -->
<g id="node26" class="node">
<title>OldScalarFormatter</title>
<g id="a_node26"><a xlink:href="../api/ticker_api.html#matplotlib.ticker.OldScalarFormatter" xlink:title="[*Deprecated*] Tick location is a plain old number." target="_top">
<polygon fill="#ffffff" stroke="#000000" stroke-width=".5" points="455.5,-158 284.5,-158 284.5,-132 455.5,-132 455.5,-158"/>
<text text-anchor="middle" x="370" y="-141.2" font-family="Vera Sans, DejaVu Sans, Liberation Sans, Arial, Helvetica, sans" font-size="16.00" fill="#000000">OldScalarFormatter</text>
</a>
</g>
</g>
<!-- Formatter&#45;&gt;OldScalarFormatter -->
<g id="edge25" class="edge">
<title>Formatter&#45;&gt;OldScalarFormatter</title>
<path fill="none" stroke="#000000" stroke-width=".5" d="M190.6259,-263.7144C202.1908,-240.2081 229.5732,-191.4663 268,-167 272.1259,-164.3731 276.5161,-162.0555 281.0689,-160.0113"/>
<polygon fill="#000000" stroke="#000000" stroke-width=".5" points="281.7538,-161.6218 285.6723,-158.0569 280.386,-158.4001 281.7538,-161.6218"/>
</g>
<!-- PercentFormatter -->
<g id="node27" class="node">
<title>PercentFormatter</title>
<g id="a_node27"><a xlink:href="../api/ticker_api.html#matplotlib.ticker.PercentFormatter" xlink:title="Format numbers as a percentage." target="_top">
<polygon fill="#ffffff" stroke="#000000" stroke-width=".5" points="447.5,-114 292.5,-114 292.5,-88 447.5,-88 447.5,-114"/>
<text text-anchor="middle" x="370" y="-97.2" font-family="Vera Sans, DejaVu Sans, Liberation Sans, Arial, Helvetica, sans" font-size="16.00" fill="#000000">PercentFormatter</text>
</a>
</g>
</g>
<!-- Formatter&#45;&gt;PercentFormatter -->
<g id="edge26" class="edge">
<title>Formatter&#45;&gt;PercentFormatter</title>
<path fill="none" stroke="#000000" stroke-width=".5" d="M187.6329,-263.8063C195.5062,-233.6902 219.0841,-159.6634 268,-123 273.9478,-118.542 280.6093,-114.9479 287.6029,-112.0553"/>
<polygon fill="#000000" stroke="#000000" stroke-width=".5" points="288.4616,-113.5995 292.493,-110.1627 287.1984,-110.3354 288.4616,-113.5995"/>
</g>
<!-- ScalarFormatter -->
<g id="node28" class="node">
<title>ScalarFormatter</title>
<g id="a_node28"><a xlink:href="../api/ticker_api.html#matplotlib.ticker.ScalarFormatter" xlink:title="Format tick values as a number." target="_top">
<polygon fill="#ffffff" stroke="#000000" stroke-width=".5" points="442,-70 298,-70 298,-44 442,-44 442,-70"/>
<text text-anchor="middle" x="370" y="-53.2" font-family="Vera Sans, DejaVu Sans, Liberation Sans, Arial, Helvetica, sans" font-size="16.00" fill="#000000">ScalarFormatter</text>
</a>
</g>
</g>
<!-- Formatter&#45;&gt;ScalarFormatter -->
<g id="edge27" class="edge">
<title>Formatter&#45;&gt;ScalarFormatter</title>
<path fill="none" stroke="#000000" stroke-width=".5" d="M185.9046,-263.9501C190.4727,-228.2801 208.2553,-128.5178 268,-79 275.3639,-72.8966 284.0289,-68.375 293.145,-65.0423"/>
<polygon fill="#000000" stroke="#000000" stroke-width=".5" points="293.7802,-66.6747 297.9488,-63.4058 292.6515,-63.3617 293.7802,-66.6747"/>
</g>
<!-- StrMethodFormatter -->
<g id="node29" class="node">
<title>StrMethodFormatter</title>
<g id="a_node29"><a xlink:href="../api/ticker_api.html#matplotlib.ticker.StrMethodFormatter" xlink:title="Use a new&#45;style format string (as used by `str.format`) to format the tick." target="_top">
<polygon fill="#ffffff" stroke="#000000" stroke-width=".5" points="458,-26 282,-26 282,0 458,0 458,-26"/>
<text text-anchor="middle" x="370" y="-9.2" font-family="Vera Sans, DejaVu Sans, Liberation Sans, Arial, Helvetica, sans" font-size="16.00" fill="#000000">StrMethodFormatter</text>
</a>
</g>
</g>
<!-- Formatter&#45;&gt;StrMethodFormatter -->
<g id="edge28" class="edge">
<title>Formatter&#45;&gt;StrMethodFormatter</title>
<path fill="none" stroke="#000000" stroke-width=".5" d="M187.2794,-263.7736C197.1716,-217.9326 232.0044,-66.9218 268,-35 270.8886,-32.4383 274.0032,-30.1507 277.2861,-28.1092"/>
<polygon fill="#000000" stroke="#000000" stroke-width=".5" points="278.4015,-29.4865 281.8618,-25.4753 276.6554,-26.4531 278.4015,-29.4865"/>
</g>
<!-- TickHelper -->
<g id="node10" class="node">
<title>TickHelper</title>
<g id="a_node10"><a xlink:href="../api/ticker_api.html#matplotlib.ticker.TickHelper" xlink:title="TickHelper" target="_top">
<polygon fill="#ffffff" stroke="#000000" stroke-width=".5" points="101,-510 0,-510 0,-484 101,-484 101,-510"/>
<text text-anchor="middle" x="50.5" y="-493.2" font-family="Vera Sans, DejaVu Sans, Liberation Sans, Arial, Helvetica, sans" font-size="16.00" fill="#000000">TickHelper</text>
</a>
</g>
</g>
<!-- TickHelper&#45;&gt;Locator -->
<g id="edge12" class="edge">
<title>TickHelper&#45;&gt;Locator</title>
<path fill="none" stroke="#000000" stroke-width=".5" d="M58.481,-510.1032C81.4763,-547.8566 147.8851,-656.886 173.8838,-699.5705"/>
<polygon fill="#000000" stroke="#000000" stroke-width=".5" points="172.4652,-700.6056 176.5608,-703.9655 175.4544,-698.7849 172.4652,-700.6056"/>
</g>
<!-- TickHelper&#45;&gt;Formatter -->
<g id="edge7" class="edge">
<title>TickHelper&#45;&gt;Formatter</title>
<path fill="none" stroke="#000000" stroke-width=".5" d="M58.481,-483.8968C81.4763,-446.1434 147.8851,-337.114 173.8838,-294.4295"/>
<polygon fill="#000000" stroke="#000000" stroke-width=".5" points="175.4544,-295.2151 176.5608,-290.0345 172.4652,-293.3944 175.4544,-295.2151"/>
</g>
<!-- LogFormatterExponent -->
<g id="node16" class="node">
<title>LogFormatterExponent</title>
<g id="a_node16"><a xlink:href="../api/ticker_api.html#matplotlib.ticker.LogFormatterExponent" xlink:title="Format values for log axis using ``exponent = log_base(value)``." target="_top">
<polygon fill="#ffffff" stroke="#000000" stroke-width=".5" points="705,-312 508,-312 508,-286 705,-286 705,-312"/>
<text text-anchor="middle" x="606.5" y="-295.2" font-family="Vera Sans, DejaVu Sans, Liberation Sans, Arial, Helvetica, sans" font-size="16.00" fill="#000000">LogFormatterExponent</text>
</a>
</g>
</g>
<!-- LogFormatter&#45;&gt;LogFormatterExponent -->
<g id="edge14" class="edge">
<title>LogFormatter&#45;&gt;LogFormatterExponent</title>
<path fill="none" stroke="#000000" stroke-width=".5" d="M431.5202,-282.7228C453.2419,-284.7434 478.3105,-287.0754 502.5639,-289.3315"/>
<polygon fill="#000000" stroke="#000000" stroke-width=".5" points="502.5848,-291.0909 507.7254,-289.8117 502.9091,-287.606 502.5848,-291.0909"/>
</g>
<!-- LogFormatterMathtext -->
<g id="node17" class="node">
<title>LogFormatterMathtext</title>
<g id="a_node17"><a xlink:href="../api/ticker_api.html#matplotlib.ticker.LogFormatterMathtext" xlink:title="Format values for log axis using ``exponent = log_base(value)``." target="_top">
<polygon fill="#ffffff" stroke="#000000" stroke-width=".5" points="703,-268 510,-268 510,-242 703,-242 703,-268"/>
<text text-anchor="middle" x="606.5" y="-251.2" font-family="Vera Sans, DejaVu Sans, Liberation Sans, Arial, Helvetica, sans" font-size="16.00" fill="#000000">LogFormatterMathtext</text>
</a>
</g>
</g>
<!-- LogFormatter&#45;&gt;LogFormatterMathtext -->
<g id="edge15" class="edge">
<title>LogFormatter&#45;&gt;LogFormatterMathtext</title>
<path fill="none" stroke="#000000" stroke-width=".5" d="M431.5202,-271.2772C453.753,-269.209 479.4921,-266.8147 504.2745,-264.5093"/>
<polygon fill="#000000" stroke="#000000" stroke-width=".5" points="504.7303,-266.2246 509.5467,-264.0189 504.406,-262.7396 504.7303,-266.2246"/>
</g>
<!-- LogFormatterSciNotation -->
<g id="node18" class="node">
<title>LogFormatterSciNotation</title>
<g id="a_node18"><a xlink:href="../api/ticker_api.html#matplotlib.ticker.LogFormatterSciNotation" xlink:title="Format values following scientific notation in a logarithmic axis." target="_top">
<polygon fill="#ffffff" stroke="#000000" stroke-width=".5" points="955,-268 741,-268 741,-242 955,-242 955,-268"/>
<text text-anchor="middle" x="848" y="-251.2" font-family="Vera Sans, DejaVu Sans, Liberation Sans, Arial, Helvetica, sans" font-size="16.00" fill="#000000">LogFormatterSciNotation</text>
</a>
</g>
</g>
<!-- LogFormatterMathtext&#45;&gt;LogFormatterSciNotation -->
<g id="edge16" class="edge">
<title>LogFormatterMathtext&#45;&gt;LogFormatterSciNotation</title>
<path fill="none" stroke="#000000" stroke-width=".5" d="M703.3358,-255C713.9363,-255 724.7929,-255 735.5611,-255"/>
<polygon fill="#000000" stroke="#000000" stroke-width=".5" points="735.8386,-256.7501 740.8386,-255 735.8386,-253.2501 735.8386,-256.7501"/>
</g>
</g>
</svg>
