<?xml version="1.0" encoding="UTF-8" standalone="no"?>
<!DOCTYPE svg PUBLIC "-//W3C//DTD SVG 1.1//EN"
 "http://www.w3.org/Graphics/SVG/1.1/DTD/svg11.dtd">
<!-- Generated by graphviz version 2.40.1 (20161225.0304)
 -->
<!-- Title: inheritance276f87eef3 Pages: 1 -->
<svg width="499pt" height="430pt"
 viewBox="0.00 0.00 499.00 430.00" xmlns="http://www.w3.org/2000/svg" xmlns:xlink="http://www.w3.org/1999/xlink">
<g id="graph0" class="graph" transform="scale(1 1) rotate(0) translate(4 426)">
<title>inheritance276f87eef3</title>
<!-- AxesWidget -->
<g id="node1" class="node">
<title>AxesWidget</title>
<g id="a_node1"><a xlink:href="../api/widgets_api.html#matplotlib.widgets.AxesWidget" xlink:title="Widget connected to a single `~matplotlib.axes.Axes`." target="_top">
<polygon fill="#ffffff" stroke="#000000" stroke-width=".5" points="318,-158 209,-158 209,-132 318,-132 318,-158"/>
<text text-anchor="middle" x="263.5" y="-141.2" font-family="Vera Sans, DejaVu Sans, Liberation Sans, Arial, Helvetica, sans" font-size="16.00" fill="#000000">AxesWidget</text>
</a>
</g>
</g>
<!-- Button -->
<g id="node3" class="node">
<title>Button</title>
<g id="a_node3"><a xlink:href="../api/widgets_api.html#matplotlib.widgets.Button" xlink:title="A GUI neutral button." target="_top">
<polygon fill="#ffffff" stroke="#000000" stroke-width=".5" points="462.5,-290 394.5,-290 394.5,-264 462.5,-264 462.5,-290"/>
<text text-anchor="middle" x="428.5" y="-273.2" font-family="Vera Sans, DejaVu Sans, Liberation Sans, Arial, Helvetica, sans" font-size="16.00" fill="#000000">Button</text>
</a>
</g>
</g>
<!-- AxesWidget&#45;&gt;Button -->
<g id="edge2" class="edge">
<title>AxesWidget&#45;&gt;Button</title>
<path fill="none" stroke="#000000" stroke-width=".5" d="M317.3904,-158.1117C321.9679,-160.5812 326.2664,-163.5149 330,-167 360.8908,-195.8347 335.384,-225.8738 366,-255 372.5398,-261.2216 380.9426,-265.6961 389.4518,-268.91"/>
<polygon fill="#000000" stroke="#000000" stroke-width=".5" points="388.8815,-270.5644 394.179,-270.5689 390.0405,-267.2619 388.8815,-270.5644"/>
</g>
<!-- CheckButtons -->
<g id="node4" class="node">
<title>CheckButtons</title>
<g id="a_node4"><a xlink:href="../api/widgets_api.html#matplotlib.widgets.CheckButtons" xlink:title="A GUI neutral set of check buttons." target="_top">
<polygon fill="#ffffff" stroke="#000000" stroke-width=".5" points="491,-246 366,-246 366,-220 491,-220 491,-246"/>
<text text-anchor="middle" x="428.5" y="-229.2" font-family="Vera Sans, DejaVu Sans, Liberation Sans, Arial, Helvetica, sans" font-size="16.00" fill="#000000">CheckButtons</text>
</a>
</g>
</g>
<!-- AxesWidget&#45;&gt;CheckButtons -->
<g id="edge3" class="edge">
<title>AxesWidget&#45;&gt;CheckButtons</title>
<path fill="none" stroke="#000000" stroke-width=".5" d="M313.6475,-158.1187C319.3996,-160.6171 324.9896,-163.5554 330,-167 350.8211,-181.3143 345.3155,-196.4889 366,-211 369.5196,-213.4692 373.3437,-215.6863 377.3084,-217.6723"/>
<polygon fill="#000000" stroke="#000000" stroke-width=".5" points="376.749,-219.3436 382.0172,-219.8988 378.2451,-216.1794 376.749,-219.3436"/>
</g>
<!-- Cursor -->
<g id="node5" class="node">
<title>Cursor</title>
<g id="a_node5"><a xlink:href="../api/widgets_api.html#matplotlib.widgets.Cursor" xlink:title="A crosshair cursor that spans the axes and moves with mouse cursor." target="_top">
<polygon fill="#ffffff" stroke="#000000" stroke-width=".5" points="463,-202 394,-202 394,-176 463,-176 463,-202"/>
<text text-anchor="middle" x="428.5" y="-185.2" font-family="Vera Sans, DejaVu Sans, Liberation Sans, Arial, Helvetica, sans" font-size="16.00" fill="#000000">Cursor</text>
</a>
</g>
</g>
<!-- AxesWidget&#45;&gt;Cursor -->
<g id="edge4" class="edge">
<title>AxesWidget&#45;&gt;Cursor</title>
<path fill="none" stroke="#000000" stroke-width=".5" d="M312.5587,-158.0823C336.8455,-164.5588 365.7867,-172.2765 388.6782,-178.3809"/>
<polygon fill="#000000" stroke="#000000" stroke-width=".5" points="388.4815,-180.1395 393.7636,-179.737 389.3834,-176.7577 388.4815,-180.1395"/>
</g>
<!-- Lasso -->
<g id="node8" class="node">
<title>Lasso</title>
<g id="a_node8"><a xlink:href="../api/widgets_api.html#matplotlib.widgets.Lasso" xlink:title="Selection curve of an arbitrary shape." target="_top">
<polygon fill="#ffffff" stroke="#000000" stroke-width=".5" points="459.5,-158 397.5,-158 397.5,-132 459.5,-132 459.5,-158"/>
<text text-anchor="middle" x="428.5" y="-141.2" font-family="Vera Sans, DejaVu Sans, Liberation Sans, Arial, Helvetica, sans" font-size="16.00" fill="#000000">Lasso</text>
</a>
</g>
</g>
<!-- AxesWidget&#45;&gt;Lasso -->
<g id="edge6" class="edge">
<title>AxesWidget&#45;&gt;Lasso</title>
<path fill="none" stroke="#000000" stroke-width=".5" d="M318.4426,-145C342.7437,-145 370.6487,-145 392.2794,-145"/>
<polygon fill="#000000" stroke="#000000" stroke-width=".5" points="392.3557,-146.7501 397.3557,-145 392.3557,-143.2501 392.3557,-146.7501"/>
</g>
<!-- RadioButtons -->
<g id="node13" class="node">
<title>RadioButtons</title>
<g id="a_node13"><a xlink:href="../api/widgets_api.html#matplotlib.widgets.RadioButtons" xlink:title="A GUI neutral radio button." target="_top">
<polygon fill="#ffffff" stroke="#000000" stroke-width=".5" points="489.5,-114 367.5,-114 367.5,-88 489.5,-88 489.5,-114"/>
<text text-anchor="middle" x="428.5" y="-97.2" font-family="Vera Sans, DejaVu Sans, Liberation Sans, Arial, Helvetica, sans" font-size="16.00" fill="#000000">RadioButtons</text>
</a>
</g>
</g>
<!-- AxesWidget&#45;&gt;RadioButtons -->
<g id="edge8" class="edge">
<title>AxesWidget&#45;&gt;RadioButtons</title>
<path fill="none" stroke="#000000" stroke-width=".5" d="M312.5587,-131.9177C332.0876,-126.71 354.6259,-120.6998 374.6085,-115.3711"/>
<polygon fill="#000000" stroke="#000000" stroke-width=".5" points="375.2501,-117.0112 379.6303,-114.0319 374.3482,-113.6294 375.2501,-117.0112"/>
</g>
<!-- Slider -->
<g id="node14" class="node">
<title>Slider</title>
<g id="a_node14"><a xlink:href="../api/widgets_api.html#matplotlib.widgets.Slider" xlink:title="A slider representing a floating point range." target="_top">
<polygon fill="#ffffff" stroke="#000000" stroke-width=".5" points="459.5,-70 397.5,-70 397.5,-44 459.5,-44 459.5,-70"/>
<text text-anchor="middle" x="428.5" y="-53.2" font-family="Vera Sans, DejaVu Sans, Liberation Sans, Arial, Helvetica, sans" font-size="16.00" fill="#000000">Slider</text>
</a>
</g>
</g>
<!-- AxesWidget&#45;&gt;Slider -->
<g id="edge9" class="edge">
<title>AxesWidget&#45;&gt;Slider</title>
<path fill="none" stroke="#000000" stroke-width=".5" d="M313.6475,-131.8813C319.3996,-129.3829 324.9896,-126.4446 330,-123 350.8211,-108.6857 345.3155,-93.5111 366,-79 373.939,-73.4304 383.4272,-69.1433 392.5832,-65.8979"/>
<polygon fill="#000000" stroke="#000000" stroke-width=".5" points="393.1538,-67.5524 397.331,-64.2945 392.0339,-64.2364 393.1538,-67.5524"/>
</g>
<!-- TextBox -->
<g id="node17" class="node">
<title>TextBox</title>
<g id="a_node17"><a xlink:href="../api/widgets_api.html#matplotlib.widgets.TextBox" xlink:title="A GUI neutral text input box." target="_top">
<polygon fill="#ffffff" stroke="#000000" stroke-width=".5" points="467,-26 390,-26 390,0 467,0 467,-26"/>
<text text-anchor="middle" x="428.5" y="-9.2" font-family="Vera Sans, DejaVu Sans, Liberation Sans, Arial, Helvetica, sans" font-size="16.00" fill="#000000">TextBox</text>
</a>
</g>
</g>
<!-- AxesWidget&#45;&gt;TextBox -->
<g id="edge11" class="edge">
<title>AxesWidget&#45;&gt;TextBox</title>
<path fill="none" stroke="#000000" stroke-width=".5" d="M317.3904,-131.8883C321.9679,-129.4188 326.2664,-126.4851 330,-123 360.8908,-94.1653 335.384,-64.1262 366,-35 371.4173,-29.8463 378.1129,-25.8914 385.0884,-22.8588"/>
<polygon fill="#000000" stroke="#000000" stroke-width=".5" points="385.9644,-24.3928 389.9501,-20.9033 384.6582,-21.1457 385.9644,-24.3928"/>
</g>
<!-- Widget -->
<g id="node2" class="node">
<title>Widget</title>
<g id="a_node2"><a xlink:href="../api/widgets_api.html#matplotlib.widgets.Widget" xlink:title="Abstract base class for GUI neutral widgets" target="_top">
<polygon fill="#ffffff" stroke="#000000" stroke-width=".5" points="116.5,-114 44.5,-114 44.5,-88 116.5,-88 116.5,-114"/>
<text text-anchor="middle" x="80.5" y="-97.2" font-family="Vera Sans, DejaVu Sans, Liberation Sans, Arial, Helvetica, sans" font-size="16.00" fill="#000000">Widget</text>
</a>
</g>
</g>
<!-- Widget&#45;&gt;AxesWidget -->
<g id="edge1" class="edge">
<title>Widget&#45;&gt;AxesWidget</title>
<path fill="none" stroke="#000000" stroke-width=".5" d="M116.6549,-109.693C141.6656,-115.7065 175.5132,-123.8447 204.4089,-130.7923"/>
<polygon fill="#000000" stroke="#000000" stroke-width=".5" points="204.1009,-132.5181 209.3715,-131.9855 204.9192,-129.115 204.1009,-132.5181"/>
</g>
<!-- MultiCursor -->
<g id="node11" class="node">
<title>MultiCursor</title>
<g id="a_node11"><a xlink:href="../api/widgets_api.html#matplotlib.widgets.MultiCursor" xlink:title="Provide a vertical (default) and/or horizontal line cursor shared between" target="_top">
<polygon fill="#ffffff" stroke="#000000" stroke-width=".5" points="317,-114 210,-114 210,-88 317,-88 317,-114"/>
<text text-anchor="middle" x="263.5" y="-97.2" font-family="Vera Sans, DejaVu Sans, Liberation Sans, Arial, Helvetica, sans" font-size="16.00" fill="#000000">MultiCursor</text>
</a>
</g>
</g>
<!-- Widget&#45;&gt;MultiCursor -->
<g id="edge7" class="edge">
<title>Widget&#45;&gt;MultiCursor</title>
<path fill="none" stroke="#000000" stroke-width=".5" d="M116.6549,-101C141.6603,-101 175.4989,-101 204.3906,-101"/>
<polygon fill="#000000" stroke="#000000" stroke-width=".5" points="204.7245,-102.7501 209.7245,-101 204.7245,-99.2501 204.7245,-102.7501"/>
</g>
<!-- SubplotTool -->
<g id="node16" class="node">
<title>SubplotTool</title>
<g id="a_node16"><a xlink:href="../api/widgets_api.html#matplotlib.widgets.SubplotTool" xlink:title="A tool to adjust the subplot params of a `matplotlib.figure.Figure`." target="_top">
<polygon fill="#ffffff" stroke="#000000" stroke-width=".5" points="317,-70 210,-70 210,-44 317,-44 317,-70"/>
<text text-anchor="middle" x="263.5" y="-53.2" font-family="Vera Sans, DejaVu Sans, Liberation Sans, Arial, Helvetica, sans" font-size="16.00" fill="#000000">SubplotTool</text>
</a>
</g>
</g>
<!-- Widget&#45;&gt;SubplotTool -->
<g id="edge10" class="edge">
<title>Widget&#45;&gt;SubplotTool</title>
<path fill="none" stroke="#000000" stroke-width=".5" d="M116.6549,-92.307C141.7641,-86.2698 175.7799,-78.0912 204.75,-71.1257"/>
<polygon fill="#000000" stroke="#000000" stroke-width=".5" points="205.2722,-72.8001 209.7245,-69.9296 204.4539,-69.3971 205.2722,-72.8001"/>
</g>
<!-- EllipseSelector -->
<g id="node6" class="node">
<title>EllipseSelector</title>
<g id="a_node6"><a xlink:href="../api/widgets_api.html#matplotlib.widgets.EllipseSelector" xlink:title="Select an elliptical region of an axes." target="_top">
<polygon fill="#ffffff" stroke="#000000" stroke-width=".5" points="330,-202 197,-202 197,-176 330,-176 330,-202"/>
<text text-anchor="middle" x="263.5" y="-185.2" font-family="Vera Sans, DejaVu Sans, Liberation Sans, Arial, Helvetica, sans" font-size="16.00" fill="#000000">EllipseSelector</text>
</a>
</g>
</g>
<!-- RectangleSelector -->
<g id="node7" class="node">
<title>RectangleSelector</title>
<g id="a_node7"><a xlink:href="../api/widgets_api.html#matplotlib.widgets.RectangleSelector" xlink:title="Select a rectangular region of an axes." target="_top">
<polygon fill="#ffffff" stroke="#000000" stroke-width=".5" points="161,-202 0,-202 0,-176 161,-176 161,-202"/>
<text text-anchor="middle" x="80.5" y="-185.2" font-family="Vera Sans, DejaVu Sans, Liberation Sans, Arial, Helvetica, sans" font-size="16.00" fill="#000000">RectangleSelector</text>
</a>
</g>
</g>
<!-- RectangleSelector&#45;&gt;EllipseSelector -->
<g id="edge5" class="edge">
<title>RectangleSelector&#45;&gt;EllipseSelector</title>
<path fill="none" stroke="#000000" stroke-width=".5" d="M161.0328,-189C171.24,-189 181.632,-189 191.6907,-189"/>
<polygon fill="#000000" stroke="#000000" stroke-width=".5" points="191.9177,-190.7501 196.9177,-189 191.9176,-187.2501 191.9177,-190.7501"/>
</g>
<!-- LassoSelector -->
<g id="node9" class="node">
<title>LassoSelector</title>
<g id="a_node9"><a xlink:href="../api/widgets_api.html#matplotlib.widgets.LassoSelector" xlink:title="Selection curve of an arbitrary shape." target="_top">
<polygon fill="#ffffff" stroke="#000000" stroke-width=".5" points="144,-246 17,-246 17,-220 144,-220 144,-246"/>
<text text-anchor="middle" x="80.5" y="-229.2" font-family="Vera Sans, DejaVu Sans, Liberation Sans, Arial, Helvetica, sans" font-size="16.00" fill="#000000">LassoSelector</text>
</a>
</g>
</g>
<!-- LockDraw -->
<g id="node10" class="node">
<title>LockDraw</title>
<g id="a_node10"><a xlink:href="../api/widgets_api.html#matplotlib.widgets.LockDraw" xlink:title="Some widgets, like the cursor, draw onto the canvas, and this is not" target="_top">
<polygon fill="#ffffff" stroke="#000000" stroke-width=".5" points="128,-290 33,-290 33,-264 128,-264 128,-290"/>
<text text-anchor="middle" x="80.5" y="-273.2" font-family="Vera Sans, DejaVu Sans, Liberation Sans, Arial, Helvetica, sans" font-size="16.00" fill="#000000">LockDraw</text>
</a>
</g>
</g>
<!-- PolygonSelector -->
<g id="node12" class="node">
<title>PolygonSelector</title>
<g id="a_node12"><a xlink:href="../api/widgets_api.html#matplotlib.widgets.PolygonSelector" xlink:title="Select a polygon region of an axes." target="_top">
<polygon fill="#ffffff" stroke="#000000" stroke-width=".5" points="152,-334 9,-334 9,-308 152,-308 152,-334"/>
<text text-anchor="middle" x="80.5" y="-317.2" font-family="Vera Sans, DejaVu Sans, Liberation Sans, Arial, Helvetica, sans" font-size="16.00" fill="#000000">PolygonSelector</text>
</a>
</g>
</g>
<!-- SpanSelector -->
<g id="node15" class="node">
<title>SpanSelector</title>
<g id="a_node15"><a xlink:href="../api/widgets_api.html#matplotlib.widgets.SpanSelector" xlink:title="Visually select a min/max range on a single axis and call a function with" target="_top">
<polygon fill="#ffffff" stroke="#000000" stroke-width=".5" points="141,-378 20,-378 20,-352 141,-352 141,-378"/>
<text text-anchor="middle" x="80.5" y="-361.2" font-family="Vera Sans, DejaVu Sans, Liberation Sans, Arial, Helvetica, sans" font-size="16.00" fill="#000000">SpanSelector</text>
</a>
</g>
</g>
<!-- ToolHandles -->
<g id="node18" class="node">
<title>ToolHandles</title>
<g id="a_node18"><a xlink:href="../api/widgets_api.html#matplotlib.widgets.ToolHandles" xlink:title="Control handles for canvas tools." target="_top">
<polygon fill="#ffffff" stroke="#000000" stroke-width=".5" points="136,-422 25,-422 25,-396 136,-396 136,-422"/>
<text text-anchor="middle" x="80.5" y="-405.2" font-family="Vera Sans, DejaVu Sans, Liberation Sans, Arial, Helvetica, sans" font-size="16.00" fill="#000000">ToolHandles</text>
</a>
</g>
</g>
</g>
</svg>
