<?xml version="1.0" encoding="UTF-8" standalone="no"?>
<!DOCTYPE svg PUBLIC "-//W3C//DTD SVG 1.1//EN"
 "http://www.w3.org/Graphics/SVG/1.1/DTD/svg11.dtd">
<!-- Generated by graphviz version 2.40.1 (20161225.0304)
 -->
<!-- Title: inheritanced42bccc26f Pages: 1 -->
<svg width="576pt" height="154pt"
 viewBox="0.00 0.00 576.00 153.97" xmlns="http://www.w3.org/2000/svg" xmlns:xlink="http://www.w3.org/1999/xlink">
<g id="graph0" class="graph" transform="scale(.9275 .9275) rotate(0) translate(4 162)">
<title>inheritanced42bccc26f</title>
<!-- matplotlib.artist.Artist -->
<g id="node1" class="node">
<title>matplotlib.artist.Artist</title>
<g id="a_node1"><a xlink:href="../artist_api.html#matplotlib.artist.Artist" xlink:title="Abstract base class for objects that render into a FigureCanvas." target="_top">
<polygon fill="#ffffff" stroke="#000000" stroke-width=".5" points="190,-92 0,-92 0,-66 190,-66 190,-92"/>
<text text-anchor="middle" x="95" y="-75.2" font-family="Vera Sans, DejaVu Sans, Liberation Sans, Arial, Helvetica, sans" font-size="16.00" fill="#000000">matplotlib.artist.Artist</text>
</a>
</g>
</g>
<!-- matplotlib.axis.Axis -->
<g id="node2" class="node">
<title>matplotlib.axis.Axis</title>
<g id="a_node2"><a xlink:href="../api/axis_api.html#matplotlib.axis.Axis" xlink:title="Base class for `.XAxis` and `.YAxis`." target="_top">
<polygon fill="#ffffff" stroke="#000000" stroke-width=".5" points="396,-114 226,-114 226,-88 396,-88 396,-114"/>
<text text-anchor="middle" x="311" y="-97.2" font-family="Vera Sans, DejaVu Sans, Liberation Sans, Arial, Helvetica, sans" font-size="16.00" fill="#000000">matplotlib.axis.Axis</text>
</a>
</g>
</g>
<!-- matplotlib.artist.Artist&#45;&gt;matplotlib.axis.Axis -->
<g id="edge1" class="edge">
<title>matplotlib.artist.Artist&#45;&gt;matplotlib.axis.Axis</title>
<path fill="none" stroke="#000000" stroke-width=".5" d="M190.0551,-88.6815C200.1753,-89.7123 210.4494,-90.7587 220.515,-91.7839"/>
<polygon fill="#000000" stroke="#000000" stroke-width=".5" points="220.6061,-93.5522 225.7577,-92.3179 220.9608,-90.0702 220.6061,-93.5522"/>
</g>
<!-- matplotlib.axis.Tick -->
<g id="node3" class="node">
<title>matplotlib.axis.Tick</title>
<g id="a_node3"><a xlink:href="../api/axis_api.html#matplotlib.axis.Tick" xlink:title="Abstract base class for the axis ticks, grid lines and labels." target="_top">
<polygon fill="#ffffff" stroke="#000000" stroke-width=".5" points="396,-70 226,-70 226,-44 396,-44 396,-70"/>
<text text-anchor="middle" x="311" y="-53.2" font-family="Vera Sans, DejaVu Sans, Liberation Sans, Arial, Helvetica, sans" font-size="16.00" fill="#000000">matplotlib.axis.Tick</text>
</a>
</g>
</g>
<!-- matplotlib.artist.Artist&#45;&gt;matplotlib.axis.Tick -->
<g id="edge2" class="edge">
<title>matplotlib.artist.Artist&#45;&gt;matplotlib.axis.Tick</title>
<path fill="none" stroke="#000000" stroke-width=".5" d="M190.0551,-69.3185C200.1753,-68.2877 210.4494,-67.2413 220.515,-66.2161"/>
<polygon fill="#000000" stroke="#000000" stroke-width=".5" points="220.9608,-67.9298 225.7577,-65.6821 220.6061,-64.4478 220.9608,-67.9298"/>
</g>
<!-- matplotlib.axis.XAxis -->
<g id="node5" class="node">
<title>matplotlib.axis.XAxis</title>
<g id="a_node5"><a xlink:href="../api/axis_api.html#matplotlib.axis.XAxis" xlink:title="matplotlib.axis.XAxis" target="_top">
<polygon fill="#ffffff" stroke="#000000" stroke-width=".5" points="613,-158 432,-158 432,-132 613,-132 613,-158"/>
<text text-anchor="middle" x="522.5" y="-141.2" font-family="Vera Sans, DejaVu Sans, Liberation Sans, Arial, Helvetica, sans" font-size="16.00" fill="#000000">matplotlib.axis.XAxis</text>
</a>
</g>
</g>
<!-- matplotlib.axis.Axis&#45;&gt;matplotlib.axis.XAxis -->
<g id="edge3" class="edge">
<title>matplotlib.axis.Axis&#45;&gt;matplotlib.axis.XAxis</title>
<path fill="none" stroke="#000000" stroke-width=".5" d="M373.5985,-114.0229C399.0642,-119.3207 428.5596,-125.4568 454.548,-130.8634"/>
<polygon fill="#000000" stroke="#000000" stroke-width=".5" points="454.445,-132.6294 459.6966,-131.9345 455.1579,-129.2027 454.445,-132.6294"/>
</g>
<!-- matplotlib.axis.YAxis -->
<g id="node7" class="node">
<title>matplotlib.axis.YAxis</title>
<g id="a_node7"><a xlink:href="../api/axis_api.html#matplotlib.axis.YAxis" xlink:title="matplotlib.axis.YAxis" target="_top">
<polygon fill="#ffffff" stroke="#000000" stroke-width=".5" points="612,-114 433,-114 433,-88 612,-88 612,-114"/>
<text text-anchor="middle" x="522.5" y="-97.2" font-family="Vera Sans, DejaVu Sans, Liberation Sans, Arial, Helvetica, sans" font-size="16.00" fill="#000000">matplotlib.axis.YAxis</text>
</a>
</g>
</g>
<!-- matplotlib.axis.Axis&#45;&gt;matplotlib.axis.YAxis -->
<g id="edge5" class="edge">
<title>matplotlib.axis.Axis&#45;&gt;matplotlib.axis.YAxis</title>
<path fill="none" stroke="#000000" stroke-width=".5" d="M396.1109,-101C406.4685,-101 417.101,-101 427.5897,-101"/>
<polygon fill="#000000" stroke="#000000" stroke-width=".5" points="427.7253,-102.7501 432.7253,-101 427.7253,-99.2501 427.7253,-102.7501"/>
</g>
<!-- matplotlib.axis.XTick -->
<g id="node6" class="node">
<title>matplotlib.axis.XTick</title>
<g id="a_node6"><a xlink:href="../api/axis_api.html#matplotlib.axis.XTick" xlink:title="Contains all the Artists needed to make an x tick &#45; the tick line," target="_top">
<polygon fill="#ffffff" stroke="#000000" stroke-width=".5" points="612.5,-70 432.5,-70 432.5,-44 612.5,-44 612.5,-70"/>
<text text-anchor="middle" x="522.5" y="-53.2" font-family="Vera Sans, DejaVu Sans, Liberation Sans, Arial, Helvetica, sans" font-size="16.00" fill="#000000">matplotlib.axis.XTick</text>
</a>
</g>
</g>
<!-- matplotlib.axis.Tick&#45;&gt;matplotlib.axis.XTick -->
<g id="edge4" class="edge">
<title>matplotlib.axis.Tick&#45;&gt;matplotlib.axis.XTick</title>
<path fill="none" stroke="#000000" stroke-width=".5" d="M396.1109,-57C406.3699,-57 416.8985,-57 427.29,-57"/>
<polygon fill="#000000" stroke="#000000" stroke-width=".5" points="427.3785,-58.7501 432.3784,-57 427.3784,-55.2501 427.3785,-58.7501"/>
</g>
<!-- matplotlib.axis.YTick -->
<g id="node8" class="node">
<title>matplotlib.axis.YTick</title>
<g id="a_node8"><a xlink:href="../api/axis_api.html#matplotlib.axis.YTick" xlink:title="Contains all the Artists needed to make a Y tick &#45; the tick line," target="_top">
<polygon fill="#ffffff" stroke="#000000" stroke-width=".5" points="612,-26 433,-26 433,0 612,0 612,-26"/>
<text text-anchor="middle" x="522.5" y="-9.2" font-family="Vera Sans, DejaVu Sans, Liberation Sans, Arial, Helvetica, sans" font-size="16.00" fill="#000000">matplotlib.axis.YTick</text>
</a>
</g>
</g>
<!-- matplotlib.axis.Tick&#45;&gt;matplotlib.axis.YTick -->
<g id="edge6" class="edge">
<title>matplotlib.axis.Tick&#45;&gt;matplotlib.axis.YTick</title>
<path fill="none" stroke="#000000" stroke-width=".5" d="M373.5985,-43.9771C399.0642,-38.6793 428.5596,-32.5432 454.548,-27.1366"/>
<polygon fill="#000000" stroke="#000000" stroke-width=".5" points="455.1579,-28.7973 459.6966,-26.0655 454.445,-25.3706 455.1579,-28.7973"/>
</g>
<!-- matplotlib.axis.Ticker -->
<g id="node4" class="node">
<title>matplotlib.axis.Ticker</title>
<g id="a_node4"><a xlink:href="../api/axis_api.html#matplotlib.axis.Ticker" xlink:title="A container for the objects defining tick position and format." target="_top">
<polygon fill="#ffffff" stroke="#000000" stroke-width=".5" points="187.5,-136 2.5,-136 2.5,-110 187.5,-110 187.5,-136"/>
<text text-anchor="middle" x="95" y="-119.2" font-family="Vera Sans, DejaVu Sans, Liberation Sans, Arial, Helvetica, sans" font-size="16.00" fill="#000000">matplotlib.axis.Ticker</text>
</a>
</g>
</g>
</g>
</svg>
