<?xml version="1.0" encoding="UTF-8" standalone="no"?>
<!DOCTYPE svg PUBLIC "-//W3C//DTD SVG 1.1//EN"
 "http://www.w3.org/Graphics/SVG/1.1/DTD/svg11.dtd">
<!-- Generated by graphviz version 2.40.1 (20161225.0304)
 -->
<!-- Title: inheritance552e017e23 Pages: 1 -->
<svg width="576pt" height="25pt"
 viewBox="0.00 0.00 576.00 25.24" xmlns="http://www.w3.org/2000/svg" xmlns:xlink="http://www.w3.org/1999/xlink">
<g id="graph0" class="graph" transform="scale(.7423 .7423) rotate(0) translate(4 30)">
<title>inheritance552e017e23</title>
<!-- matplotlib.artist.Artist -->
<g id="node1" class="node">
<title>matplotlib.artist.Artist</title>
<g id="a_node1"><a xlink:href="../artist_api.html#matplotlib.artist.Artist" xlink:title="Abstract base class for objects that render into a FigureCanvas." target="_top">
<polygon fill="#ffffff" stroke="#000000" stroke-width=".5" points="190,-26 0,-26 0,0 190,0 190,-26"/>
<text text-anchor="middle" x="95" y="-9.2" font-family="Vera Sans, DejaVu Sans, Liberation Sans, Arial, Helvetica, sans" font-size="16.00" fill="#000000">matplotlib.artist.Artist</text>
</a>
</g>
</g>
<!-- matplotlib.axes._base._AxesBase -->
<g id="node3" class="node">
<title>matplotlib.axes._base._AxesBase</title>
<polygon fill="#ffffff" stroke="#000000" stroke-width=".5" points="503,-26 226,-26 226,0 503,0 503,-26"/>
<text text-anchor="middle" x="364.5" y="-9.2" font-family="Vera Sans, DejaVu Sans, Liberation Sans, Arial, Helvetica, sans" font-size="16.00" fill="#000000">matplotlib.axes._base._AxesBase</text>
</g>
<!-- matplotlib.artist.Artist&#45;&gt;matplotlib.axes._base._AxesBase -->
<g id="edge2" class="edge">
<title>matplotlib.artist.Artist&#45;&gt;matplotlib.axes._base._AxesBase</title>
<path fill="none" stroke="#000000" stroke-width=".5" d="M190.0156,-13C200.0436,-13 210.394,-13 220.816,-13"/>
<polygon fill="#000000" stroke="#000000" stroke-width=".5" points="220.9369,-14.7501 225.9369,-13 220.9368,-11.2501 220.9369,-14.7501"/>
</g>
<!-- matplotlib.axes._axes.Axes -->
<g id="node2" class="node">
<title>matplotlib.axes._axes.Axes</title>
<g id="a_node2"><a xlink:title="The `Axes` contains most of the figure elements: `~.axis.Axis`,">
<polygon fill="#ffffff" stroke="#000000" stroke-width=".5" points="768,-26 539,-26 539,0 768,0 768,-26"/>
<text text-anchor="middle" x="653.5" y="-9.2" font-family="Vera Sans, DejaVu Sans, Liberation Sans, Arial, Helvetica, sans" font-size="16.00" fill="#000000">matplotlib.axes._axes.Axes</text>
</a>
</g>
</g>
<!-- matplotlib.axes._base._AxesBase&#45;&gt;matplotlib.axes._axes.Axes -->
<g id="edge1" class="edge">
<title>matplotlib.axes._base._AxesBase&#45;&gt;matplotlib.axes._axes.Axes</title>
<path fill="none" stroke="#000000" stroke-width=".5" d="M503.0747,-13C513.3136,-13 523.5923,-13 533.7045,-13"/>
<polygon fill="#000000" stroke="#000000" stroke-width=".5" points="533.9764,-14.7501 538.9764,-13 533.9763,-11.2501 533.9764,-14.7501"/>
</g>
</g>
</svg>
