<?xml version="1.0" encoding="UTF-8" standalone="no"?>
<!DOCTYPE svg PUBLIC "-//W3C//DTD SVG 1.1//EN"
 "http://www.w3.org/Graphics/SVG/1.1/DTD/svg11.dtd">
<!-- Generated by graphviz version 2.40.1 (20161225.0304)
 -->
<!-- Title: inheritancedbde0cb62f Pages: 1 -->
<svg width="576pt" height="241pt"
 viewBox="0.00 0.00 576.00 241.20" xmlns="http://www.w3.org/2000/svg" xmlns:xlink="http://www.w3.org/1999/xlink">
<g id="graph0" class="graph" transform="scale(.4656 .4656) rotate(0) translate(4 514)">
<title>inheritancedbde0cb62f</title>
<!-- Affine2D -->
<g id="node1" class="node">
<title>Affine2D</title>
<g id="a_node1"><a xlink:href="../api/transformations.html#matplotlib.transforms.Affine2D" xlink:title="A mutable 2D affine transformation." target="_top">
<polygon fill="#ffffff" stroke="#000000" stroke-width=".5" points="925.5,-510 842.5,-510 842.5,-484 925.5,-484 925.5,-510"/>
<text text-anchor="middle" x="884" y="-493.2" font-family="Vera Sans, DejaVu Sans, Liberation Sans, Arial, Helvetica, sans" font-size="16.00" fill="#000000">Affine2D</text>
</a>
</g>
</g>
<!-- Affine2DBase -->
<g id="node2" class="node">
<title>Affine2DBase</title>
<g id="a_node2"><a xlink:href="../api/transformations.html#matplotlib.transforms.Affine2DBase" xlink:title="The base class of all 2D affine transformations." target="_top">
<polygon fill="#ffffff" stroke="#000000" stroke-width=".5" points="757,-334 635,-334 635,-308 757,-308 757,-334"/>
<text text-anchor="middle" x="696" y="-317.2" font-family="Vera Sans, DejaVu Sans, Liberation Sans, Arial, Helvetica, sans" font-size="16.00" fill="#000000">Affine2DBase</text>
</a>
</g>
</g>
<!-- Affine2DBase&#45;&gt;Affine2D -->
<g id="edge1" class="edge">
<title>Affine2DBase&#45;&gt;Affine2D</title>
<path fill="none" stroke="#000000" stroke-width=".5" d="M700.3654,-334.1394C711.0385,-364.1415 741.4187,-437.9451 793,-475 805.8087,-484.2015 821.981,-489.5883 837.1269,-492.7303"/>
<polygon fill="#000000" stroke="#000000" stroke-width=".5" points="836.9767,-494.4835 842.2177,-493.712 837.6395,-491.0468 836.9767,-494.4835"/>
</g>
<!-- AffineDeltaTransform -->
<g id="node5" class="node">
<title>AffineDeltaTransform</title>
<g id="a_node5"><a xlink:href="../api/transformations.html#matplotlib.transforms.AffineDeltaTransform" xlink:title="A transform wrapper for transforming displacements between pairs of points." target="_top">
<polygon fill="#ffffff" stroke="#000000" stroke-width=".5" points="975,-466 793,-466 793,-440 975,-440 975,-466"/>
<text text-anchor="middle" x="884" y="-449.2" font-family="Vera Sans, DejaVu Sans, Liberation Sans, Arial, Helvetica, sans" font-size="16.00" fill="#000000">AffineDeltaTransform</text>
</a>
</g>
</g>
<!-- Affine2DBase&#45;&gt;AffineDeltaTransform -->
<g id="edge4" class="edge">
<title>Affine2DBase&#45;&gt;AffineDeltaTransform</title>
<path fill="none" stroke="#000000" stroke-width=".5" d="M703.7569,-334.1826C718.2074,-357.5256 751.5728,-406.0171 793,-431 797.3844,-433.644 802.0676,-435.9705 806.9097,-438.0174"/>
<polygon fill="#000000" stroke="#000000" stroke-width=".5" points="806.5072,-439.7412 811.7996,-439.9727 807.8067,-436.4913 806.5072,-439.7412"/>
</g>
<!-- BboxTransform -->
<g id="node9" class="node">
<title>BboxTransform</title>
<g id="a_node9"><a xlink:href="../api/transformations.html#matplotlib.transforms.BboxTransform" xlink:title="`BboxTransform` linearly transforms points from one `Bbox` to another." target="_top">
<polygon fill="#ffffff" stroke="#000000" stroke-width=".5" points="951,-422 817,-422 817,-396 951,-396 951,-422"/>
<text text-anchor="middle" x="884" y="-405.2" font-family="Vera Sans, DejaVu Sans, Liberation Sans, Arial, Helvetica, sans" font-size="16.00" fill="#000000">BboxTransform</text>
</a>
</g>
</g>
<!-- Affine2DBase&#45;&gt;BboxTransform -->
<g id="edge7" class="edge">
<title>Affine2DBase&#45;&gt;BboxTransform</title>
<path fill="none" stroke="#000000" stroke-width=".5" d="M711.4162,-334.118C729.7188,-349.0405 761.7174,-373.13 793,-387 799.1571,-389.7299 805.7052,-392.1525 812.3564,-394.2957"/>
<polygon fill="#000000" stroke="#000000" stroke-width=".5" points="812.1638,-396.0683 817.4579,-395.8806 813.2022,-392.7259 812.1638,-396.0683"/>
</g>
<!-- BboxTransformFrom -->
<g id="node10" class="node">
<title>BboxTransformFrom</title>
<g id="a_node10"><a xlink:href="../api/transformations.html#matplotlib.transforms.BboxTransformFrom" xlink:title="`BboxTransformFrom` linearly transforms points from a given `Bbox` to the" target="_top">
<polygon fill="#ffffff" stroke="#000000" stroke-width=".5" points="970.5,-378 797.5,-378 797.5,-352 970.5,-352 970.5,-378"/>
<text text-anchor="middle" x="884" y="-361.2" font-family="Vera Sans, DejaVu Sans, Liberation Sans, Arial, Helvetica, sans" font-size="16.00" fill="#000000">BboxTransformFrom</text>
</a>
</g>
</g>
<!-- Affine2DBase&#45;&gt;BboxTransformFrom -->
<g id="edge8" class="edge">
<title>Affine2DBase&#45;&gt;BboxTransformFrom</title>
<path fill="none" stroke="#000000" stroke-width=".5" d="M751.6431,-334.0229C774.0907,-339.2765 800.0607,-345.3546 823.02,-350.7281"/>
<polygon fill="#000000" stroke="#000000" stroke-width=".5" points="822.9075,-352.499 828.1748,-351.9345 823.7052,-349.0911 822.9075,-352.499"/>
</g>
<!-- BboxTransformTo -->
<g id="node11" class="node">
<title>BboxTransformTo</title>
<g id="a_node11"><a xlink:href="../api/transformations.html#matplotlib.transforms.BboxTransformTo" xlink:title="`BboxTransformTo` is a transformation that linearly transforms points from" target="_top">
<polygon fill="#ffffff" stroke="#000000" stroke-width=".5" points="959,-334 809,-334 809,-308 959,-308 959,-334"/>
<text text-anchor="middle" x="884" y="-317.2" font-family="Vera Sans, DejaVu Sans, Liberation Sans, Arial, Helvetica, sans" font-size="16.00" fill="#000000">BboxTransformTo</text>
</a>
</g>
</g>
<!-- Affine2DBase&#45;&gt;BboxTransformTo -->
<g id="edge9" class="edge">
<title>Affine2DBase&#45;&gt;BboxTransformTo</title>
<path fill="none" stroke="#000000" stroke-width=".5" d="M757.0382,-321C771.8726,-321 787.961,-321 803.5424,-321"/>
<polygon fill="#000000" stroke="#000000" stroke-width=".5" points="803.8046,-322.7501 808.8045,-321 803.8045,-319.2501 803.8046,-322.7501"/>
</g>
<!-- BlendedAffine2D -->
<g id="node13" class="node">
<title>BlendedAffine2D</title>
<g id="a_node13"><a xlink:href="../api/transformations.html#matplotlib.transforms.BlendedAffine2D" xlink:title="A &quot;blended&quot; transform uses one transform for the *x*&#45;direction, and" target="_top">
<polygon fill="#ffffff" stroke="#000000" stroke-width=".5" points="957.5,-290 810.5,-290 810.5,-264 957.5,-264 957.5,-290"/>
<text text-anchor="middle" x="884" y="-273.2" font-family="Vera Sans, DejaVu Sans, Liberation Sans, Arial, Helvetica, sans" font-size="16.00" fill="#000000">BlendedAffine2D</text>
</a>
</g>
</g>
<!-- Affine2DBase&#45;&gt;BlendedAffine2D -->
<g id="edge11" class="edge">
<title>Affine2DBase&#45;&gt;BlendedAffine2D</title>
<path fill="none" stroke="#000000" stroke-width=".5" d="M751.6431,-307.9771C774.0907,-302.7235 800.0607,-296.6454 823.02,-291.2719"/>
<polygon fill="#000000" stroke="#000000" stroke-width=".5" points="823.7052,-292.9089 828.1748,-290.0655 822.9075,-289.501 823.7052,-292.9089"/>
</g>
<!-- CompositeAffine2D -->
<g id="node15" class="node">
<title>CompositeAffine2D</title>
<g id="a_node15"><a xlink:href="../api/transformations.html#matplotlib.transforms.CompositeAffine2D" xlink:title="A composite transform formed by applying transform *a* then transform *b*." target="_top">
<polygon fill="#ffffff" stroke="#000000" stroke-width=".5" points="967.5,-246 800.5,-246 800.5,-220 967.5,-220 967.5,-246"/>
<text text-anchor="middle" x="884" y="-229.2" font-family="Vera Sans, DejaVu Sans, Liberation Sans, Arial, Helvetica, sans" font-size="16.00" fill="#000000">CompositeAffine2D</text>
</a>
</g>
</g>
<!-- Affine2DBase&#45;&gt;CompositeAffine2D -->
<g id="edge13" class="edge">
<title>Affine2DBase&#45;&gt;CompositeAffine2D</title>
<path fill="none" stroke="#000000" stroke-width=".5" d="M711.4162,-307.882C729.7188,-292.9595 761.7174,-268.87 793,-255 799.1571,-252.2701 805.7052,-249.8475 812.3564,-247.7043"/>
<polygon fill="#000000" stroke="#000000" stroke-width=".5" points="813.2022,-249.2741 817.4579,-246.1194 812.1638,-245.9317 813.2022,-249.2741"/>
</g>
<!-- IdentityTransform -->
<g id="node17" class="node">
<title>IdentityTransform</title>
<g id="a_node17"><a xlink:href="../api/transformations.html#matplotlib.transforms.IdentityTransform" xlink:title="A special class that does one thing, the identity transform, in a" target="_top">
<polygon fill="#ffffff" stroke="#000000" stroke-width=".5" points="961.5,-202 806.5,-202 806.5,-176 961.5,-176 961.5,-202"/>
<text text-anchor="middle" x="884" y="-185.2" font-family="Vera Sans, DejaVu Sans, Liberation Sans, Arial, Helvetica, sans" font-size="16.00" fill="#000000">IdentityTransform</text>
</a>
</g>
</g>
<!-- Affine2DBase&#45;&gt;IdentityTransform -->
<g id="edge15" class="edge">
<title>Affine2DBase&#45;&gt;IdentityTransform</title>
<path fill="none" stroke="#000000" stroke-width=".5" d="M703.7569,-307.8174C718.2074,-284.4744 751.5728,-235.9829 793,-211 797.3844,-208.356 802.0676,-206.0295 806.9097,-203.9826"/>
<polygon fill="#000000" stroke="#000000" stroke-width=".5" points="807.8067,-205.5087 811.7996,-202.0273 806.5072,-202.2588 807.8067,-205.5087"/>
</g>
<!-- ScaledTranslation -->
<g id="node20" class="node">
<title>ScaledTranslation</title>
<g id="a_node20"><a xlink:href="../api/transformations.html#matplotlib.transforms.ScaledTranslation" xlink:title="A transformation that translates by *xt* and *yt*, after *xt* and *yt*" target="_top">
<polygon fill="#ffffff" stroke="#000000" stroke-width=".5" points="961.5,-158 806.5,-158 806.5,-132 961.5,-132 961.5,-158"/>
<text text-anchor="middle" x="884" y="-141.2" font-family="Vera Sans, DejaVu Sans, Liberation Sans, Arial, Helvetica, sans" font-size="16.00" fill="#000000">ScaledTranslation</text>
</a>
</g>
</g>
<!-- Affine2DBase&#45;&gt;ScaledTranslation -->
<g id="edge17" class="edge">
<title>Affine2DBase&#45;&gt;ScaledTranslation</title>
<path fill="none" stroke="#000000" stroke-width=".5" d="M700.3654,-307.8606C711.0385,-277.8585 741.4187,-204.0549 793,-167 796.5105,-164.4781 800.2737,-162.2428 804.1992,-160.2616"/>
<polygon fill="#000000" stroke="#000000" stroke-width=".5" points="805.1039,-161.7697 808.8765,-158.0508 803.6082,-158.6054 805.1039,-161.7697"/>
</g>
<!-- AffineBase -->
<g id="node3" class="node">
<title>AffineBase</title>
<g id="a_node3"><a xlink:href="../api/transformations.html#matplotlib.transforms.AffineBase" xlink:title="The base class of all affine transformations of any number of dimensions." target="_top">
<polygon fill="#ffffff" stroke="#000000" stroke-width=".5" points="528.5,-334 428.5,-334 428.5,-308 528.5,-308 528.5,-334"/>
<text text-anchor="middle" x="478.5" y="-317.2" font-family="Vera Sans, DejaVu Sans, Liberation Sans, Arial, Helvetica, sans" font-size="16.00" fill="#000000">AffineBase</text>
</a>
</g>
</g>
<!-- AffineBase&#45;&gt;Affine2DBase -->
<g id="edge2" class="edge">
<title>AffineBase&#45;&gt;Affine2DBase</title>
<path fill="none" stroke="#000000" stroke-width=".5" d="M528.672,-321C558.6812,-321 597.1729,-321 629.671,-321"/>
<polygon fill="#000000" stroke="#000000" stroke-width=".5" points="629.8331,-322.7501 634.8331,-321 629.833,-319.2501 629.8331,-322.7501"/>
</g>
<!-- Transform -->
<g id="node4" class="node">
<title>Transform</title>
<g id="a_node4"><a xlink:href="../api/transformations.html#matplotlib.transforms.Transform" xlink:title="The base class of all `TransformNode` instances that" target="_top">
<polygon fill="#ffffff" stroke="#000000" stroke-width=".5" points="295,-246 200,-246 200,-220 295,-220 295,-246"/>
<text text-anchor="middle" x="247.5" y="-229.2" font-family="Vera Sans, DejaVu Sans, Liberation Sans, Arial, Helvetica, sans" font-size="16.00" fill="#000000">Transform</text>
</a>
</g>
</g>
<!-- Transform&#45;&gt;AffineBase -->
<g id="edge3" class="edge">
<title>Transform&#45;&gt;AffineBase</title>
<path fill="none" stroke="#000000" stroke-width=".5" d="M264.864,-246.0836C285.8167,-261.2067 322.6503,-285.7144 358,-299 378.7327,-306.792 402.5404,-311.8853 423.4896,-315.1859"/>
<polygon fill="#000000" stroke="#000000" stroke-width=".5" points="423.2631,-316.9215 428.4698,-315.9457 423.7909,-313.4616 423.2631,-316.9215"/>
</g>
<!-- BlendedGenericTransform -->
<g id="node14" class="node">
<title>BlendedGenericTransform</title>
<g id="a_node14"><a xlink:href="../api/transformations.html#matplotlib.transforms.BlendedGenericTransform" xlink:title="A &quot;blended&quot; transform uses one transform for the *x*&#45;direction, and" target="_top">
<polygon fill="#ffffff" stroke="#000000" stroke-width=".5" points="589,-290 368,-290 368,-264 589,-264 589,-290"/>
<text text-anchor="middle" x="478.5" y="-273.2" font-family="Vera Sans, DejaVu Sans, Liberation Sans, Arial, Helvetica, sans" font-size="16.00" fill="#000000">BlendedGenericTransform</text>
</a>
</g>
</g>
<!-- Transform&#45;&gt;BlendedGenericTransform -->
<g id="edge12" class="edge">
<title>Transform&#45;&gt;BlendedGenericTransform</title>
<path fill="none" stroke="#000000" stroke-width=".5" d="M295.0589,-242.6413C314.5521,-246.548 337.3451,-251.0586 358,-255 371.8602,-257.6448 386.6305,-260.3965 400.9081,-263.0221"/>
<polygon fill="#000000" stroke="#000000" stroke-width=".5" points="400.9095,-264.8015 406.1434,-263.9832 401.5416,-261.3591 400.9095,-264.8015"/>
</g>
<!-- CompositeGenericTransform -->
<g id="node16" class="node">
<title>CompositeGenericTransform</title>
<g id="a_node16"><a xlink:href="../api/transformations.html#matplotlib.transforms.CompositeGenericTransform" xlink:title="A composite transform formed by applying transform *a* then" target="_top">
<polygon fill="#ffffff" stroke="#000000" stroke-width=".5" points="599,-246 358,-246 358,-220 599,-220 599,-246"/>
<text text-anchor="middle" x="478.5" y="-229.2" font-family="Vera Sans, DejaVu Sans, Liberation Sans, Arial, Helvetica, sans" font-size="16.00" fill="#000000">CompositeGenericTransform</text>
</a>
</g>
</g>
<!-- Transform&#45;&gt;CompositeGenericTransform -->
<g id="edge14" class="edge">
<title>Transform&#45;&gt;CompositeGenericTransform</title>
<path fill="none" stroke="#000000" stroke-width=".5" d="M295.0833,-233C312.0074,-233 331.9489,-233 352.3374,-233"/>
<polygon fill="#000000" stroke="#000000" stroke-width=".5" points="352.529,-234.7501 357.5289,-233 352.5289,-231.2501 352.529,-234.7501"/>
</g>
<!-- TransformWrapper -->
<g id="node21" class="node">
<title>TransformWrapper</title>
<g id="a_node21"><a xlink:href="../api/transformations.html#matplotlib.transforms.TransformWrapper" xlink:title="A helper class that holds a single child transform and acts" target="_top">
<polygon fill="#ffffff" stroke="#000000" stroke-width=".5" points="560,-202 397,-202 397,-176 560,-176 560,-202"/>
<text text-anchor="middle" x="478.5" y="-185.2" font-family="Vera Sans, DejaVu Sans, Liberation Sans, Arial, Helvetica, sans" font-size="16.00" fill="#000000">TransformWrapper</text>
</a>
</g>
</g>
<!-- Transform&#45;&gt;TransformWrapper -->
<g id="edge19" class="edge">
<title>Transform&#45;&gt;TransformWrapper</title>
<path fill="none" stroke="#000000" stroke-width=".5" d="M295.0589,-223.3587C314.5521,-219.452 337.3451,-214.9414 358,-211 371.8602,-208.3552 386.6305,-205.6035 400.9081,-202.9779"/>
<polygon fill="#000000" stroke="#000000" stroke-width=".5" points="401.5416,-204.6409 406.1434,-202.0168 400.9095,-201.1985 401.5416,-204.6409"/>
</g>
<!-- Bbox -->
<g id="node6" class="node">
<title>Bbox</title>
<g id="a_node6"><a xlink:href="../api/transformations.html#matplotlib.transforms.Bbox" xlink:title="A mutable bounding box." target="_top">
<polygon fill="#ffffff" stroke="#000000" stroke-width=".5" points="506,-158 451,-158 451,-132 506,-132 506,-158"/>
<text text-anchor="middle" x="478.5" y="-141.2" font-family="Vera Sans, DejaVu Sans, Liberation Sans, Arial, Helvetica, sans" font-size="16.00" fill="#000000">Bbox</text>
</a>
</g>
</g>
<!-- BboxBase -->
<g id="node7" class="node">
<title>BboxBase</title>
<g id="a_node7"><a xlink:href="../api/transformations.html#matplotlib.transforms.BboxBase" xlink:title="The base class of all bounding boxes." target="_top">
<polygon fill="#ffffff" stroke="#000000" stroke-width=".5" points="294,-114 201,-114 201,-88 294,-88 294,-114"/>
<text text-anchor="middle" x="247.5" y="-97.2" font-family="Vera Sans, DejaVu Sans, Liberation Sans, Arial, Helvetica, sans" font-size="16.00" fill="#000000">BboxBase</text>
</a>
</g>
</g>
<!-- BboxBase&#45;&gt;Bbox -->
<g id="edge5" class="edge">
<title>BboxBase&#45;&gt;Bbox</title>
<path fill="none" stroke="#000000" stroke-width=".5" d="M294.2449,-110.4781C313.9156,-114.422 337.0569,-119.0036 358,-123 387.6428,-128.6565 421.4487,-134.8019 445.6938,-139.1562"/>
<polygon fill="#000000" stroke="#000000" stroke-width=".5" points="445.4869,-140.8969 450.7174,-140.0573 446.1049,-137.4519 445.4869,-140.8969"/>
</g>
<!-- LockableBbox -->
<g id="node18" class="node">
<title>LockableBbox</title>
<g id="a_node18"><a xlink:href="../api/transformations.html#matplotlib.transforms.LockableBbox" xlink:title="A `Bbox` where some elements may be locked at certain values." target="_top">
<polygon fill="#ffffff" stroke="#000000" stroke-width=".5" points="541,-114 416,-114 416,-88 541,-88 541,-114"/>
<text text-anchor="middle" x="478.5" y="-97.2" font-family="Vera Sans, DejaVu Sans, Liberation Sans, Arial, Helvetica, sans" font-size="16.00" fill="#000000">LockableBbox</text>
</a>
</g>
</g>
<!-- BboxBase&#45;&gt;LockableBbox -->
<g id="edge16" class="edge">
<title>BboxBase&#45;&gt;LockableBbox</title>
<path fill="none" stroke="#000000" stroke-width=".5" d="M294.2463,-101C327.5446,-101 372.8299,-101 410.1719,-101"/>
<polygon fill="#000000" stroke="#000000" stroke-width=".5" points="410.6214,-102.7501 415.6214,-101 410.6214,-99.2501 410.6214,-102.7501"/>
</g>
<!-- TransformedBbox -->
<g id="node22" class="node">
<title>TransformedBbox</title>
<g id="a_node22"><a xlink:href="../api/transformations.html#matplotlib.transforms.TransformedBbox" xlink:title="A `Bbox` that is automatically transformed by a given" target="_top">
<polygon fill="#ffffff" stroke="#000000" stroke-width=".5" points="555,-70 402,-70 402,-44 555,-44 555,-70"/>
<text text-anchor="middle" x="478.5" y="-53.2" font-family="Vera Sans, DejaVu Sans, Liberation Sans, Arial, Helvetica, sans" font-size="16.00" fill="#000000">TransformedBbox</text>
</a>
</g>
</g>
<!-- BboxBase&#45;&gt;TransformedBbox -->
<g id="edge20" class="edge">
<title>BboxBase&#45;&gt;TransformedBbox</title>
<path fill="none" stroke="#000000" stroke-width=".5" d="M294.2449,-91.5219C313.9156,-87.578 337.0569,-82.9964 358,-79 371.8602,-76.3552 386.6305,-73.6035 400.9081,-70.9779"/>
<polygon fill="#000000" stroke="#000000" stroke-width=".5" points="401.5416,-72.6409 406.1434,-70.0168 400.9095,-69.1985 401.5416,-72.6409"/>
</g>
<!-- TransformNode -->
<g id="node8" class="node">
<title>TransformNode</title>
<g id="a_node8"><a xlink:href="../api/transformations.html#matplotlib.transforms.TransformNode" xlink:title="The base class for anything that participates in the transform tree" target="_top">
<polygon fill="#ffffff" stroke="#000000" stroke-width=".5" points="137,-114 0,-114 0,-88 137,-88 137,-114"/>
<text text-anchor="middle" x="68.5" y="-97.2" font-family="Vera Sans, DejaVu Sans, Liberation Sans, Arial, Helvetica, sans" font-size="16.00" fill="#000000">TransformNode</text>
</a>
</g>
</g>
<!-- TransformNode&#45;&gt;Transform -->
<g id="edge18" class="edge">
<title>TransformNode&#45;&gt;Transform</title>
<path fill="none" stroke="#000000" stroke-width=".5" d="M118.7413,-114.0668C125.0966,-116.5967 131.3457,-119.557 137,-123 178.3073,-148.1525 215.7789,-191.7749 234.6491,-215.8355"/>
<polygon fill="#000000" stroke="#000000" stroke-width=".5" points="233.2852,-216.9324 237.7345,-219.8076 236.0493,-214.7853 233.2852,-216.9324"/>
</g>
<!-- TransformNode&#45;&gt;BboxBase -->
<g id="edge6" class="edge">
<title>TransformNode&#45;&gt;BboxBase</title>
<path fill="none" stroke="#000000" stroke-width=".5" d="M137.1941,-101C156.6598,-101 177.5156,-101 195.7948,-101"/>
<polygon fill="#000000" stroke="#000000" stroke-width=".5" points="195.8788,-102.7501 200.8788,-101 195.8788,-99.2501 195.8788,-102.7501"/>
</g>
<!-- TransformedPath -->
<g id="node24" class="node">
<title>TransformedPath</title>
<g id="a_node24"><a xlink:href="../api/transformations.html#matplotlib.transforms.TransformedPath" xlink:title="A `TransformedPath` caches a non&#45;affine transformed copy of the" target="_top">
<polygon fill="#ffffff" stroke="#000000" stroke-width=".5" points="322,-48 173,-48 173,-22 322,-22 322,-48"/>
<text text-anchor="middle" x="247.5" y="-31.2" font-family="Vera Sans, DejaVu Sans, Liberation Sans, Arial, Helvetica, sans" font-size="16.00" fill="#000000">TransformedPath</text>
</a>
</g>
</g>
<!-- TransformNode&#45;&gt;TransformedPath -->
<g id="edge22" class="edge">
<title>TransformNode&#45;&gt;TransformedPath</title>
<path fill="none" stroke="#000000" stroke-width=".5" d="M103.8646,-87.9605C133.6522,-76.9774 176.2549,-61.2691 207.325,-49.8131"/>
<polygon fill="#000000" stroke="#000000" stroke-width=".5" points="208.123,-51.3841 212.2088,-48.0124 206.9121,-48.1002 208.123,-51.3841"/>
</g>
<!-- BboxTransformToMaxOnly -->
<g id="node12" class="node">
<title>BboxTransformToMaxOnly</title>
<g id="a_node12"><a xlink:href="../api/transformations.html#matplotlib.transforms.BboxTransformToMaxOnly" xlink:title="`BboxTransformTo` is a transformation that linearly transforms points from" target="_top">
<polygon fill="#ffffff" stroke="#000000" stroke-width=".5" points="1229,-334 1011,-334 1011,-308 1229,-308 1229,-334"/>
<text text-anchor="middle" x="1120" y="-317.2" font-family="Vera Sans, DejaVu Sans, Liberation Sans, Arial, Helvetica, sans" font-size="16.00" fill="#000000">BboxTransformToMaxOnly</text>
</a>
</g>
</g>
<!-- BboxTransformTo&#45;&gt;BboxTransformToMaxOnly -->
<g id="edge10" class="edge">
<title>BboxTransformTo&#45;&gt;BboxTransformToMaxOnly</title>
<path fill="none" stroke="#000000" stroke-width=".5" d="M959.3207,-321C974.1067,-321 989.9259,-321 1005.6582,-321"/>
<polygon fill="#000000" stroke="#000000" stroke-width=".5" points="1005.9887,-322.7501 1010.9886,-321 1005.9886,-319.2501 1005.9887,-322.7501"/>
</g>
<!-- Path -->
<g id="node19" class="node">
<title>Path</title>
<g id="a_node19"><a xlink:href="../path_api.html#matplotlib.path.Path" xlink:title="A series of possibly disconnected, possibly closed, line and curve" target="_top">
<polygon fill="#ffffff" stroke="#000000" stroke-width=".5" points="95.5,-158 41.5,-158 41.5,-132 95.5,-132 95.5,-158"/>
<text text-anchor="middle" x="68.5" y="-141.2" font-family="Vera Sans, DejaVu Sans, Liberation Sans, Arial, Helvetica, sans" font-size="16.00" fill="#000000">Path</text>
</a>
</g>
</g>
<!-- TransformedPatchPath -->
<g id="node23" class="node">
<title>TransformedPatchPath</title>
<g id="a_node23"><a xlink:href="../api/transformations.html#matplotlib.transforms.TransformedPatchPath" xlink:title="A `TransformedPatchPath` caches a non&#45;affine transformed copy of the" target="_top">
<polygon fill="#ffffff" stroke="#000000" stroke-width=".5" points="575,-26 382,-26 382,0 575,0 575,-26"/>
<text text-anchor="middle" x="478.5" y="-9.2" font-family="Vera Sans, DejaVu Sans, Liberation Sans, Arial, Helvetica, sans" font-size="16.00" fill="#000000">TransformedPatchPath</text>
</a>
</g>
</g>
<!-- TransformedPath&#45;&gt;TransformedPatchPath -->
<g id="edge21" class="edge">
<title>TransformedPath&#45;&gt;TransformedPatchPath</title>
<path fill="none" stroke="#000000" stroke-width=".5" d="M322.1801,-27.8876C339.5304,-26.2352 358.2911,-24.4485 376.5903,-22.7057"/>
<polygon fill="#000000" stroke="#000000" stroke-width=".5" points="376.9263,-24.4317 381.7378,-22.2154 376.5944,-20.9475 376.9263,-24.4317"/>
</g>
</g>
</svg>
